<ttFont>
<head>
    <!-- Most of this table will be recalculated by the compiler -->
    <tableVersion value="1.0"/>
    <fontRevision value="1.0"/>
    <checkSumAdjustment value="0x8735d7f6"/>
    <magicNumber value="0x5f0f3cf5"/>
    <flags value="00000000 00011111"/>
    <unitsPerEm value="1000"/>
    <created value="Fri Jan  9 08:15:26 2015"/>
    <modified value="Fri Jan  9 08:15:26 2015"/>
    <xMin value="-173"/>
    <yMin value="-196"/>
    <xMax value="1183"/>
    <yMax value="936"/>
    <macStyle value="00000000 00000000"/>
    <lowestRecPPEM value="8"/>
    <fontDirectionHint value="2"/>
    <indexToLocFormat value="0"/>
    <glyphDataFormat value="0"/>
  </head>
    <TTGlyph name=".notdef" xMin="54" yMin="-15" xMax="749" yMax="683">
      <contour>
        <pt x="402" y="683" on="1"/>
        <pt x="546" y="683" on="0"/>
        <pt x="749" y="484" on="0"/>
        <pt x="749" y="333" on="1"/>
        <pt x="749" y="184" on="0"/>
        <pt x="546" y="-15" on="0"/>
        <pt x="402" y="-15" on="1"/>
        <pt x="257" y="-15" on="0"/>
        <pt x="54" y="184" on="0"/>
        <pt x="54" y="333" on="1"/>
        <pt x="54" y="484" on="0"/>
        <pt x="257" y="683" on="0"/>
      </contour>
      <contour>
        <pt x="402" y="656" on="1"/>
        <pt x="269" y="656" on="0"/>
        <pt x="84" y="473" on="0"/>
        <pt x="84" y="334" on="1"/>
        <pt x="84" y="196" on="0"/>
        <pt x="270" y="13" on="0"/>
        <pt x="534" y="13" on="0"/>
        <pt x="719" y="196" on="0"/>
        <pt x="719" y="334" on="1"/>
        <pt x="719" y="473" on="0"/>
        <pt x="534" y="656" on="0"/>
      </contour>
      <contour>
        <pt x="532" y="401" on="1"/>
        <pt x="532" y="353" on="0"/>
        <pt x="465" y="291" on="0"/>
        <pt x="413" y="287" on="1"/>
        <pt x="413" y="237" on="1"/>
        <pt x="381" y="237" on="1"/>
        <pt x="381" y="317" on="1"/>
        <pt x="400" y="317" on="1"/>
        <pt x="442" y="317" on="0"/>
        <pt x="497" y="363" on="0"/>
        <pt x="497" y="439" on="0"/>
        <pt x="446" y="486" on="0"/>
        <pt x="403" y="486" on="1"/>
        <pt x="358" y="486" on="0"/>
        <pt x="305" y="431" on="0"/>
        <pt x="305" y="386" on="1"/>
        <pt x="271" y="391" on="1"/>
        <pt x="271" y="446" on="0"/>
        <pt x="345" y="517" on="0"/>
        <pt x="403" y="517" on="1"/>
        <pt x="460" y="517" on="0"/>
        <pt x="532" y="453" on="0"/>
      </contour>
      <contour>
        <pt x="387" y="192" on="0"/>
        <pt x="407" y="192" on="0"/>
        <pt x="422" y="178" on="0"/>
        <pt x="422" y="158" on="0"/>
        <pt x="407" y="143" on="0"/>
        <pt x="387" y="143" on="0"/>
        <pt x="372" y="158" on="0"/>
        <pt x="372" y="178" on="0"/>
      </contour>
    </TTGlyph>
    <TTGlyph name="A" xMin="15" yMin="0" xMax="670" yMax="670">
      <contour>
        <pt x="670" y="0" on="1"/>
        <pt x="616" y="0" on="1"/>
        <pt x="534" y="183" on="1"/>
        <pt x="152" y="183" on="1"/>
        <pt x="69" y="0" on="1"/>
        <pt x="15" y="0" on="1"/>
        <pt x="320" y="670" on="1"/>
        <pt x="365" y="670" on="1"/>
      </contour>
      <contour>
        <pt x="513" y="229" on="1"/>
        <pt x="343" y="606" on="1"/>
        <pt x="173" y="229" on="1"/>
      </contour>
    </TTGlyph>
    <TTGlyph name="AE" xMin="15" yMin="0" xMax="1002" yMax="670">
      <contour>
        <pt x="573" y="624" on="1"/>
        <pt x="573" y="359" on="1"/>
        <pt x="972" y="359" on="1"/>
        <pt x="972" y="314" on="1"/>
        <pt x="573" y="314" on="1"/>
        <pt x="573" y="46" on="1"/>
        <pt x="1002" y="46" on="1"/>
        <pt x="1002" y="0" on="1"/>
        <pt x="522" y="0" on="1"/>
        <pt x="522" y="170" on="1"/>
        <pt x="199" y="170" on="1"/>
        <pt x="74" y="0" on="1"/>
        <pt x="15" y="0" on="1"/>
        <pt x="510" y="670" on="1"/>
        <pt x="1002" y="670" on="1"/>
        <pt x="1002" y="624" on="1"/>
      </contour>
      <contour>
        <pt x="522" y="216" on="1"/>
        <pt x="522" y="612" on="1"/>
        <pt x="232" y="216" on="1"/>
      </contour>
    </TTGlyph>
    <TTGlyph name="AEacute" xMin="15" yMin="0" xMax="1002" yMax="886">
      <contour>
        <pt x="723" y="748" on="1"/>
        <pt x="679" y="748" on="1"/>
        <pt x="765" y="886" on="1"/>
        <pt x="821" y="886" on="1"/>
      </contour>
      <contour>
        <pt x="573" y="624" on="1"/>
        <pt x="573" y="359" on="1"/>
        <pt x="972" y="359" on="1"/>
        <pt x="972" y="314" on="1"/>
        <pt x="573" y="314" on="1"/>
        <pt x="573" y="46" on="1"/>
        <pt x="1002" y="46" on="1"/>
        <pt x="1002" y="0" on="1"/>
        <pt x="522" y="0" on="1"/>
        <pt x="522" y="170" on="1"/>
        <pt x="199" y="170" on="1"/>
        <pt x="74" y="0" on="1"/>
        <pt x="15" y="0" on="1"/>
        <pt x="510" y="670" on="1"/>
        <pt x="1002" y="670" on="1"/>
        <pt x="1002" y="624" on="1"/>
      </contour>
      <contour>
        <pt x="522" y="216" on="1"/>
        <pt x="522" y="612" on="1"/>
        <pt x="232" y="216" on="1"/>
      </contour>
    </TTGlyph>
    <TTGlyph name="Aacute" xMin="15" yMin="0" xMax="670" yMax="886">
      <contour>
        <pt x="371" y="748" on="1"/>
        <pt x="327" y="748" on="1"/>
        <pt x="413" y="886" on="1"/>
        <pt x="469" y="886" on="1"/>
      </contour>
      <contour>
        <pt x="670" y="0" on="1"/>
        <pt x="616" y="0" on="1"/>
        <pt x="534" y="183" on="1"/>
        <pt x="152" y="183" on="1"/>
        <pt x="69" y="0" on="1"/>
        <pt x="15" y="0" on="1"/>
        <pt x="320" y="670" on="1"/>
        <pt x="365" y="670" on="1"/>
      </contour>
      <contour>
        <pt x="513" y="229" on="1"/>
        <pt x="343" y="606" on="1"/>
        <pt x="173" y="229" on="1"/>
      </contour>
    </TTGlyph>
    <TTGlyph name="Abreve" xMin="15" yMin="0" xMax="670" yMax="865">
      <contour>
        <pt x="402" y="739" on="0"/>
        <pt x="284" y="739" on="0"/>
        <pt x="209" y="808" on="0"/>
        <pt x="209" y="865" on="1"/>
        <pt x="251" y="865" on="1"/>
        <pt x="251" y="825" on="0"/>
        <pt x="304" y="775" on="0"/>
        <pt x="343" y="775" on="1"/>
        <pt x="383" y="775" on="0"/>
        <pt x="436" y="825" on="0"/>
        <pt x="436" y="865" on="1"/>
        <pt x="477" y="865" on="1"/>
        <pt x="477" y="808" on="0"/>
      </contour>
      <contour>
        <pt x="670" y="0" on="1"/>
        <pt x="616" y="0" on="1"/>
        <pt x="534" y="183" on="1"/>
        <pt x="152" y="183" on="1"/>
        <pt x="69" y="0" on="1"/>
        <pt x="15" y="0" on="1"/>
        <pt x="320" y="670" on="1"/>
        <pt x="365" y="670" on="1"/>
      </contour>
      <contour>
        <pt x="513" y="229" on="1"/>
        <pt x="343" y="606" on="1"/>
        <pt x="173" y="229" on="1"/>
      </contour>
    </TTGlyph>
    <TTGlyph name="Acircumflex" xMin="15" yMin="0" xMax="670" yMax="879">
      <contour>
        <pt x="253" y="741" on="1"/>
        <pt x="202" y="741" on="1"/>
        <pt x="320" y="879" on="1"/>
        <pt x="366" y="879" on="1"/>
        <pt x="485" y="741" on="1"/>
        <pt x="433" y="741" on="1"/>
        <pt x="343" y="846" on="1"/>
      </contour>
      <contour>
        <pt x="670" y="0" on="1"/>
        <pt x="616" y="0" on="1"/>
        <pt x="534" y="183" on="1"/>
        <pt x="152" y="183" on="1"/>
        <pt x="69" y="0" on="1"/>
        <pt x="15" y="0" on="1"/>
        <pt x="320" y="670" on="1"/>
        <pt x="365" y="670" on="1"/>
      </contour>
      <contour>
        <pt x="513" y="229" on="1"/>
        <pt x="343" y="606" on="1"/>
        <pt x="173" y="229" on="1"/>
      </contour>
    </TTGlyph>
    <TTGlyph name="Adieresis" xMin="15" yMin="0" xMax="670" yMax="841">
      <contour>
        <pt x="266" y="766" on="0"/>
        <pt x="232" y="766" on="0"/>
        <pt x="210" y="787" on="0"/>
        <pt x="210" y="803" on="1"/>
        <pt x="210" y="818" on="0"/>
        <pt x="233" y="841" on="0"/>
        <pt x="265" y="841" on="0"/>
        <pt x="287" y="818" on="0"/>
        <pt x="287" y="803" on="1"/>
        <pt x="287" y="787" on="0"/>
      </contour>
      <contour>
        <pt x="455" y="766" on="0"/>
        <pt x="421" y="766" on="0"/>
        <pt x="399" y="787" on="0"/>
        <pt x="399" y="803" on="1"/>
        <pt x="399" y="818" on="0"/>
        <pt x="422" y="841" on="0"/>
        <pt x="454" y="841" on="0"/>
        <pt x="476" y="818" on="0"/>
        <pt x="476" y="803" on="1"/>
        <pt x="476" y="787" on="0"/>
      </contour>
      <contour>
        <pt x="670" y="0" on="1"/>
        <pt x="616" y="0" on="1"/>
        <pt x="534" y="183" on="1"/>
        <pt x="152" y="183" on="1"/>
        <pt x="69" y="0" on="1"/>
        <pt x="15" y="0" on="1"/>
        <pt x="320" y="670" on="1"/>
        <pt x="365" y="670" on="1"/>
      </contour>
      <contour>
        <pt x="513" y="229" on="1"/>
        <pt x="343" y="606" on="1"/>
        <pt x="173" y="229" on="1"/>
      </contour>
    </TTGlyph>
    <TTGlyph name="Agrave" xMin="15" yMin="0" xMax="670" yMax="886">
      <contour>
        <pt x="320" y="748" on="1"/>
        <pt x="222" y="886" on="1"/>
        <pt x="278" y="886" on="1"/>
        <pt x="364" y="748" on="1"/>
      </contour>
      <contour>
        <pt x="670" y="0" on="1"/>
        <pt x="616" y="0" on="1"/>
        <pt x="534" y="183" on="1"/>
        <pt x="152" y="183" on="1"/>
        <pt x="69" y="0" on="1"/>
        <pt x="15" y="0" on="1"/>
        <pt x="320" y="670" on="1"/>
        <pt x="365" y="670" on="1"/>
      </contour>
      <contour>
        <pt x="513" y="229" on="1"/>
        <pt x="343" y="606" on="1"/>
        <pt x="173" y="229" on="1"/>
      </contour>
    </TTGlyph>
    <TTGlyph name="Amacron" xMin="15" yMin="0" xMax="670" yMax="810">
      <contour>
        <pt x="477" y="770" on="1"/>
        <pt x="210" y="770" on="1"/>
        <pt x="210" y="810" on="1"/>
        <pt x="477" y="810" on="1"/>
      </contour>
      <contour>
        <pt x="670" y="0" on="1"/>
        <pt x="616" y="0" on="1"/>
        <pt x="534" y="183" on="1"/>
        <pt x="152" y="183" on="1"/>
        <pt x="69" y="0" on="1"/>
        <pt x="15" y="0" on="1"/>
        <pt x="320" y="670" on="1"/>
        <pt x="365" y="670" on="1"/>
      </contour>
      <contour>
        <pt x="513" y="229" on="1"/>
        <pt x="343" y="606" on="1"/>
        <pt x="173" y="229" on="1"/>
      </contour>
    </TTGlyph>
    <TTGlyph name="Aogonek" xMin="15" yMin="-195" xMax="699" yMax="670">
      <contour>
        <pt x="693" y="-147" on="1"/>
        <pt x="699" y="-182" on="1"/>
        <pt x="661" y="-195" on="0"/>
        <pt x="640" y="-195" on="1"/>
        <pt x="608" y="-195" on="0"/>
        <pt x="559" y="-158" on="0"/>
        <pt x="559" y="-116" on="1"/>
        <pt x="559" y="-87" on="0"/>
        <pt x="590" y="-38" on="0"/>
        <pt x="629" y="0" on="1"/>
        <pt x="616" y="0" on="1"/>
        <pt x="534" y="183" on="1"/>
        <pt x="152" y="183" on="1"/>
        <pt x="69" y="0" on="1"/>
        <pt x="15" y="0" on="1"/>
        <pt x="320" y="670" on="1"/>
        <pt x="365" y="670" on="1"/>
        <pt x="670" y="0" on="1"/>
        <pt x="628" y="-42" on="0"/>
        <pt x="599" y="-84" on="0"/>
        <pt x="599" y="-109" on="1"/>
        <pt x="599" y="-158" on="0"/>
        <pt x="647" y="-158" on="1"/>
        <pt x="662" y="-158" on="0"/>
      </contour>
      <contour>
        <pt x="513" y="229" on="1"/>
        <pt x="343" y="606" on="1"/>
        <pt x="173" y="229" on="1"/>
      </contour>
    </TTGlyph>
    <TTGlyph name="Aring" xMin="15" yMin="0" xMax="670" yMax="920">
      <contour>
        <pt x="383" y="734" on="0"/>
        <pt x="303" y="734" on="0"/>
        <pt x="247" y="789" on="0"/>
        <pt x="247" y="865" on="0"/>
        <pt x="303" y="920" on="0"/>
        <pt x="383" y="920" on="0"/>
        <pt x="439" y="865" on="0"/>
        <pt x="439" y="789" on="0"/>
      </contour>
      <contour>
        <pt x="369" y="888" on="0"/>
        <pt x="317" y="888" on="0"/>
        <pt x="280" y="852" on="0"/>
        <pt x="280" y="802" on="0"/>
        <pt x="317" y="766" on="0"/>
        <pt x="369" y="766" on="0"/>
        <pt x="406" y="802" on="0"/>
        <pt x="406" y="852" on="0"/>
      </contour>
      <contour>
        <pt x="670" y="0" on="1"/>
        <pt x="616" y="0" on="1"/>
        <pt x="534" y="183" on="1"/>
        <pt x="152" y="183" on="1"/>
        <pt x="69" y="0" on="1"/>
        <pt x="15" y="0" on="1"/>
        <pt x="320" y="670" on="1"/>
        <pt x="365" y="670" on="1"/>
      </contour>
      <contour>
        <pt x="513" y="229" on="1"/>
        <pt x="343" y="606" on="1"/>
        <pt x="173" y="229" on="1"/>
      </contour>
    </TTGlyph>
    <TTGlyph name="Atilde" xMin="15" yMin="0" xMax="670" yMax="864">
      <contour>
        <pt x="284" y="826" on="1"/>
        <pt x="264" y="826" on="0"/>
        <pt x="241" y="799" on="0"/>
        <pt x="241" y="776" on="1"/>
        <pt x="204" y="776" on="1"/>
        <pt x="204" y="819" on="0"/>
        <pt x="248" y="864" on="0"/>
        <pt x="281" y="864" on="1"/>
        <pt x="311" y="864" on="0"/>
        <pt x="382" y="811" on="0"/>
        <pt x="404" y="811" on="1"/>
        <pt x="423" y="811" on="0"/>
        <pt x="444" y="839" on="0"/>
        <pt x="444" y="863" on="1"/>
        <pt x="482" y="863" on="1"/>
        <pt x="482" y="819" on="0"/>
        <pt x="439" y="774" on="0"/>
        <pt x="406" y="774" on="1"/>
        <pt x="376" y="774" on="0"/>
        <pt x="305" y="826" on="0"/>
      </contour>
      <contour>
        <pt x="670" y="0" on="1"/>
        <pt x="616" y="0" on="1"/>
        <pt x="534" y="183" on="1"/>
        <pt x="152" y="183" on="1"/>
        <pt x="69" y="0" on="1"/>
        <pt x="15" y="0" on="1"/>
        <pt x="320" y="670" on="1"/>
        <pt x="365" y="670" on="1"/>
      </contour>
      <contour>
        <pt x="513" y="229" on="1"/>
        <pt x="343" y="606" on="1"/>
        <pt x="173" y="229" on="1"/>
      </contour>
    </TTGlyph>
    <TTGlyph name="B" xMin="96" yMin="0" xMax="617" yMax="670">
      <contour>
        <pt x="473" y="342" on="1"/>
        <pt x="473" y="340" on="1"/>
        <pt x="538" y="333" on="0"/>
        <pt x="617" y="247" on="0"/>
        <pt x="617" y="180" on="1"/>
        <pt x="617" y="100" on="0"/>
        <pt x="507" y="0" on="0"/>
        <pt x="413" y="0" on="1"/>
        <pt x="96" y="0" on="1"/>
        <pt x="96" y="670" on="1"/>
        <pt x="394" y="670" on="1"/>
        <pt x="488" y="670" on="0"/>
        <pt x="594" y="576" on="0"/>
        <pt x="594" y="498" on="1"/>
        <pt x="594" y="436" on="0"/>
        <pt x="524" y="350" on="0"/>
      </contour>
      <contour>
        <pt x="147" y="626" on="1"/>
        <pt x="147" y="359" on="1"/>
        <pt x="405" y="359" on="1"/>
        <pt x="468" y="359" on="0"/>
        <pt x="546" y="435" on="0"/>
        <pt x="546" y="496" on="1"/>
        <pt x="546" y="555" on="0"/>
        <pt x="463" y="626" on="0"/>
        <pt x="390" y="626" on="1"/>
      </contour>
      <contour>
        <pt x="147" y="44" on="1"/>
        <pt x="409" y="44" on="1"/>
        <pt x="480" y="44" on="0"/>
        <pt x="566" y="121" on="0"/>
        <pt x="566" y="245" on="0"/>
        <pt x="479" y="317" on="0"/>
        <pt x="408" y="317" on="1"/>
        <pt x="147" y="317" on="1"/>
      </contour>
    </TTGlyph>
    <TTGlyph name="C" xMin="63" yMin="-11" xMax="722" yMax="681">
      <contour>
        <pt x="408" y="36" on="1"/>
        <pt x="502" y="36" on="0"/>
        <pt x="643" y="128" on="0"/>
        <pt x="673" y="207" on="1"/>
        <pt x="722" y="195" on="1"/>
        <pt x="688" y="100" on="0"/>
        <pt x="520" y="-11" on="0"/>
        <pt x="408" y="-11" on="1"/>
        <pt x="263" y="-11" on="0"/>
        <pt x="63" y="190" on="0"/>
        <pt x="63" y="480" on="0"/>
        <pt x="263" y="681" on="0"/>
        <pt x="408" y="681" on="1"/>
        <pt x="520" y="681" on="0"/>
        <pt x="688" y="571" on="0"/>
        <pt x="722" y="478" on="1"/>
        <pt x="674" y="463" on="1"/>
        <pt x="645" y="542" on="0"/>
        <pt x="503" y="634" on="0"/>
        <pt x="408" y="634" on="1"/>
        <pt x="284" y="634" on="0"/>
        <pt x="113" y="461" on="0"/>
        <pt x="113" y="209" on="0"/>
        <pt x="284" y="36" on="0"/>
      </contour>
    </TTGlyph>
    <TTGlyph name="Cacute" xMin="63" yMin="-11" xMax="722" yMax="886">
      <contour>
        <pt x="433" y="748" on="1"/>
        <pt x="389" y="748" on="1"/>
        <pt x="475" y="886" on="1"/>
        <pt x="531" y="886" on="1"/>
      </contour>
      <contour>
        <pt x="408" y="36" on="1"/>
        <pt x="502" y="36" on="0"/>
        <pt x="643" y="128" on="0"/>
        <pt x="673" y="207" on="1"/>
        <pt x="722" y="195" on="1"/>
        <pt x="688" y="100" on="0"/>
        <pt x="520" y="-11" on="0"/>
        <pt x="408" y="-11" on="1"/>
        <pt x="263" y="-11" on="0"/>
        <pt x="63" y="190" on="0"/>
        <pt x="63" y="480" on="0"/>
        <pt x="263" y="681" on="0"/>
        <pt x="408" y="681" on="1"/>
        <pt x="520" y="681" on="0"/>
        <pt x="688" y="571" on="0"/>
        <pt x="722" y="478" on="1"/>
        <pt x="674" y="463" on="1"/>
        <pt x="645" y="542" on="0"/>
        <pt x="503" y="634" on="0"/>
        <pt x="408" y="634" on="1"/>
        <pt x="284" y="634" on="0"/>
        <pt x="113" y="461" on="0"/>
        <pt x="113" y="209" on="0"/>
        <pt x="284" y="36" on="0"/>
      </contour>
    </TTGlyph>
    <TTGlyph name="Ccaron" xMin="63" yMin="-11" xMax="722" yMax="881">
      <contour>
        <pt x="382" y="742" on="1"/>
        <pt x="264" y="881" on="1"/>
        <pt x="315" y="881" on="1"/>
        <pt x="405" y="775" on="1"/>
        <pt x="495" y="881" on="1"/>
        <pt x="547" y="881" on="1"/>
        <pt x="428" y="742" on="1"/>
      </contour>
      <contour>
        <pt x="408" y="36" on="1"/>
        <pt x="502" y="36" on="0"/>
        <pt x="643" y="128" on="0"/>
        <pt x="673" y="207" on="1"/>
        <pt x="722" y="195" on="1"/>
        <pt x="688" y="100" on="0"/>
        <pt x="520" y="-11" on="0"/>
        <pt x="408" y="-11" on="1"/>
        <pt x="263" y="-11" on="0"/>
        <pt x="63" y="190" on="0"/>
        <pt x="63" y="480" on="0"/>
        <pt x="263" y="681" on="0"/>
        <pt x="408" y="681" on="1"/>
        <pt x="520" y="681" on="0"/>
        <pt x="688" y="571" on="0"/>
        <pt x="722" y="478" on="1"/>
        <pt x="674" y="463" on="1"/>
        <pt x="645" y="542" on="0"/>
        <pt x="503" y="634" on="0"/>
        <pt x="408" y="634" on="1"/>
        <pt x="284" y="634" on="0"/>
        <pt x="113" y="461" on="0"/>
        <pt x="113" y="209" on="0"/>
        <pt x="284" y="36" on="0"/>
      </contour>
    </TTGlyph>
    <TTGlyph name="Ccedilla" xMin="63" yMin="-175" xMax="722" yMax="681">
      <contour>
        <pt x="408" y="36" on="1"/>
        <pt x="502" y="36" on="0"/>
        <pt x="643" y="128" on="0"/>
        <pt x="673" y="207" on="1"/>
        <pt x="722" y="195" on="1"/>
        <pt x="689" y="103" on="0"/>
        <pt x="527" y="-8" on="0"/>
        <pt x="419" y="-11" on="1"/>
        <pt x="336" y="-175" on="1"/>
        <pt x="282" y="-175" on="1"/>
        <pt x="378" y="-10" on="1"/>
        <pt x="244" y="1" on="0"/>
        <pt x="63" y="198" on="0"/>
        <pt x="63" y="335" on="1"/>
        <pt x="63" y="480" on="0"/>
        <pt x="263" y="681" on="0"/>
        <pt x="408" y="681" on="1"/>
        <pt x="520" y="681" on="0"/>
        <pt x="688" y="571" on="0"/>
        <pt x="722" y="478" on="1"/>
        <pt x="674" y="463" on="1"/>
        <pt x="645" y="542" on="0"/>
        <pt x="503" y="634" on="0"/>
        <pt x="408" y="634" on="1"/>
        <pt x="284" y="634" on="0"/>
        <pt x="113" y="461" on="0"/>
        <pt x="113" y="209" on="0"/>
        <pt x="284" y="36" on="0"/>
      </contour>
    </TTGlyph>
    <TTGlyph name="Cdotaccent" xMin="63" yMin="-11" xMax="722" yMax="846">
      <contour>
        <pt x="422" y="772" on="0"/>
        <pt x="388" y="772" on="0"/>
        <pt x="367" y="793" on="0"/>
        <pt x="367" y="809" on="1"/>
        <pt x="367" y="824" on="0"/>
        <pt x="389" y="846" on="0"/>
        <pt x="421" y="846" on="0"/>
        <pt x="443" y="824" on="0"/>
        <pt x="443" y="809" on="1"/>
        <pt x="443" y="793" on="0"/>
      </contour>
      <contour>
        <pt x="408" y="36" on="1"/>
        <pt x="502" y="36" on="0"/>
        <pt x="643" y="128" on="0"/>
        <pt x="673" y="207" on="1"/>
        <pt x="722" y="195" on="1"/>
        <pt x="688" y="100" on="0"/>
        <pt x="520" y="-11" on="0"/>
        <pt x="408" y="-11" on="1"/>
        <pt x="263" y="-11" on="0"/>
        <pt x="63" y="190" on="0"/>
        <pt x="63" y="480" on="0"/>
        <pt x="263" y="681" on="0"/>
        <pt x="408" y="681" on="1"/>
        <pt x="520" y="681" on="0"/>
        <pt x="688" y="571" on="0"/>
        <pt x="722" y="478" on="1"/>
        <pt x="674" y="463" on="1"/>
        <pt x="645" y="542" on="0"/>
        <pt x="503" y="634" on="0"/>
        <pt x="408" y="634" on="1"/>
        <pt x="284" y="634" on="0"/>
        <pt x="113" y="461" on="0"/>
        <pt x="113" y="209" on="0"/>
        <pt x="284" y="36" on="0"/>
      </contour>
    </TTGlyph>
    <TTGlyph name="D" xMin="96" yMin="0" xMax="678" yMax="670">
      <contour>
        <pt x="96" y="670" on="1"/>
        <pt x="306" y="670" on="1"/>
        <pt x="481" y="670" on="0"/>
        <pt x="678" y="479" on="0"/>
        <pt x="678" y="191" on="0"/>
        <pt x="481" y="0" on="0"/>
        <pt x="306" y="0" on="1"/>
        <pt x="96" y="0" on="1"/>
      </contour>
      <contour>
        <pt x="147" y="46" on="1"/>
        <pt x="305" y="46" on="1"/>
        <pt x="458" y="46" on="0"/>
        <pt x="628" y="211" on="0"/>
        <pt x="628" y="459" on="0"/>
        <pt x="458" y="624" on="0"/>
        <pt x="305" y="624" on="1"/>
        <pt x="147" y="624" on="1"/>
      </contour>
    </TTGlyph>
    <TTGlyph name="Dcaron" xMin="96" yMin="0" xMax="678" yMax="881">
      <contour>
        <pt x="324" y="742" on="1"/>
        <pt x="206" y="881" on="1"/>
        <pt x="257" y="881" on="1"/>
        <pt x="347" y="775" on="1"/>
        <pt x="437" y="881" on="1"/>
        <pt x="489" y="881" on="1"/>
        <pt x="370" y="742" on="1"/>
      </contour>
      <contour>
        <pt x="96" y="670" on="1"/>
        <pt x="306" y="670" on="1"/>
        <pt x="481" y="670" on="0"/>
        <pt x="678" y="479" on="0"/>
        <pt x="678" y="191" on="0"/>
        <pt x="481" y="0" on="0"/>
        <pt x="306" y="0" on="1"/>
        <pt x="96" y="0" on="1"/>
      </contour>
      <contour>
        <pt x="147" y="46" on="1"/>
        <pt x="305" y="46" on="1"/>
        <pt x="458" y="46" on="0"/>
        <pt x="628" y="211" on="0"/>
        <pt x="628" y="459" on="0"/>
        <pt x="458" y="624" on="0"/>
        <pt x="305" y="624" on="1"/>
        <pt x="147" y="624" on="1"/>
      </contour>
    </TTGlyph>
    <TTGlyph name="Dcroat" xMin="30" yMin="0" xMax="695" yMax="670">
      <contour>
        <pt x="113" y="670" on="1"/>
        <pt x="322" y="670" on="1"/>
        <pt x="497" y="670" on="0"/>
        <pt x="695" y="479" on="0"/>
        <pt x="695" y="191" on="0"/>
        <pt x="497" y="0" on="0"/>
        <pt x="322" y="0" on="1"/>
        <pt x="113" y="0" on="1"/>
        <pt x="113" y="315" on="1"/>
        <pt x="30" y="315" on="1"/>
        <pt x="30" y="361" on="1"/>
        <pt x="113" y="361" on="1"/>
      </contour>
      <contour>
        <pt x="163" y="46" on="1"/>
        <pt x="321" y="46" on="1"/>
        <pt x="474" y="46" on="0"/>
        <pt x="644" y="211" on="0"/>
        <pt x="644" y="459" on="0"/>
        <pt x="474" y="624" on="0"/>
        <pt x="321" y="624" on="1"/>
        <pt x="163" y="624" on="1"/>
        <pt x="163" y="361" on="1"/>
        <pt x="343" y="361" on="1"/>
        <pt x="343" y="315" on="1"/>
        <pt x="163" y="315" on="1"/>
      </contour>
    </TTGlyph>
    <TTGlyph name="E" xMin="96" yMin="0" xMax="576" yMax="670">
      <contour>
        <pt x="147" y="624" on="1"/>
        <pt x="147" y="359" on="1"/>
        <pt x="546" y="359" on="1"/>
        <pt x="546" y="314" on="1"/>
        <pt x="147" y="314" on="1"/>
        <pt x="147" y="46" on="1"/>
        <pt x="576" y="46" on="1"/>
        <pt x="576" y="0" on="1"/>
        <pt x="96" y="0" on="1"/>
        <pt x="96" y="670" on="1"/>
        <pt x="576" y="670" on="1"/>
        <pt x="576" y="624" on="1"/>
      </contour>
    </TTGlyph>
    <TTGlyph name="Eacute" xMin="96" yMin="0" xMax="576" yMax="886">
      <contour>
        <pt x="368" y="748" on="1"/>
        <pt x="324" y="748" on="1"/>
        <pt x="410" y="886" on="1"/>
        <pt x="466" y="886" on="1"/>
      </contour>
      <contour>
        <pt x="147" y="624" on="1"/>
        <pt x="147" y="359" on="1"/>
        <pt x="546" y="359" on="1"/>
        <pt x="546" y="314" on="1"/>
        <pt x="147" y="314" on="1"/>
        <pt x="147" y="46" on="1"/>
        <pt x="576" y="46" on="1"/>
        <pt x="576" y="0" on="1"/>
        <pt x="96" y="0" on="1"/>
        <pt x="96" y="670" on="1"/>
        <pt x="576" y="670" on="1"/>
        <pt x="576" y="624" on="1"/>
      </contour>
    </TTGlyph>
    <TTGlyph name="Ecaron" xMin="96" yMin="0" xMax="576" yMax="881">
      <contour>
        <pt x="317" y="742" on="1"/>
        <pt x="199" y="881" on="1"/>
        <pt x="250" y="881" on="1"/>
        <pt x="340" y="775" on="1"/>
        <pt x="430" y="881" on="1"/>
        <pt x="482" y="881" on="1"/>
        <pt x="363" y="742" on="1"/>
      </contour>
      <contour>
        <pt x="147" y="624" on="1"/>
        <pt x="147" y="359" on="1"/>
        <pt x="546" y="359" on="1"/>
        <pt x="546" y="314" on="1"/>
        <pt x="147" y="314" on="1"/>
        <pt x="147" y="46" on="1"/>
        <pt x="576" y="46" on="1"/>
        <pt x="576" y="0" on="1"/>
        <pt x="96" y="0" on="1"/>
        <pt x="96" y="670" on="1"/>
        <pt x="576" y="670" on="1"/>
        <pt x="576" y="624" on="1"/>
      </contour>
    </TTGlyph>
    <TTGlyph name="Ecircumflex" xMin="96" yMin="0" xMax="576" yMax="879">
      <contour>
        <pt x="250" y="741" on="1"/>
        <pt x="199" y="741" on="1"/>
        <pt x="317" y="879" on="1"/>
        <pt x="363" y="879" on="1"/>
        <pt x="482" y="741" on="1"/>
        <pt x="430" y="741" on="1"/>
        <pt x="340" y="846" on="1"/>
      </contour>
      <contour>
        <pt x="147" y="624" on="1"/>
        <pt x="147" y="359" on="1"/>
        <pt x="546" y="359" on="1"/>
        <pt x="546" y="314" on="1"/>
        <pt x="147" y="314" on="1"/>
        <pt x="147" y="46" on="1"/>
        <pt x="576" y="46" on="1"/>
        <pt x="576" y="0" on="1"/>
        <pt x="96" y="0" on="1"/>
        <pt x="96" y="670" on="1"/>
        <pt x="576" y="670" on="1"/>
        <pt x="576" y="624" on="1"/>
      </contour>
    </TTGlyph>
    <TTGlyph name="Edieresis" xMin="96" yMin="0" xMax="576" yMax="841">
      <contour>
        <pt x="263" y="766" on="0"/>
        <pt x="229" y="766" on="0"/>
        <pt x="207" y="787" on="0"/>
        <pt x="207" y="803" on="1"/>
        <pt x="207" y="818" on="0"/>
        <pt x="230" y="841" on="0"/>
        <pt x="262" y="841" on="0"/>
        <pt x="284" y="818" on="0"/>
        <pt x="284" y="803" on="1"/>
        <pt x="284" y="787" on="0"/>
      </contour>
      <contour>
        <pt x="452" y="766" on="0"/>
        <pt x="418" y="766" on="0"/>
        <pt x="396" y="787" on="0"/>
        <pt x="396" y="803" on="1"/>
        <pt x="396" y="818" on="0"/>
        <pt x="419" y="841" on="0"/>
        <pt x="451" y="841" on="0"/>
        <pt x="473" y="818" on="0"/>
        <pt x="473" y="803" on="1"/>
        <pt x="473" y="787" on="0"/>
      </contour>
      <contour>
        <pt x="147" y="624" on="1"/>
        <pt x="147" y="359" on="1"/>
        <pt x="546" y="359" on="1"/>
        <pt x="546" y="314" on="1"/>
        <pt x="147" y="314" on="1"/>
        <pt x="147" y="46" on="1"/>
        <pt x="576" y="46" on="1"/>
        <pt x="576" y="0" on="1"/>
        <pt x="96" y="0" on="1"/>
        <pt x="96" y="670" on="1"/>
        <pt x="576" y="670" on="1"/>
        <pt x="576" y="624" on="1"/>
      </contour>
    </TTGlyph>
    <TTGlyph name="Edotaccent" xMin="96" yMin="0" xMax="576" yMax="846">
      <contour>
        <pt x="357" y="772" on="0"/>
        <pt x="323" y="772" on="0"/>
        <pt x="302" y="793" on="0"/>
        <pt x="302" y="809" on="1"/>
        <pt x="302" y="824" on="0"/>
        <pt x="324" y="846" on="0"/>
        <pt x="356" y="846" on="0"/>
        <pt x="378" y="824" on="0"/>
        <pt x="378" y="809" on="1"/>
        <pt x="378" y="793" on="0"/>
      </contour>
      <contour>
        <pt x="147" y="624" on="1"/>
        <pt x="147" y="359" on="1"/>
        <pt x="546" y="359" on="1"/>
        <pt x="546" y="314" on="1"/>
        <pt x="147" y="314" on="1"/>
        <pt x="147" y="46" on="1"/>
        <pt x="576" y="46" on="1"/>
        <pt x="576" y="0" on="1"/>
        <pt x="96" y="0" on="1"/>
        <pt x="96" y="670" on="1"/>
        <pt x="576" y="670" on="1"/>
        <pt x="576" y="624" on="1"/>
      </contour>
    </TTGlyph>
    <TTGlyph name="Egrave" xMin="96" yMin="0" xMax="576" yMax="886">
      <contour>
        <pt x="317" y="748" on="1"/>
        <pt x="219" y="886" on="1"/>
        <pt x="275" y="886" on="1"/>
        <pt x="361" y="748" on="1"/>
      </contour>
      <contour>
        <pt x="147" y="624" on="1"/>
        <pt x="147" y="359" on="1"/>
        <pt x="546" y="359" on="1"/>
        <pt x="546" y="314" on="1"/>
        <pt x="147" y="314" on="1"/>
        <pt x="147" y="46" on="1"/>
        <pt x="576" y="46" on="1"/>
        <pt x="576" y="0" on="1"/>
        <pt x="96" y="0" on="1"/>
        <pt x="96" y="670" on="1"/>
        <pt x="576" y="670" on="1"/>
        <pt x="576" y="624" on="1"/>
      </contour>
    </TTGlyph>
    <TTGlyph name="Emacron" xMin="96" yMin="0" xMax="576" yMax="810">
      <contour>
        <pt x="474" y="770" on="1"/>
        <pt x="207" y="770" on="1"/>
        <pt x="207" y="810" on="1"/>
        <pt x="474" y="810" on="1"/>
      </contour>
      <contour>
        <pt x="147" y="624" on="1"/>
        <pt x="147" y="359" on="1"/>
        <pt x="546" y="359" on="1"/>
        <pt x="546" y="314" on="1"/>
        <pt x="147" y="314" on="1"/>
        <pt x="147" y="46" on="1"/>
        <pt x="576" y="46" on="1"/>
        <pt x="576" y="0" on="1"/>
        <pt x="96" y="0" on="1"/>
        <pt x="96" y="670" on="1"/>
        <pt x="576" y="670" on="1"/>
        <pt x="576" y="624" on="1"/>
      </contour>
    </TTGlyph>
    <TTGlyph name="Eng" xMin="96" yMin="-180" xMax="663" yMax="670">
      <contour>
        <pt x="663" y="670" on="1"/>
        <pt x="663" y="-64" on="1"/>
        <pt x="663" y="-115" on="0"/>
        <pt x="601" y="-180" on="0"/>
        <pt x="550" y="-180" on="1"/>
        <pt x="506" y="-180" on="0"/>
        <pt x="471" y="-158" on="1"/>
        <pt x="483" y="-119" on="1"/>
        <pt x="512" y="-135" on="0"/>
        <pt x="541" y="-135" on="1"/>
        <pt x="574" y="-135" on="0"/>
        <pt x="614" y="-97" on="0"/>
        <pt x="614" y="-64" on="1"/>
        <pt x="614" y="5" on="1"/>
        <pt x="147" y="583" on="1"/>
        <pt x="147" y="0" on="1"/>
        <pt x="96" y="0" on="1"/>
        <pt x="96" y="670" on="1"/>
        <pt x="141" y="670" on="1"/>
        <pt x="613" y="83" on="1"/>
        <pt x="613" y="670" on="1"/>
      </contour>
    </TTGlyph>
    <TTGlyph name="Eogonek" xMin="96" yMin="-195" xMax="576" yMax="670">
      <contour>
        <pt x="147" y="624" on="1"/>
        <pt x="147" y="359" on="1"/>
        <pt x="546" y="359" on="1"/>
        <pt x="546" y="314" on="1"/>
        <pt x="147" y="314" on="1"/>
        <pt x="147" y="46" on="1"/>
        <pt x="576" y="46" on="1"/>
        <pt x="576" y="0" on="1"/>
        <pt x="540" y="0" on="1"/>
        <pt x="498" y="-42" on="0"/>
        <pt x="469" y="-84" on="0"/>
        <pt x="469" y="-109" on="1"/>
        <pt x="469" y="-158" on="0"/>
        <pt x="517" y="-158" on="1"/>
        <pt x="532" y="-158" on="0"/>
        <pt x="563" y="-147" on="1"/>
        <pt x="569" y="-182" on="1"/>
        <pt x="531" y="-195" on="0"/>
        <pt x="510" y="-195" on="1"/>
        <pt x="478" y="-195" on="0"/>
        <pt x="429" y="-158" on="0"/>
        <pt x="429" y="-116" on="1"/>
        <pt x="429" y="-87" on="0"/>
        <pt x="460" y="-38" on="0"/>
        <pt x="499" y="0" on="1"/>
        <pt x="96" y="0" on="1"/>
        <pt x="96" y="670" on="1"/>
        <pt x="576" y="670" on="1"/>
        <pt x="576" y="624" on="1"/>
      </contour>
    </TTGlyph>
    <TTGlyph name="Eth" xMin="30" yMin="0" xMax="695" yMax="670">
      <contour>
        <pt x="113" y="670" on="1"/>
        <pt x="322" y="670" on="1"/>
        <pt x="497" y="670" on="0"/>
        <pt x="695" y="479" on="0"/>
        <pt x="695" y="191" on="0"/>
        <pt x="497" y="0" on="0"/>
        <pt x="322" y="0" on="1"/>
        <pt x="113" y="0" on="1"/>
        <pt x="113" y="315" on="1"/>
        <pt x="30" y="315" on="1"/>
        <pt x="30" y="361" on="1"/>
        <pt x="113" y="361" on="1"/>
      </contour>
      <contour>
        <pt x="163" y="46" on="1"/>
        <pt x="321" y="46" on="1"/>
        <pt x="474" y="46" on="0"/>
        <pt x="644" y="211" on="0"/>
        <pt x="644" y="459" on="0"/>
        <pt x="474" y="624" on="0"/>
        <pt x="321" y="624" on="1"/>
        <pt x="163" y="624" on="1"/>
        <pt x="163" y="361" on="1"/>
        <pt x="343" y="361" on="1"/>
        <pt x="343" y="315" on="1"/>
        <pt x="163" y="315" on="1"/>
      </contour>
    </TTGlyph>
    <TTGlyph name="Euro" xMin="96" yMin="-11" xMax="735" yMax="681">
      <contour>
        <pt x="478" y="36" on="1"/>
        <pt x="554" y="36" on="0"/>
        <pt x="664" y="136" on="0"/>
        <pt x="687" y="227" on="1"/>
        <pt x="735" y="216" on="1"/>
        <pt x="711" y="112" on="0"/>
        <pt x="574" y="-11" on="0"/>
        <pt x="478" y="-11" on="1"/>
        <pt x="378" y="-11" on="0"/>
        <pt x="239" y="122" on="0"/>
        <pt x="217" y="236" on="1"/>
        <pt x="96" y="236" on="1"/>
        <pt x="96" y="275" on="1"/>
        <pt x="211" y="275" on="1"/>
        <pt x="208" y="304" on="0"/>
        <pt x="208" y="335" on="1"/>
        <pt x="208" y="353" on="0"/>
        <pt x="210" y="387" on="1"/>
        <pt x="96" y="387" on="1"/>
        <pt x="96" y="426" on="1"/>
        <pt x="216" y="426" on="1"/>
        <pt x="236" y="544" on="0"/>
        <pt x="376" y="681" on="0"/>
        <pt x="478" y="681" on="1"/>
        <pt x="575" y="681" on="0"/>
        <pt x="712" y="558" on="0"/>
        <pt x="735" y="453" on="1"/>
        <pt x="686" y="441" on="1"/>
        <pt x="664" y="533" on="0"/>
        <pt x="554" y="635" on="0"/>
        <pt x="478" y="635" on="1"/>
        <pt x="398" y="635" on="0"/>
        <pt x="286" y="523" on="0"/>
        <pt x="267" y="426" on="1"/>
        <pt x="545" y="426" on="1"/>
        <pt x="535" y="387" on="1"/>
        <pt x="262" y="387" on="1"/>
        <pt x="259" y="362" on="0"/>
        <pt x="259" y="335" on="1"/>
        <pt x="259" y="304" on="0"/>
        <pt x="262" y="275" on="1"/>
        <pt x="505" y="275" on="1"/>
        <pt x="496" y="236" on="1"/>
        <pt x="269" y="236" on="1"/>
        <pt x="289" y="143" on="0"/>
        <pt x="399" y="36" on="0"/>
      </contour>
    </TTGlyph>
    <TTGlyph name="Euro.tf" xMin="22" yMin="-11" xMax="576" yMax="681">
      <contour>
        <pt x="331" y="36" on="1"/>
        <pt x="402" y="36" on="0"/>
        <pt x="504" y="135" on="0"/>
        <pt x="527" y="225" on="1"/>
        <pt x="576" y="214" on="1"/>
        <pt x="553" y="111" on="0"/>
        <pt x="423" y="-11" on="0"/>
        <pt x="331" y="-11" on="1"/>
        <pt x="235" y="-11" on="0"/>
        <pt x="102" y="121" on="0"/>
        <pt x="81" y="236" on="1"/>
        <pt x="22" y="236" on="1"/>
        <pt x="22" y="275" on="1"/>
        <pt x="76" y="275" on="1"/>
        <pt x="73" y="304" on="0"/>
        <pt x="73" y="335" on="1"/>
        <pt x="73" y="353" on="0"/>
        <pt x="75" y="387" on="1"/>
        <pt x="22" y="387" on="1"/>
        <pt x="22" y="426" on="1"/>
        <pt x="80" y="426" on="1"/>
        <pt x="99" y="545" on="0"/>
        <pt x="233" y="681" on="0"/>
        <pt x="331" y="681" on="1"/>
        <pt x="423" y="681" on="0"/>
        <pt x="553" y="558" on="0"/>
        <pt x="576" y="454" on="1"/>
        <pt x="527" y="444" on="1"/>
        <pt x="506" y="533" on="0"/>
        <pt x="402" y="635" on="0"/>
        <pt x="331" y="635" on="1"/>
        <pt x="255" y="635" on="0"/>
        <pt x="149" y="524" on="0"/>
        <pt x="132" y="426" on="1"/>
        <pt x="394" y="426" on="1"/>
        <pt x="384" y="387" on="1"/>
        <pt x="126" y="387" on="1"/>
        <pt x="124" y="353" on="0"/>
        <pt x="124" y="335" on="1"/>
        <pt x="124" y="304" on="0"/>
        <pt x="127" y="275" on="1"/>
        <pt x="356" y="275" on="1"/>
        <pt x="347" y="236" on="1"/>
        <pt x="133" y="236" on="1"/>
        <pt x="152" y="142" on="0"/>
        <pt x="256" y="36" on="0"/>
      </contour>
    </TTGlyph>
    <TTGlyph name="F" xMin="96" yMin="0" xMax="566" yMax="670">
      <contour>
        <pt x="147" y="624" on="1"/>
        <pt x="147" y="356" on="1"/>
        <pt x="534" y="356" on="1"/>
        <pt x="534" y="310" on="1"/>
        <pt x="147" y="310" on="1"/>
        <pt x="147" y="0" on="1"/>
        <pt x="96" y="0" on="1"/>
        <pt x="96" y="670" on="1"/>
        <pt x="566" y="670" on="1"/>
        <pt x="566" y="624" on="1"/>
      </contour>
    </TTGlyph>
    <TTGlyph name="G" xMin="63" yMin="-11" xMax="742" yMax="681">
      <contour>
        <pt x="368" y="357" on="1"/>
        <pt x="741" y="357" on="1"/>
        <pt x="742" y="349" on="0"/>
        <pt x="742" y="335" on="1"/>
        <pt x="742" y="188" on="0"/>
        <pt x="555" y="-11" on="0"/>
        <pt x="408" y="-11" on="1"/>
        <pt x="263" y="-11" on="0"/>
        <pt x="63" y="189" on="0"/>
        <pt x="63" y="481" on="0"/>
        <pt x="262" y="681" on="0"/>
        <pt x="407" y="681" on="1"/>
        <pt x="517" y="681" on="0"/>
        <pt x="683" y="580" on="0"/>
        <pt x="719" y="492" on="1"/>
        <pt x="674" y="475" on="1"/>
        <pt x="640" y="550" on="0"/>
        <pt x="500" y="634" on="0"/>
        <pt x="407" y="634" on="1"/>
        <pt x="283" y="634" on="0"/>
        <pt x="114" y="461" on="0"/>
        <pt x="114" y="209" on="0"/>
        <pt x="285" y="36" on="0"/>
        <pt x="409" y="36" on="1"/>
        <pt x="529" y="36" on="0"/>
        <pt x="685" y="193" on="0"/>
        <pt x="693" y="311" on="1"/>
        <pt x="368" y="311" on="1"/>
      </contour>
    </TTGlyph>
    <TTGlyph name="Gbreve" xMin="63" yMin="-11" xMax="742" yMax="865">
      <contour>
        <pt x="468" y="739" on="0"/>
        <pt x="350" y="739" on="0"/>
        <pt x="275" y="808" on="0"/>
        <pt x="275" y="865" on="1"/>
        <pt x="317" y="865" on="1"/>
        <pt x="317" y="825" on="0"/>
        <pt x="370" y="775" on="0"/>
        <pt x="409" y="775" on="1"/>
        <pt x="449" y="775" on="0"/>
        <pt x="502" y="825" on="0"/>
        <pt x="502" y="865" on="1"/>
        <pt x="543" y="865" on="1"/>
        <pt x="543" y="808" on="0"/>
      </contour>
      <contour>
        <pt x="368" y="357" on="1"/>
        <pt x="741" y="357" on="1"/>
        <pt x="742" y="349" on="0"/>
        <pt x="742" y="335" on="1"/>
        <pt x="742" y="188" on="0"/>
        <pt x="555" y="-11" on="0"/>
        <pt x="408" y="-11" on="1"/>
        <pt x="263" y="-11" on="0"/>
        <pt x="63" y="189" on="0"/>
        <pt x="63" y="481" on="0"/>
        <pt x="262" y="681" on="0"/>
        <pt x="407" y="681" on="1"/>
        <pt x="517" y="681" on="0"/>
        <pt x="683" y="580" on="0"/>
        <pt x="719" y="492" on="1"/>
        <pt x="674" y="475" on="1"/>
        <pt x="640" y="550" on="0"/>
        <pt x="500" y="634" on="0"/>
        <pt x="407" y="634" on="1"/>
        <pt x="283" y="634" on="0"/>
        <pt x="114" y="461" on="0"/>
        <pt x="114" y="209" on="0"/>
        <pt x="285" y="36" on="0"/>
        <pt x="409" y="36" on="1"/>
        <pt x="529" y="36" on="0"/>
        <pt x="685" y="193" on="0"/>
        <pt x="693" y="311" on="1"/>
        <pt x="368" y="311" on="1"/>
      </contour>
    </TTGlyph>
    <TTGlyph name="Gcommaaccent" xMin="63" yMin="-184" xMax="742" yMax="681">
      <contour>
        <pt x="368" y="357" on="1"/>
        <pt x="741" y="357" on="1"/>
        <pt x="742" y="349" on="0"/>
        <pt x="742" y="335" on="1"/>
        <pt x="742" y="188" on="0"/>
        <pt x="555" y="-11" on="0"/>
        <pt x="408" y="-11" on="1"/>
        <pt x="263" y="-11" on="0"/>
        <pt x="63" y="189" on="0"/>
        <pt x="63" y="481" on="0"/>
        <pt x="262" y="681" on="0"/>
        <pt x="407" y="681" on="1"/>
        <pt x="517" y="681" on="0"/>
        <pt x="683" y="580" on="0"/>
        <pt x="719" y="492" on="1"/>
        <pt x="674" y="475" on="1"/>
        <pt x="640" y="550" on="0"/>
        <pt x="500" y="634" on="0"/>
        <pt x="407" y="634" on="1"/>
        <pt x="283" y="634" on="0"/>
        <pt x="114" y="461" on="0"/>
        <pt x="114" y="209" on="0"/>
        <pt x="285" y="36" on="0"/>
        <pt x="409" y="36" on="1"/>
        <pt x="529" y="36" on="0"/>
        <pt x="685" y="193" on="0"/>
        <pt x="693" y="311" on="1"/>
        <pt x="368" y="311" on="1"/>
      </contour>
      <contour>
        <pt x="370" y="-45" on="1"/>
        <pt x="423" y="-45" on="1"/>
        <pt x="364" y="-184" on="1"/>
        <pt x="325" y="-184" on="1"/>
      </contour>
    </TTGlyph>
    <TTGlyph name="Gdotaccent" xMin="63" yMin="-11" xMax="742" yMax="846">
      <contour>
        <pt x="426" y="772" on="0"/>
        <pt x="392" y="772" on="0"/>
        <pt x="371" y="793" on="0"/>
        <pt x="371" y="809" on="1"/>
        <pt x="371" y="824" on="0"/>
        <pt x="393" y="846" on="0"/>
        <pt x="425" y="846" on="0"/>
        <pt x="447" y="824" on="0"/>
        <pt x="447" y="809" on="1"/>
        <pt x="447" y="793" on="0"/>
      </contour>
      <contour>
        <pt x="368" y="357" on="1"/>
        <pt x="741" y="357" on="1"/>
        <pt x="742" y="349" on="0"/>
        <pt x="742" y="335" on="1"/>
        <pt x="742" y="188" on="0"/>
        <pt x="555" y="-11" on="0"/>
        <pt x="408" y="-11" on="1"/>
        <pt x="263" y="-11" on="0"/>
        <pt x="63" y="189" on="0"/>
        <pt x="63" y="481" on="0"/>
        <pt x="262" y="681" on="0"/>
        <pt x="407" y="681" on="1"/>
        <pt x="517" y="681" on="0"/>
        <pt x="683" y="580" on="0"/>
        <pt x="719" y="492" on="1"/>
        <pt x="674" y="475" on="1"/>
        <pt x="640" y="550" on="0"/>
        <pt x="500" y="634" on="0"/>
        <pt x="407" y="634" on="1"/>
        <pt x="283" y="634" on="0"/>
        <pt x="114" y="461" on="0"/>
        <pt x="114" y="209" on="0"/>
        <pt x="285" y="36" on="0"/>
        <pt x="409" y="36" on="1"/>
        <pt x="529" y="36" on="0"/>
        <pt x="685" y="193" on="0"/>
        <pt x="693" y="311" on="1"/>
        <pt x="368" y="311" on="1"/>
      </contour>
    </TTGlyph>
    <TTGlyph name="H" xMin="96" yMin="0" xMax="641" yMax="670">
      <contour>
        <pt x="641" y="670" on="1"/>
        <pt x="641" y="0" on="1"/>
        <pt x="591" y="0" on="1"/>
        <pt x="591" y="315" on="1"/>
        <pt x="147" y="315" on="1"/>
        <pt x="147" y="0" on="1"/>
        <pt x="96" y="0" on="1"/>
        <pt x="96" y="670" on="1"/>
        <pt x="147" y="670" on="1"/>
        <pt x="147" y="361" on="1"/>
        <pt x="591" y="361" on="1"/>
        <pt x="591" y="670" on="1"/>
      </contour>
    </TTGlyph>
    <TTGlyph name="Hbar" xMin="30" yMin="0" xMax="719" yMax="670">
      <contour>
        <pt x="719" y="476" on="1"/>
        <pt x="646" y="476" on="1"/>
        <pt x="646" y="0" on="1"/>
        <pt x="596" y="0" on="1"/>
        <pt x="596" y="305" on="1"/>
        <pt x="154" y="305" on="1"/>
        <pt x="154" y="0" on="1"/>
        <pt x="103" y="0" on="1"/>
        <pt x="103" y="476" on="1"/>
        <pt x="30" y="476" on="1"/>
        <pt x="30" y="519" on="1"/>
        <pt x="103" y="519" on="1"/>
        <pt x="103" y="670" on="1"/>
        <pt x="154" y="670" on="1"/>
        <pt x="154" y="519" on="1"/>
        <pt x="596" y="519" on="1"/>
        <pt x="596" y="670" on="1"/>
        <pt x="646" y="670" on="1"/>
        <pt x="646" y="519" on="1"/>
        <pt x="719" y="519" on="1"/>
      </contour>
      <contour>
        <pt x="596" y="476" on="1"/>
        <pt x="154" y="476" on="1"/>
        <pt x="154" y="351" on="1"/>
        <pt x="596" y="351" on="1"/>
      </contour>
    </TTGlyph>
    <TTGlyph name="I" xMin="96" yMin="0" xMax="147" yMax="670">
      <contour>
        <pt x="147" y="0" on="1"/>
        <pt x="96" y="0" on="1"/>
        <pt x="96" y="670" on="1"/>
        <pt x="147" y="670" on="1"/>
      </contour>
    </TTGlyph>
    <TTGlyph name="I.ss05" xMin="28" yMin="0" xMax="403" yMax="670">
      <contour>
        <pt x="241" y="624" on="1"/>
        <pt x="241" y="46" on="1"/>
        <pt x="403" y="46" on="1"/>
        <pt x="403" y="0" on="1"/>
        <pt x="28" y="0" on="1"/>
        <pt x="28" y="46" on="1"/>
        <pt x="190" y="46" on="1"/>
        <pt x="190" y="624" on="1"/>
        <pt x="28" y="624" on="1"/>
        <pt x="28" y="670" on="1"/>
        <pt x="403" y="670" on="1"/>
        <pt x="403" y="624" on="1"/>
      </contour>
    </TTGlyph>
    <TTGlyph name="IJ" xMin="96" yMin="-11" xMax="750" yMax="670">
      <contour>
        <pt x="96" y="670" on="1"/>
        <pt x="147" y="670" on="1"/>
        <pt x="147" y="0" on="1"/>
        <pt x="96" y="0" on="1"/>
      </contour>
      <contour>
        <pt x="750" y="670" on="1"/>
        <pt x="750" y="247" on="1"/>
        <pt x="750" y="132" on="0"/>
        <pt x="617" y="-11" on="0"/>
        <pt x="509" y="-11" on="1"/>
        <pt x="412" y="-11" on="0"/>
        <pt x="283" y="107" on="0"/>
        <pt x="271" y="203" on="1"/>
        <pt x="319" y="214" on="1"/>
        <pt x="329" y="133" on="0"/>
        <pt x="430" y="35" on="0"/>
        <pt x="509" y="35" on="1"/>
        <pt x="595" y="35" on="0"/>
        <pt x="700" y="153" on="0"/>
        <pt x="700" y="247" on="1"/>
        <pt x="700" y="670" on="1"/>
      </contour>
    </TTGlyph>
    <TTGlyph name="IJ.ss05" xMin="28" yMin="-11" xMax="938" yMax="670">
      <contour>
        <pt x="403" y="670" on="1"/>
        <pt x="403" y="624" on="1"/>
        <pt x="241" y="624" on="1"/>
        <pt x="241" y="46" on="1"/>
        <pt x="403" y="46" on="1"/>
        <pt x="403" y="0" on="1"/>
        <pt x="28" y="0" on="1"/>
        <pt x="28" y="46" on="1"/>
        <pt x="190" y="46" on="1"/>
        <pt x="190" y="624" on="1"/>
        <pt x="28" y="624" on="1"/>
        <pt x="28" y="670" on="1"/>
      </contour>
      <contour>
        <pt x="938" y="670" on="1"/>
        <pt x="938" y="247" on="1"/>
        <pt x="938" y="132" on="0"/>
        <pt x="805" y="-11" on="0"/>
        <pt x="697" y="-11" on="1"/>
        <pt x="600" y="-11" on="0"/>
        <pt x="471" y="107" on="0"/>
        <pt x="459" y="203" on="1"/>
        <pt x="507" y="214" on="1"/>
        <pt x="517" y="133" on="0"/>
        <pt x="618" y="35" on="0"/>
        <pt x="697" y="35" on="1"/>
        <pt x="783" y="35" on="0"/>
        <pt x="888" y="153" on="0"/>
        <pt x="888" y="247" on="1"/>
        <pt x="888" y="624" on="1"/>
        <pt x="615" y="624" on="1"/>
        <pt x="615" y="670" on="1"/>
      </contour>
    </TTGlyph>
    <TTGlyph name="Iacute" xMin="96" yMin="0" xMax="247" yMax="886">
      <contour>
        <pt x="149" y="748" on="1"/>
        <pt x="105" y="748" on="1"/>
        <pt x="191" y="886" on="1"/>
        <pt x="247" y="886" on="1"/>
      </contour>
      <contour>
        <pt x="147" y="0" on="1"/>
        <pt x="96" y="0" on="1"/>
        <pt x="96" y="670" on="1"/>
        <pt x="147" y="670" on="1"/>
      </contour>
    </TTGlyph>
    <TTGlyph name="Iacute.ss05" xMin="28" yMin="0" xMax="403" yMax="886">
      <contour>
        <pt x="243" y="748" on="1"/>
        <pt x="199" y="748" on="1"/>
        <pt x="285" y="886" on="1"/>
        <pt x="341" y="886" on="1"/>
      </contour>
      <contour>
        <pt x="241" y="624" on="1"/>
        <pt x="241" y="46" on="1"/>
        <pt x="403" y="46" on="1"/>
        <pt x="403" y="0" on="1"/>
        <pt x="28" y="0" on="1"/>
        <pt x="28" y="46" on="1"/>
        <pt x="190" y="46" on="1"/>
        <pt x="190" y="624" on="1"/>
        <pt x="28" y="624" on="1"/>
        <pt x="28" y="670" on="1"/>
        <pt x="403" y="670" on="1"/>
        <pt x="403" y="624" on="1"/>
      </contour>
    </TTGlyph>
    <TTGlyph name="Icircumflex" xMin="-20" yMin="0" xMax="263" yMax="879">
      <contour>
        <pt x="263" y="741" on="1"/>
        <pt x="211" y="741" on="1"/>
        <pt x="121" y="846" on="1"/>
        <pt x="31" y="741" on="1"/>
        <pt x="-20" y="741" on="1"/>
        <pt x="98" y="879" on="1"/>
        <pt x="144" y="879" on="1"/>
      </contour>
      <contour>
        <pt x="96" y="670" on="1"/>
        <pt x="147" y="670" on="1"/>
        <pt x="147" y="0" on="1"/>
        <pt x="96" y="0" on="1"/>
      </contour>
    </TTGlyph>
    <TTGlyph name="Icircumflex.ss05" xMin="28" yMin="0" xMax="403" yMax="879">
      <contour>
        <pt x="125" y="741" on="1"/>
        <pt x="74" y="741" on="1"/>
        <pt x="192" y="879" on="1"/>
        <pt x="238" y="879" on="1"/>
        <pt x="357" y="741" on="1"/>
        <pt x="305" y="741" on="1"/>
        <pt x="215" y="846" on="1"/>
      </contour>
      <contour>
        <pt x="241" y="624" on="1"/>
        <pt x="241" y="46" on="1"/>
        <pt x="403" y="46" on="1"/>
        <pt x="403" y="0" on="1"/>
        <pt x="28" y="0" on="1"/>
        <pt x="28" y="46" on="1"/>
        <pt x="190" y="46" on="1"/>
        <pt x="190" y="624" on="1"/>
        <pt x="28" y="624" on="1"/>
        <pt x="28" y="670" on="1"/>
        <pt x="403" y="670" on="1"/>
        <pt x="403" y="624" on="1"/>
      </contour>
    </TTGlyph>
    <TTGlyph name="Idieresis" xMin="-12" yMin="0" xMax="254" yMax="841">
      <contour>
        <pt x="11" y="841" on="0"/>
        <pt x="43" y="841" on="0"/>
        <pt x="65" y="818" on="0"/>
        <pt x="65" y="803" on="1"/>
        <pt x="65" y="787" on="0"/>
        <pt x="44" y="766" on="0"/>
        <pt x="10" y="766" on="0"/>
        <pt x="-12" y="787" on="0"/>
        <pt x="-12" y="803" on="1"/>
        <pt x="-12" y="818" on="0"/>
      </contour>
      <contour>
        <pt x="200" y="841" on="0"/>
        <pt x="232" y="841" on="0"/>
        <pt x="254" y="818" on="0"/>
        <pt x="254" y="803" on="1"/>
        <pt x="254" y="787" on="0"/>
        <pt x="233" y="766" on="0"/>
        <pt x="199" y="766" on="0"/>
        <pt x="177" y="787" on="0"/>
        <pt x="177" y="803" on="1"/>
        <pt x="177" y="818" on="0"/>
      </contour>
      <contour>
        <pt x="147" y="0" on="1"/>
        <pt x="96" y="0" on="1"/>
        <pt x="96" y="670" on="1"/>
        <pt x="147" y="670" on="1"/>
      </contour>
    </TTGlyph>
    <TTGlyph name="Idieresis.ss05" xMin="28" yMin="0" xMax="403" yMax="841">
      <contour>
        <pt x="138" y="766" on="0"/>
        <pt x="104" y="766" on="0"/>
        <pt x="82" y="787" on="0"/>
        <pt x="82" y="803" on="1"/>
        <pt x="82" y="818" on="0"/>
        <pt x="105" y="841" on="0"/>
        <pt x="137" y="841" on="0"/>
        <pt x="159" y="818" on="0"/>
        <pt x="159" y="803" on="1"/>
        <pt x="159" y="787" on="0"/>
      </contour>
      <contour>
        <pt x="327" y="766" on="0"/>
        <pt x="293" y="766" on="0"/>
        <pt x="271" y="787" on="0"/>
        <pt x="271" y="803" on="1"/>
        <pt x="271" y="818" on="0"/>
        <pt x="294" y="841" on="0"/>
        <pt x="326" y="841" on="0"/>
        <pt x="348" y="818" on="0"/>
        <pt x="348" y="803" on="1"/>
        <pt x="348" y="787" on="0"/>
      </contour>
      <contour>
        <pt x="241" y="624" on="1"/>
        <pt x="241" y="46" on="1"/>
        <pt x="403" y="46" on="1"/>
        <pt x="403" y="0" on="1"/>
        <pt x="28" y="0" on="1"/>
        <pt x="28" y="46" on="1"/>
        <pt x="190" y="46" on="1"/>
        <pt x="190" y="624" on="1"/>
        <pt x="28" y="624" on="1"/>
        <pt x="28" y="670" on="1"/>
        <pt x="403" y="670" on="1"/>
        <pt x="403" y="624" on="1"/>
      </contour>
    </TTGlyph>
    <TTGlyph name="Idotaccent" xMin="83" yMin="0" xMax="159" yMax="846">
      <contour>
        <pt x="105" y="846" on="0"/>
        <pt x="137" y="846" on="0"/>
        <pt x="159" y="824" on="0"/>
        <pt x="159" y="809" on="1"/>
        <pt x="159" y="793" on="0"/>
        <pt x="138" y="772" on="0"/>
        <pt x="104" y="772" on="0"/>
        <pt x="83" y="793" on="0"/>
        <pt x="83" y="809" on="1"/>
        <pt x="83" y="824" on="0"/>
      </contour>
      <contour>
        <pt x="147" y="0" on="1"/>
        <pt x="96" y="0" on="1"/>
        <pt x="96" y="670" on="1"/>
        <pt x="147" y="670" on="1"/>
      </contour>
    </TTGlyph>
    <TTGlyph name="Idotaccent.ss05" xMin="28" yMin="0" xMax="403" yMax="846">
      <contour>
        <pt x="232" y="772" on="0"/>
        <pt x="198" y="772" on="0"/>
        <pt x="177" y="793" on="0"/>
        <pt x="177" y="809" on="1"/>
        <pt x="177" y="824" on="0"/>
        <pt x="199" y="846" on="0"/>
        <pt x="231" y="846" on="0"/>
        <pt x="253" y="824" on="0"/>
        <pt x="253" y="809" on="1"/>
        <pt x="253" y="793" on="0"/>
      </contour>
      <contour>
        <pt x="241" y="624" on="1"/>
        <pt x="241" y="46" on="1"/>
        <pt x="403" y="46" on="1"/>
        <pt x="403" y="0" on="1"/>
        <pt x="28" y="0" on="1"/>
        <pt x="28" y="46" on="1"/>
        <pt x="190" y="46" on="1"/>
        <pt x="190" y="624" on="1"/>
        <pt x="28" y="624" on="1"/>
        <pt x="28" y="670" on="1"/>
        <pt x="403" y="670" on="1"/>
        <pt x="403" y="624" on="1"/>
      </contour>
    </TTGlyph>
    <TTGlyph name="Igrave" xMin="0" yMin="0" xMax="147" yMax="886">
      <contour>
        <pt x="56" y="886" on="1"/>
        <pt x="142" y="748" on="1"/>
        <pt x="98" y="748" on="1"/>
        <pt x="0" y="886" on="1"/>
      </contour>
      <contour>
        <pt x="147" y="0" on="1"/>
        <pt x="96" y="0" on="1"/>
        <pt x="96" y="670" on="1"/>
        <pt x="147" y="670" on="1"/>
      </contour>
    </TTGlyph>
    <TTGlyph name="Igrave.ss05" xMin="28" yMin="0" xMax="403" yMax="886">
      <contour>
        <pt x="192" y="748" on="1"/>
        <pt x="94" y="886" on="1"/>
        <pt x="150" y="886" on="1"/>
        <pt x="236" y="748" on="1"/>
      </contour>
      <contour>
        <pt x="241" y="624" on="1"/>
        <pt x="241" y="46" on="1"/>
        <pt x="403" y="46" on="1"/>
        <pt x="403" y="0" on="1"/>
        <pt x="28" y="0" on="1"/>
        <pt x="28" y="46" on="1"/>
        <pt x="190" y="46" on="1"/>
        <pt x="190" y="624" on="1"/>
        <pt x="28" y="624" on="1"/>
        <pt x="28" y="670" on="1"/>
        <pt x="403" y="670" on="1"/>
        <pt x="403" y="624" on="1"/>
      </contour>
    </TTGlyph>
    <TTGlyph name="Imacron" xMin="-13" yMin="0" xMax="255" yMax="810">
      <contour>
        <pt x="255" y="770" on="1"/>
        <pt x="-13" y="770" on="1"/>
        <pt x="-13" y="810" on="1"/>
        <pt x="255" y="810" on="1"/>
      </contour>
      <contour>
        <pt x="147" y="0" on="1"/>
        <pt x="96" y="0" on="1"/>
        <pt x="96" y="670" on="1"/>
        <pt x="147" y="670" on="1"/>
      </contour>
    </TTGlyph>
    <TTGlyph name="Imacron.ss05" xMin="28" yMin="0" xMax="403" yMax="810">
      <contour>
        <pt x="349" y="770" on="1"/>
        <pt x="82" y="770" on="1"/>
        <pt x="82" y="810" on="1"/>
        <pt x="349" y="810" on="1"/>
      </contour>
      <contour>
        <pt x="241" y="624" on="1"/>
        <pt x="241" y="46" on="1"/>
        <pt x="403" y="46" on="1"/>
        <pt x="403" y="0" on="1"/>
        <pt x="28" y="0" on="1"/>
        <pt x="28" y="46" on="1"/>
        <pt x="190" y="46" on="1"/>
        <pt x="190" y="624" on="1"/>
        <pt x="28" y="624" on="1"/>
        <pt x="28" y="670" on="1"/>
        <pt x="403" y="670" on="1"/>
        <pt x="403" y="624" on="1"/>
      </contour>
    </TTGlyph>
    <TTGlyph name="Iogonek" xMin="36" yMin="-195" xMax="176" yMax="670">
      <contour>
        <pt x="170" y="-147" on="1"/>
        <pt x="176" y="-182" on="1"/>
        <pt x="138" y="-195" on="0"/>
        <pt x="117" y="-195" on="1"/>
        <pt x="85" y="-195" on="0"/>
        <pt x="36" y="-158" on="0"/>
        <pt x="36" y="-116" on="1"/>
        <pt x="36" y="-87" on="0"/>
        <pt x="67" y="-38" on="0"/>
        <pt x="106" y="0" on="1"/>
        <pt x="96" y="0" on="1"/>
        <pt x="96" y="670" on="1"/>
        <pt x="147" y="670" on="1"/>
        <pt x="147" y="0" on="1"/>
        <pt x="105" y="-42" on="0"/>
        <pt x="76" y="-84" on="0"/>
        <pt x="76" y="-109" on="1"/>
        <pt x="76" y="-158" on="0"/>
        <pt x="124" y="-158" on="1"/>
        <pt x="139" y="-158" on="0"/>
      </contour>
    </TTGlyph>
    <TTGlyph name="Iogonek.ss05" xMin="28" yMin="-195" xMax="403" yMax="670">
      <contour>
        <pt x="241" y="624" on="1"/>
        <pt x="241" y="46" on="1"/>
        <pt x="403" y="46" on="1"/>
        <pt x="403" y="0" on="1"/>
        <pt x="240" y="0" on="1"/>
        <pt x="198" y="-42" on="0"/>
        <pt x="169" y="-84" on="0"/>
        <pt x="169" y="-109" on="1"/>
        <pt x="169" y="-158" on="0"/>
        <pt x="217" y="-158" on="1"/>
        <pt x="232" y="-158" on="0"/>
        <pt x="263" y="-147" on="1"/>
        <pt x="269" y="-182" on="1"/>
        <pt x="231" y="-195" on="0"/>
        <pt x="210" y="-195" on="1"/>
        <pt x="178" y="-195" on="0"/>
        <pt x="129" y="-158" on="0"/>
        <pt x="129" y="-116" on="1"/>
        <pt x="129" y="-87" on="0"/>
        <pt x="160" y="-38" on="0"/>
        <pt x="199" y="0" on="1"/>
        <pt x="28" y="0" on="1"/>
        <pt x="28" y="46" on="1"/>
        <pt x="190" y="46" on="1"/>
        <pt x="190" y="624" on="1"/>
        <pt x="28" y="624" on="1"/>
        <pt x="28" y="670" on="1"/>
        <pt x="403" y="670" on="1"/>
        <pt x="403" y="624" on="1"/>
      </contour>
    </TTGlyph>
    <TTGlyph name="J" xMin="28" yMin="-11" xMax="507" yMax="670">
      <contour>
        <pt x="507" y="670" on="1"/>
        <pt x="507" y="247" on="1"/>
        <pt x="507" y="132" on="0"/>
        <pt x="374" y="-11" on="0"/>
        <pt x="266" y="-11" on="1"/>
        <pt x="169" y="-11" on="0"/>
        <pt x="40" y="107" on="0"/>
        <pt x="28" y="203" on="1"/>
        <pt x="76" y="214" on="1"/>
        <pt x="86" y="133" on="0"/>
        <pt x="187" y="35" on="0"/>
        <pt x="266" y="35" on="1"/>
        <pt x="352" y="35" on="0"/>
        <pt x="457" y="153" on="0"/>
        <pt x="457" y="247" on="1"/>
        <pt x="457" y="670" on="1"/>
      </contour>
    </TTGlyph>
    <TTGlyph name="J.ss05" xMin="28" yMin="-11" xMax="507" yMax="670">
      <contour>
        <pt x="507" y="670" on="1"/>
        <pt x="507" y="247" on="1"/>
        <pt x="507" y="132" on="0"/>
        <pt x="374" y="-11" on="0"/>
        <pt x="266" y="-11" on="1"/>
        <pt x="169" y="-11" on="0"/>
        <pt x="40" y="107" on="0"/>
        <pt x="28" y="203" on="1"/>
        <pt x="76" y="214" on="1"/>
        <pt x="86" y="133" on="0"/>
        <pt x="187" y="35" on="0"/>
        <pt x="266" y="35" on="1"/>
        <pt x="352" y="35" on="0"/>
        <pt x="457" y="153" on="0"/>
        <pt x="457" y="247" on="1"/>
        <pt x="457" y="624" on="1"/>
        <pt x="184" y="624" on="1"/>
        <pt x="184" y="670" on="1"/>
      </contour>
    </TTGlyph>
    <TTGlyph name="K" xMin="96" yMin="0" xMax="633" yMax="670">
      <contour>
        <pt x="633" y="0" on="1"/>
        <pt x="563" y="0" on="1"/>
        <pt x="182" y="311" on="1"/>
        <pt x="147" y="311" on="1"/>
        <pt x="147" y="0" on="1"/>
        <pt x="96" y="0" on="1"/>
        <pt x="96" y="670" on="1"/>
        <pt x="147" y="670" on="1"/>
        <pt x="147" y="357" on="1"/>
        <pt x="179" y="357" on="1"/>
        <pt x="545" y="670" on="1"/>
        <pt x="610" y="670" on="1"/>
        <pt x="221" y="334" on="1"/>
      </contour>
    </TTGlyph>
    <TTGlyph name="K.ss03" xMin="96" yMin="0" xMax="678" yMax="670">
      <contour>
        <pt x="678" y="0" on="1"/>
        <pt x="613" y="0" on="1"/>
        <pt x="324" y="347" on="1"/>
        <pt x="147" y="164" on="1"/>
        <pt x="147" y="0" on="1"/>
        <pt x="96" y="0" on="1"/>
        <pt x="96" y="670" on="1"/>
        <pt x="147" y="670" on="1"/>
        <pt x="147" y="226" on="1"/>
        <pt x="575" y="670" on="1"/>
        <pt x="635" y="670" on="1"/>
        <pt x="357" y="382" on="1"/>
      </contour>
    </TTGlyph>
    <TTGlyph name="Kcommaaccent" xMin="96" yMin="-184" xMax="633" yMax="670">
      <contour>
        <pt x="633" y="0" on="1"/>
        <pt x="563" y="0" on="1"/>
        <pt x="182" y="311" on="1"/>
        <pt x="147" y="311" on="1"/>
        <pt x="147" y="0" on="1"/>
        <pt x="96" y="0" on="1"/>
        <pt x="96" y="670" on="1"/>
        <pt x="147" y="670" on="1"/>
        <pt x="147" y="357" on="1"/>
        <pt x="179" y="357" on="1"/>
        <pt x="545" y="670" on="1"/>
        <pt x="610" y="670" on="1"/>
        <pt x="221" y="334" on="1"/>
      </contour>
      <contour>
        <pt x="298" y="-45" on="1"/>
        <pt x="351" y="-45" on="1"/>
        <pt x="292" y="-184" on="1"/>
        <pt x="253" y="-184" on="1"/>
      </contour>
    </TTGlyph>
    <TTGlyph name="Kcommaaccent.ss03" xMin="96" yMin="-184" xMax="678" yMax="670">
      <contour>
        <pt x="678" y="0" on="1"/>
        <pt x="613" y="0" on="1"/>
        <pt x="324" y="347" on="1"/>
        <pt x="147" y="164" on="1"/>
        <pt x="147" y="0" on="1"/>
        <pt x="96" y="0" on="1"/>
        <pt x="96" y="670" on="1"/>
        <pt x="147" y="670" on="1"/>
        <pt x="147" y="226" on="1"/>
        <pt x="575" y="670" on="1"/>
        <pt x="635" y="670" on="1"/>
        <pt x="357" y="382" on="1"/>
      </contour>
      <contour>
        <pt x="332" y="-45" on="1"/>
        <pt x="385" y="-45" on="1"/>
        <pt x="326" y="-184" on="1"/>
        <pt x="287" y="-184" on="1"/>
      </contour>
    </TTGlyph>
    <TTGlyph name="L" xMin="96" yMin="0" xMax="551" yMax="670">
      <contour>
        <pt x="551" y="46" on="1"/>
        <pt x="551" y="0" on="1"/>
        <pt x="96" y="0" on="1"/>
        <pt x="96" y="670" on="1"/>
        <pt x="147" y="670" on="1"/>
        <pt x="147" y="46" on="1"/>
      </contour>
    </TTGlyph>
    <TTGlyph name="Lacute" xMin="96" yMin="0" xMax="551" yMax="886">
      <contour>
        <pt x="149" y="748" on="1"/>
        <pt x="105" y="748" on="1"/>
        <pt x="191" y="886" on="1"/>
        <pt x="247" y="886" on="1"/>
      </contour>
      <contour>
        <pt x="551" y="46" on="1"/>
        <pt x="551" y="0" on="1"/>
        <pt x="96" y="0" on="1"/>
        <pt x="96" y="670" on="1"/>
        <pt x="147" y="670" on="1"/>
        <pt x="147" y="46" on="1"/>
      </contour>
    </TTGlyph>
    <TTGlyph name="Lcaron" xMin="96" yMin="0" xMax="551" yMax="670">
      <contour>
        <pt x="551" y="46" on="1"/>
        <pt x="551" y="0" on="1"/>
        <pt x="96" y="0" on="1"/>
        <pt x="96" y="670" on="1"/>
        <pt x="147" y="670" on="1"/>
        <pt x="147" y="46" on="1"/>
      </contour>
      <contour>
        <pt x="352" y="511" on="1"/>
        <pt x="312" y="511" on="1"/>
        <pt x="312" y="670" on="1"/>
        <pt x="362" y="670" on="1"/>
      </contour>
    </TTGlyph>
    <TTGlyph name="Lcommaaccent" xMin="96" yMin="-184" xMax="551" yMax="670">
      <contour>
        <pt x="551" y="46" on="1"/>
        <pt x="551" y="0" on="1"/>
        <pt x="96" y="0" on="1"/>
        <pt x="96" y="670" on="1"/>
        <pt x="147" y="670" on="1"/>
        <pt x="147" y="46" on="1"/>
      </contour>
      <contour>
        <pt x="308" y="-45" on="1"/>
        <pt x="361" y="-45" on="1"/>
        <pt x="302" y="-184" on="1"/>
        <pt x="263" y="-184" on="1"/>
      </contour>
    </TTGlyph>
    <TTGlyph name="Ldot" xMin="96" yMin="0" xMax="551" yMax="670">
      <contour>
        <pt x="551" y="46" on="1"/>
        <pt x="551" y="0" on="1"/>
        <pt x="96" y="0" on="1"/>
        <pt x="96" y="670" on="1"/>
        <pt x="147" y="670" on="1"/>
        <pt x="147" y="46" on="1"/>
      </contour>
      <contour>
        <pt x="394" y="302" on="0"/>
        <pt x="362" y="302" on="0"/>
        <pt x="340" y="323" on="0"/>
        <pt x="340" y="339" on="1"/>
        <pt x="340" y="354" on="0"/>
        <pt x="362" y="376" on="0"/>
        <pt x="394" y="376" on="0"/>
        <pt x="416" y="354" on="0"/>
        <pt x="416" y="339" on="1"/>
        <pt x="416" y="323" on="0"/>
      </contour>
    </TTGlyph>
    <TTGlyph name="Lslash" xMin="30" yMin="0" xMax="563" yMax="670">
      <contour>
        <pt x="563" y="46" on="1"/>
        <pt x="563" y="0" on="1"/>
        <pt x="109" y="0" on="1"/>
        <pt x="109" y="266" on="1"/>
        <pt x="30" y="227" on="1"/>
        <pt x="30" y="276" on="1"/>
        <pt x="109" y="315" on="1"/>
        <pt x="109" y="670" on="1"/>
        <pt x="159" y="670" on="1"/>
        <pt x="159" y="339" on="1"/>
        <pt x="335" y="426" on="1"/>
        <pt x="335" y="377" on="1"/>
        <pt x="159" y="290" on="1"/>
        <pt x="159" y="46" on="1"/>
      </contour>
    </TTGlyph>
    <TTGlyph name="M" xMin="96" yMin="0" xMax="807" yMax="670">
      <contour>
        <pt x="807" y="670" on="1"/>
        <pt x="807" y="0" on="1"/>
        <pt x="758" y="0" on="1"/>
        <pt x="758" y="560" on="1"/>
        <pt x="467" y="0" on="1"/>
        <pt x="436" y="0" on="1"/>
        <pt x="145" y="560" on="1"/>
        <pt x="145" y="0" on="1"/>
        <pt x="96" y="0" on="1"/>
        <pt x="96" y="670" on="1"/>
        <pt x="141" y="670" on="1"/>
        <pt x="452" y="74" on="1"/>
        <pt x="763" y="670" on="1"/>
      </contour>
    </TTGlyph>
    <TTGlyph name="N" xMin="96" yMin="0" xMax="663" yMax="670">
      <contour>
        <pt x="663" y="670" on="1"/>
        <pt x="663" y="0" on="1"/>
        <pt x="618" y="0" on="1"/>
        <pt x="147" y="583" on="1"/>
        <pt x="147" y="0" on="1"/>
        <pt x="96" y="0" on="1"/>
        <pt x="96" y="670" on="1"/>
        <pt x="141" y="670" on="1"/>
        <pt x="613" y="83" on="1"/>
        <pt x="613" y="670" on="1"/>
      </contour>
    </TTGlyph>
    <TTGlyph name="Nacute" xMin="96" yMin="0" xMax="663" yMax="886">
      <contour>
        <pt x="417" y="748" on="1"/>
        <pt x="373" y="748" on="1"/>
        <pt x="459" y="886" on="1"/>
        <pt x="515" y="886" on="1"/>
      </contour>
      <contour>
        <pt x="663" y="670" on="1"/>
        <pt x="663" y="0" on="1"/>
        <pt x="618" y="0" on="1"/>
        <pt x="147" y="583" on="1"/>
        <pt x="147" y="0" on="1"/>
        <pt x="96" y="0" on="1"/>
        <pt x="96" y="670" on="1"/>
        <pt x="141" y="670" on="1"/>
        <pt x="613" y="83" on="1"/>
        <pt x="613" y="670" on="1"/>
      </contour>
    </TTGlyph>
    <TTGlyph name="Ncaron" xMin="96" yMin="0" xMax="663" yMax="881">
      <contour>
        <pt x="366" y="742" on="1"/>
        <pt x="248" y="881" on="1"/>
        <pt x="299" y="881" on="1"/>
        <pt x="389" y="775" on="1"/>
        <pt x="479" y="881" on="1"/>
        <pt x="531" y="881" on="1"/>
        <pt x="412" y="742" on="1"/>
      </contour>
      <contour>
        <pt x="663" y="670" on="1"/>
        <pt x="663" y="0" on="1"/>
        <pt x="618" y="0" on="1"/>
        <pt x="147" y="583" on="1"/>
        <pt x="147" y="0" on="1"/>
        <pt x="96" y="0" on="1"/>
        <pt x="96" y="670" on="1"/>
        <pt x="141" y="670" on="1"/>
        <pt x="613" y="83" on="1"/>
        <pt x="613" y="670" on="1"/>
      </contour>
    </TTGlyph>
    <TTGlyph name="Ncommaaccent" xMin="96" yMin="-184" xMax="663" yMax="670">
      <contour>
        <pt x="663" y="670" on="1"/>
        <pt x="663" y="0" on="1"/>
        <pt x="618" y="0" on="1"/>
        <pt x="147" y="583" on="1"/>
        <pt x="147" y="0" on="1"/>
        <pt x="96" y="0" on="1"/>
        <pt x="96" y="670" on="1"/>
        <pt x="141" y="670" on="1"/>
        <pt x="613" y="83" on="1"/>
        <pt x="613" y="670" on="1"/>
      </contour>
      <contour>
        <pt x="372" y="-45" on="1"/>
        <pt x="425" y="-45" on="1"/>
        <pt x="366" y="-184" on="1"/>
        <pt x="327" y="-184" on="1"/>
      </contour>
    </TTGlyph>
    <TTGlyph name="Ntilde" xMin="96" yMin="0" xMax="663" yMax="864">
      <contour>
        <pt x="330" y="826" on="1"/>
        <pt x="310" y="826" on="0"/>
        <pt x="287" y="799" on="0"/>
        <pt x="287" y="776" on="1"/>
        <pt x="250" y="776" on="1"/>
        <pt x="250" y="819" on="0"/>
        <pt x="294" y="864" on="0"/>
        <pt x="327" y="864" on="1"/>
        <pt x="357" y="864" on="0"/>
        <pt x="428" y="811" on="0"/>
        <pt x="450" y="811" on="1"/>
        <pt x="469" y="811" on="0"/>
        <pt x="490" y="839" on="0"/>
        <pt x="490" y="863" on="1"/>
        <pt x="528" y="863" on="1"/>
        <pt x="528" y="819" on="0"/>
        <pt x="485" y="774" on="0"/>
        <pt x="452" y="774" on="1"/>
        <pt x="422" y="774" on="0"/>
        <pt x="351" y="826" on="0"/>
      </contour>
      <contour>
        <pt x="663" y="670" on="1"/>
        <pt x="663" y="0" on="1"/>
        <pt x="618" y="0" on="1"/>
        <pt x="147" y="583" on="1"/>
        <pt x="147" y="0" on="1"/>
        <pt x="96" y="0" on="1"/>
        <pt x="96" y="670" on="1"/>
        <pt x="141" y="670" on="1"/>
        <pt x="613" y="83" on="1"/>
        <pt x="613" y="670" on="1"/>
      </contour>
    </TTGlyph>
    <TTGlyph name="O" xMin="63" yMin="-11" xMax="748" yMax="681">
      <contour>
        <pt x="262" y="681" on="0"/>
        <pt x="550" y="681" on="0"/>
        <pt x="748" y="480" on="0"/>
        <pt x="748" y="335" on="1"/>
        <pt x="748" y="189" on="0"/>
        <pt x="550" y="-11" on="0"/>
        <pt x="406" y="-11" on="1"/>
        <pt x="261" y="-11" on="0"/>
        <pt x="63" y="189" on="0"/>
        <pt x="63" y="335" on="1"/>
        <pt x="63" y="480" on="0"/>
      </contour>
      <contour>
        <pt x="406" y="36" on="1"/>
        <pt x="529" y="36" on="0"/>
        <pt x="698" y="208" on="0"/>
        <pt x="698" y="335" on="1"/>
        <pt x="698" y="461" on="0"/>
        <pt x="529" y="634" on="0"/>
        <pt x="406" y="634" on="1"/>
        <pt x="282" y="634" on="0"/>
        <pt x="113" y="461" on="0"/>
        <pt x="113" y="335" on="1"/>
        <pt x="113" y="208" on="0"/>
        <pt x="282" y="36" on="0"/>
      </contour>
    </TTGlyph>
    <TTGlyph name="OE" xMin="63" yMin="0" xMax="992" yMax="670">
      <contour>
        <pt x="992" y="46" on="1"/>
        <pt x="992" y="0" on="1"/>
        <pt x="465" y="0" on="1"/>
        <pt x="278" y="0" on="0"/>
        <pt x="63" y="186" on="0"/>
        <pt x="63" y="335" on="1"/>
        <pt x="63" y="483" on="0"/>
        <pt x="278" y="670" on="0"/>
        <pt x="465" y="670" on="1"/>
        <pt x="991" y="670" on="1"/>
        <pt x="991" y="624" on="1"/>
        <pt x="562" y="624" on="1"/>
        <pt x="562" y="359" on="1"/>
        <pt x="961" y="359" on="1"/>
        <pt x="961" y="314" on="1"/>
        <pt x="562" y="314" on="1"/>
        <pt x="562" y="46" on="1"/>
      </contour>
      <contour>
        <pt x="512" y="46" on="1"/>
        <pt x="512" y="624" on="1"/>
        <pt x="465" y="624" on="1"/>
        <pt x="299" y="624" on="0"/>
        <pt x="113" y="464" on="0"/>
        <pt x="113" y="206" on="0"/>
        <pt x="299" y="46" on="0"/>
        <pt x="465" y="46" on="1"/>
      </contour>
    </TTGlyph>
    <TTGlyph name="Oacute" xMin="63" yMin="-11" xMax="748" yMax="886">
      <contour>
        <pt x="434" y="748" on="1"/>
        <pt x="390" y="748" on="1"/>
        <pt x="476" y="886" on="1"/>
        <pt x="532" y="886" on="1"/>
      </contour>
      <contour>
        <pt x="262" y="681" on="0"/>
        <pt x="550" y="681" on="0"/>
        <pt x="748" y="480" on="0"/>
        <pt x="748" y="335" on="1"/>
        <pt x="748" y="189" on="0"/>
        <pt x="550" y="-11" on="0"/>
        <pt x="406" y="-11" on="1"/>
        <pt x="261" y="-11" on="0"/>
        <pt x="63" y="189" on="0"/>
        <pt x="63" y="335" on="1"/>
        <pt x="63" y="480" on="0"/>
      </contour>
      <contour>
        <pt x="406" y="36" on="1"/>
        <pt x="529" y="36" on="0"/>
        <pt x="698" y="208" on="0"/>
        <pt x="698" y="335" on="1"/>
        <pt x="698" y="461" on="0"/>
        <pt x="529" y="634" on="0"/>
        <pt x="406" y="634" on="1"/>
        <pt x="282" y="634" on="0"/>
        <pt x="113" y="461" on="0"/>
        <pt x="113" y="335" on="1"/>
        <pt x="113" y="208" on="0"/>
        <pt x="282" y="36" on="0"/>
      </contour>
    </TTGlyph>
    <TTGlyph name="Ocircumflex" xMin="63" yMin="-11" xMax="748" yMax="879">
      <contour>
        <pt x="316" y="741" on="1"/>
        <pt x="265" y="741" on="1"/>
        <pt x="383" y="879" on="1"/>
        <pt x="429" y="879" on="1"/>
        <pt x="548" y="741" on="1"/>
        <pt x="496" y="741" on="1"/>
        <pt x="406" y="846" on="1"/>
      </contour>
      <contour>
        <pt x="262" y="681" on="0"/>
        <pt x="550" y="681" on="0"/>
        <pt x="748" y="480" on="0"/>
        <pt x="748" y="335" on="1"/>
        <pt x="748" y="189" on="0"/>
        <pt x="550" y="-11" on="0"/>
        <pt x="406" y="-11" on="1"/>
        <pt x="261" y="-11" on="0"/>
        <pt x="63" y="189" on="0"/>
        <pt x="63" y="335" on="1"/>
        <pt x="63" y="480" on="0"/>
      </contour>
      <contour>
        <pt x="406" y="36" on="1"/>
        <pt x="529" y="36" on="0"/>
        <pt x="698" y="208" on="0"/>
        <pt x="698" y="335" on="1"/>
        <pt x="698" y="461" on="0"/>
        <pt x="529" y="634" on="0"/>
        <pt x="406" y="634" on="1"/>
        <pt x="282" y="634" on="0"/>
        <pt x="113" y="461" on="0"/>
        <pt x="113" y="335" on="1"/>
        <pt x="113" y="208" on="0"/>
        <pt x="282" y="36" on="0"/>
      </contour>
    </TTGlyph>
    <TTGlyph name="Odieresis" xMin="63" yMin="-11" xMax="748" yMax="841">
      <contour>
        <pt x="329" y="766" on="0"/>
        <pt x="295" y="766" on="0"/>
        <pt x="273" y="787" on="0"/>
        <pt x="273" y="803" on="1"/>
        <pt x="273" y="818" on="0"/>
        <pt x="296" y="841" on="0"/>
        <pt x="328" y="841" on="0"/>
        <pt x="350" y="818" on="0"/>
        <pt x="350" y="803" on="1"/>
        <pt x="350" y="787" on="0"/>
      </contour>
      <contour>
        <pt x="518" y="766" on="0"/>
        <pt x="484" y="766" on="0"/>
        <pt x="462" y="787" on="0"/>
        <pt x="462" y="803" on="1"/>
        <pt x="462" y="818" on="0"/>
        <pt x="485" y="841" on="0"/>
        <pt x="517" y="841" on="0"/>
        <pt x="539" y="818" on="0"/>
        <pt x="539" y="803" on="1"/>
        <pt x="539" y="787" on="0"/>
      </contour>
      <contour>
        <pt x="262" y="681" on="0"/>
        <pt x="550" y="681" on="0"/>
        <pt x="748" y="480" on="0"/>
        <pt x="748" y="335" on="1"/>
        <pt x="748" y="189" on="0"/>
        <pt x="550" y="-11" on="0"/>
        <pt x="406" y="-11" on="1"/>
        <pt x="261" y="-11" on="0"/>
        <pt x="63" y="189" on="0"/>
        <pt x="63" y="335" on="1"/>
        <pt x="63" y="480" on="0"/>
      </contour>
      <contour>
        <pt x="406" y="36" on="1"/>
        <pt x="529" y="36" on="0"/>
        <pt x="698" y="208" on="0"/>
        <pt x="698" y="335" on="1"/>
        <pt x="698" y="461" on="0"/>
        <pt x="529" y="634" on="0"/>
        <pt x="406" y="634" on="1"/>
        <pt x="282" y="634" on="0"/>
        <pt x="113" y="461" on="0"/>
        <pt x="113" y="335" on="1"/>
        <pt x="113" y="208" on="0"/>
        <pt x="282" y="36" on="0"/>
      </contour>
    </TTGlyph>
    <TTGlyph name="Ograve" xMin="63" yMin="-11" xMax="748" yMax="886">
      <contour>
        <pt x="383" y="748" on="1"/>
        <pt x="285" y="886" on="1"/>
        <pt x="341" y="886" on="1"/>
        <pt x="427" y="748" on="1"/>
      </contour>
      <contour>
        <pt x="262" y="681" on="0"/>
        <pt x="550" y="681" on="0"/>
        <pt x="748" y="480" on="0"/>
        <pt x="748" y="335" on="1"/>
        <pt x="748" y="189" on="0"/>
        <pt x="550" y="-11" on="0"/>
        <pt x="406" y="-11" on="1"/>
        <pt x="261" y="-11" on="0"/>
        <pt x="63" y="189" on="0"/>
        <pt x="63" y="335" on="1"/>
        <pt x="63" y="480" on="0"/>
      </contour>
      <contour>
        <pt x="406" y="36" on="1"/>
        <pt x="529" y="36" on="0"/>
        <pt x="698" y="208" on="0"/>
        <pt x="698" y="335" on="1"/>
        <pt x="698" y="461" on="0"/>
        <pt x="529" y="634" on="0"/>
        <pt x="406" y="634" on="1"/>
        <pt x="282" y="634" on="0"/>
        <pt x="113" y="461" on="0"/>
        <pt x="113" y="335" on="1"/>
        <pt x="113" y="208" on="0"/>
        <pt x="282" y="36" on="0"/>
      </contour>
    </TTGlyph>
    <TTGlyph name="Ohungarumlaut" xMin="63" yMin="-11" xMax="748" yMax="885">
      <contour>
        <pt x="356" y="748" on="1"/>
        <pt x="311" y="748" on="1"/>
        <pt x="397" y="885" on="1"/>
        <pt x="458" y="885" on="1"/>
      </contour>
      <contour>
        <pt x="449" y="748" on="1"/>
        <pt x="534" y="885" on="1"/>
        <pt x="595" y="885" on="1"/>
        <pt x="494" y="748" on="1"/>
      </contour>
      <contour>
        <pt x="262" y="681" on="0"/>
        <pt x="550" y="681" on="0"/>
        <pt x="748" y="480" on="0"/>
        <pt x="748" y="335" on="1"/>
        <pt x="748" y="189" on="0"/>
        <pt x="550" y="-11" on="0"/>
        <pt x="406" y="-11" on="1"/>
        <pt x="261" y="-11" on="0"/>
        <pt x="63" y="189" on="0"/>
        <pt x="63" y="335" on="1"/>
        <pt x="63" y="480" on="0"/>
      </contour>
      <contour>
        <pt x="406" y="36" on="1"/>
        <pt x="529" y="36" on="0"/>
        <pt x="698" y="208" on="0"/>
        <pt x="698" y="335" on="1"/>
        <pt x="698" y="461" on="0"/>
        <pt x="529" y="634" on="0"/>
        <pt x="406" y="634" on="1"/>
        <pt x="282" y="634" on="0"/>
        <pt x="113" y="461" on="0"/>
        <pt x="113" y="335" on="1"/>
        <pt x="113" y="208" on="0"/>
        <pt x="282" y="36" on="0"/>
      </contour>
    </TTGlyph>
    <TTGlyph name="Omacron" xMin="63" yMin="-11" xMax="748" yMax="810">
      <contour>
        <pt x="540" y="770" on="1"/>
        <pt x="273" y="770" on="1"/>
        <pt x="273" y="810" on="1"/>
        <pt x="540" y="810" on="1"/>
      </contour>
      <contour>
        <pt x="262" y="681" on="0"/>
        <pt x="550" y="681" on="0"/>
        <pt x="748" y="480" on="0"/>
        <pt x="748" y="335" on="1"/>
        <pt x="748" y="189" on="0"/>
        <pt x="550" y="-11" on="0"/>
        <pt x="406" y="-11" on="1"/>
        <pt x="261" y="-11" on="0"/>
        <pt x="63" y="189" on="0"/>
        <pt x="63" y="335" on="1"/>
        <pt x="63" y="480" on="0"/>
      </contour>
      <contour>
        <pt x="406" y="36" on="1"/>
        <pt x="529" y="36" on="0"/>
        <pt x="698" y="208" on="0"/>
        <pt x="698" y="335" on="1"/>
        <pt x="698" y="461" on="0"/>
        <pt x="529" y="634" on="0"/>
        <pt x="406" y="634" on="1"/>
        <pt x="282" y="634" on="0"/>
        <pt x="113" y="461" on="0"/>
        <pt x="113" y="335" on="1"/>
        <pt x="113" y="208" on="0"/>
        <pt x="282" y="36" on="0"/>
      </contour>
    </TTGlyph>
    <TTGlyph name="Oslash" xMin="63" yMin="-11" xMax="748" yMax="681">
      <contour>
        <pt x="729" y="626" on="1"/>
        <pt x="665" y="562" on="1"/>
        <pt x="748" y="466" on="0"/>
        <pt x="748" y="335" on="1"/>
        <pt x="748" y="189" on="0"/>
        <pt x="550" y="-11" on="0"/>
        <pt x="406" y="-11" on="1"/>
        <pt x="274" y="-11" on="0"/>
        <pt x="178" y="75" on="1"/>
        <pt x="113" y="10" on="1"/>
        <pt x="83" y="40" on="1"/>
        <pt x="148" y="105" on="1"/>
        <pt x="63" y="201" on="0"/>
        <pt x="63" y="335" on="1"/>
        <pt x="63" y="480" on="0"/>
        <pt x="262" y="681" on="0"/>
        <pt x="406" y="681" on="1"/>
        <pt x="540" y="681" on="0"/>
        <pt x="636" y="593" on="1"/>
        <pt x="699" y="656" on="1"/>
      </contour>
      <contour>
        <pt x="113" y="335" on="1"/>
        <pt x="113" y="222" on="0"/>
        <pt x="182" y="139" on="1"/>
        <pt x="602" y="559" on="1"/>
        <pt x="519" y="634" on="0"/>
        <pt x="406" y="634" on="1"/>
        <pt x="282" y="634" on="0"/>
        <pt x="113" y="461" on="0"/>
      </contour>
      <contour>
        <pt x="406" y="36" on="1"/>
        <pt x="529" y="36" on="0"/>
        <pt x="698" y="208" on="0"/>
        <pt x="698" y="335" on="1"/>
        <pt x="698" y="445" on="0"/>
        <pt x="631" y="528" on="1"/>
        <pt x="212" y="109" on="1"/>
        <pt x="293" y="36" on="0"/>
      </contour>
    </TTGlyph>
    <TTGlyph name="Otilde" xMin="63" yMin="-11" xMax="748" yMax="864">
      <contour>
        <pt x="347" y="826" on="1"/>
        <pt x="327" y="826" on="0"/>
        <pt x="304" y="799" on="0"/>
        <pt x="304" y="776" on="1"/>
        <pt x="267" y="776" on="1"/>
        <pt x="267" y="819" on="0"/>
        <pt x="311" y="864" on="0"/>
        <pt x="344" y="864" on="1"/>
        <pt x="374" y="864" on="0"/>
        <pt x="445" y="811" on="0"/>
        <pt x="467" y="811" on="1"/>
        <pt x="486" y="811" on="0"/>
        <pt x="507" y="839" on="0"/>
        <pt x="507" y="863" on="1"/>
        <pt x="545" y="863" on="1"/>
        <pt x="545" y="819" on="0"/>
        <pt x="502" y="774" on="0"/>
        <pt x="469" y="774" on="1"/>
        <pt x="439" y="774" on="0"/>
        <pt x="368" y="826" on="0"/>
      </contour>
      <contour>
        <pt x="262" y="681" on="0"/>
        <pt x="550" y="681" on="0"/>
        <pt x="748" y="480" on="0"/>
        <pt x="748" y="335" on="1"/>
        <pt x="748" y="189" on="0"/>
        <pt x="550" y="-11" on="0"/>
        <pt x="406" y="-11" on="1"/>
        <pt x="261" y="-11" on="0"/>
        <pt x="63" y="189" on="0"/>
        <pt x="63" y="335" on="1"/>
        <pt x="63" y="480" on="0"/>
      </contour>
      <contour>
        <pt x="406" y="36" on="1"/>
        <pt x="529" y="36" on="0"/>
        <pt x="698" y="208" on="0"/>
        <pt x="698" y="335" on="1"/>
        <pt x="698" y="461" on="0"/>
        <pt x="529" y="634" on="0"/>
        <pt x="406" y="634" on="1"/>
        <pt x="282" y="634" on="0"/>
        <pt x="113" y="461" on="0"/>
        <pt x="113" y="335" on="1"/>
        <pt x="113" y="208" on="0"/>
        <pt x="282" y="36" on="0"/>
      </contour>
    </TTGlyph>
    <TTGlyph name="P" xMin="96" yMin="0" xMax="605" yMax="670">
      <contour>
        <pt x="96" y="670" on="1"/>
        <pt x="379" y="670" on="1"/>
        <pt x="481" y="670" on="0"/>
        <pt x="605" y="559" on="0"/>
        <pt x="605" y="471" on="1"/>
        <pt x="605" y="382" on="0"/>
        <pt x="481" y="271" on="0"/>
        <pt x="379" y="271" on="1"/>
        <pt x="147" y="271" on="1"/>
        <pt x="147" y="0" on="1"/>
        <pt x="96" y="0" on="1"/>
      </contour>
      <contour>
        <pt x="147" y="317" on="1"/>
        <pt x="379" y="317" on="1"/>
        <pt x="458" y="317" on="0"/>
        <pt x="554" y="403" on="0"/>
        <pt x="554" y="539" on="0"/>
        <pt x="458" y="624" on="0"/>
        <pt x="379" y="624" on="1"/>
        <pt x="147" y="624" on="1"/>
      </contour>
    </TTGlyph>
    <TTGlyph name="Q" xMin="63" yMin="-159" xMax="756" yMax="681">
      <contour>
        <pt x="717" y="-159" on="1"/>
        <pt x="562" y="26" on="1"/>
        <pt x="490" y="-11" on="0"/>
        <pt x="406" y="-11" on="1"/>
        <pt x="261" y="-11" on="0"/>
        <pt x="63" y="189" on="0"/>
        <pt x="63" y="335" on="1"/>
        <pt x="63" y="480" on="0"/>
        <pt x="262" y="681" on="0"/>
        <pt x="550" y="681" on="0"/>
        <pt x="748" y="480" on="0"/>
        <pt x="748" y="335" on="1"/>
        <pt x="748" y="248" on="0"/>
        <pt x="673" y="100" on="0"/>
        <pt x="607" y="53" on="1"/>
        <pt x="756" y="-124" on="1"/>
      </contour>
      <contour>
        <pt x="113" y="335" on="1"/>
        <pt x="113" y="208" on="0"/>
        <pt x="282" y="36" on="0"/>
        <pt x="406" y="36" on="1"/>
        <pt x="529" y="36" on="0"/>
        <pt x="698" y="208" on="0"/>
        <pt x="698" y="335" on="1"/>
        <pt x="698" y="461" on="0"/>
        <pt x="529" y="634" on="0"/>
        <pt x="406" y="634" on="1"/>
        <pt x="282" y="634" on="0"/>
        <pt x="113" y="461" on="0"/>
      </contour>
    </TTGlyph>
    <TTGlyph name="Q.ss04" xMin="63" yMin="-170" xMax="785" yMax="681">
      <contour>
        <pt x="714" y="-170" on="1"/>
        <pt x="553" y="21" on="1"/>
        <pt x="484" y="-11" on="0"/>
        <pt x="406" y="-11" on="1"/>
        <pt x="261" y="-11" on="0"/>
        <pt x="63" y="189" on="0"/>
        <pt x="63" y="335" on="1"/>
        <pt x="63" y="480" on="0"/>
        <pt x="262" y="681" on="0"/>
        <pt x="550" y="681" on="0"/>
        <pt x="748" y="480" on="0"/>
        <pt x="748" y="335" on="1"/>
        <pt x="748" y="246" on="0"/>
        <pt x="669" y="95" on="0"/>
        <pt x="600" y="48" on="1"/>
        <pt x="785" y="-170" on="1"/>
      </contour>
      <contour>
        <pt x="113" y="335" on="1"/>
        <pt x="113" y="208" on="0"/>
        <pt x="282" y="36" on="0"/>
        <pt x="406" y="36" on="1"/>
        <pt x="529" y="36" on="0"/>
        <pt x="698" y="208" on="0"/>
        <pt x="698" y="335" on="1"/>
        <pt x="698" y="461" on="0"/>
        <pt x="529" y="634" on="0"/>
        <pt x="406" y="634" on="1"/>
        <pt x="282" y="634" on="0"/>
        <pt x="113" y="461" on="0"/>
      </contour>
    </TTGlyph>
    <TTGlyph name="R" xMin="96" yMin="0" xMax="636" yMax="670">
      <contour>
        <pt x="636" y="0" on="1"/>
        <pt x="570" y="0" on="1"/>
        <pt x="294" y="308" on="1"/>
        <pt x="147" y="308" on="1"/>
        <pt x="147" y="0" on="1"/>
        <pt x="96" y="0" on="1"/>
        <pt x="96" y="670" on="1"/>
        <pt x="401" y="670" on="1"/>
        <pt x="495" y="670" on="0"/>
        <pt x="609" y="571" on="0"/>
        <pt x="609" y="407" on="0"/>
        <pt x="495" y="308" on="0"/>
        <pt x="401" y="308" on="1"/>
        <pt x="358" y="308" on="1"/>
      </contour>
      <contour>
        <pt x="147" y="353" on="1"/>
        <pt x="401" y="353" on="1"/>
        <pt x="472" y="353" on="0"/>
        <pt x="559" y="428" on="0"/>
        <pt x="559" y="550" on="0"/>
        <pt x="472" y="624" on="0"/>
        <pt x="401" y="624" on="1"/>
        <pt x="147" y="624" on="1"/>
      </contour>
    </TTGlyph>
    <TTGlyph name="Racute" xMin="96" yMin="0" xMax="636" yMax="886">
      <contour>
        <pt x="351" y="748" on="1"/>
        <pt x="307" y="748" on="1"/>
        <pt x="393" y="886" on="1"/>
        <pt x="449" y="886" on="1"/>
      </contour>
      <contour>
        <pt x="636" y="0" on="1"/>
        <pt x="570" y="0" on="1"/>
        <pt x="294" y="308" on="1"/>
        <pt x="147" y="308" on="1"/>
        <pt x="147" y="0" on="1"/>
        <pt x="96" y="0" on="1"/>
        <pt x="96" y="670" on="1"/>
        <pt x="401" y="670" on="1"/>
        <pt x="495" y="670" on="0"/>
        <pt x="609" y="571" on="0"/>
        <pt x="609" y="407" on="0"/>
        <pt x="495" y="308" on="0"/>
        <pt x="401" y="308" on="1"/>
        <pt x="358" y="308" on="1"/>
      </contour>
      <contour>
        <pt x="147" y="353" on="1"/>
        <pt x="401" y="353" on="1"/>
        <pt x="472" y="353" on="0"/>
        <pt x="559" y="428" on="0"/>
        <pt x="559" y="550" on="0"/>
        <pt x="472" y="624" on="0"/>
        <pt x="401" y="624" on="1"/>
        <pt x="147" y="624" on="1"/>
      </contour>
    </TTGlyph>
    <TTGlyph name="Rcaron" xMin="96" yMin="0" xMax="636" yMax="881">
      <contour>
        <pt x="300" y="742" on="1"/>
        <pt x="182" y="881" on="1"/>
        <pt x="233" y="881" on="1"/>
        <pt x="323" y="775" on="1"/>
        <pt x="413" y="881" on="1"/>
        <pt x="465" y="881" on="1"/>
        <pt x="346" y="742" on="1"/>
      </contour>
      <contour>
        <pt x="636" y="0" on="1"/>
        <pt x="570" y="0" on="1"/>
        <pt x="294" y="308" on="1"/>
        <pt x="147" y="308" on="1"/>
        <pt x="147" y="0" on="1"/>
        <pt x="96" y="0" on="1"/>
        <pt x="96" y="670" on="1"/>
        <pt x="401" y="670" on="1"/>
        <pt x="495" y="670" on="0"/>
        <pt x="609" y="571" on="0"/>
        <pt x="609" y="407" on="0"/>
        <pt x="495" y="308" on="0"/>
        <pt x="401" y="308" on="1"/>
        <pt x="358" y="308" on="1"/>
      </contour>
      <contour>
        <pt x="147" y="353" on="1"/>
        <pt x="401" y="353" on="1"/>
        <pt x="472" y="353" on="0"/>
        <pt x="559" y="428" on="0"/>
        <pt x="559" y="550" on="0"/>
        <pt x="472" y="624" on="0"/>
        <pt x="401" y="624" on="1"/>
        <pt x="147" y="624" on="1"/>
      </contour>
    </TTGlyph>
    <TTGlyph name="Rcommaaccent" xMin="96" yMin="-184" xMax="636" yMax="670">
      <contour>
        <pt x="636" y="0" on="1"/>
        <pt x="570" y="0" on="1"/>
        <pt x="294" y="308" on="1"/>
        <pt x="147" y="308" on="1"/>
        <pt x="147" y="0" on="1"/>
        <pt x="96" y="0" on="1"/>
        <pt x="96" y="670" on="1"/>
        <pt x="401" y="670" on="1"/>
        <pt x="495" y="670" on="0"/>
        <pt x="609" y="571" on="0"/>
        <pt x="609" y="407" on="0"/>
        <pt x="495" y="308" on="0"/>
        <pt x="401" y="308" on="1"/>
        <pt x="358" y="308" on="1"/>
      </contour>
      <contour>
        <pt x="147" y="353" on="1"/>
        <pt x="401" y="353" on="1"/>
        <pt x="472" y="353" on="0"/>
        <pt x="559" y="428" on="0"/>
        <pt x="559" y="550" on="0"/>
        <pt x="472" y="624" on="0"/>
        <pt x="401" y="624" on="1"/>
        <pt x="147" y="624" on="1"/>
      </contour>
      <contour>
        <pt x="305" y="-45" on="1"/>
        <pt x="358" y="-45" on="1"/>
        <pt x="299" y="-184" on="1"/>
        <pt x="260" y="-184" on="1"/>
      </contour>
    </TTGlyph>
    <TTGlyph name="S" xMin="55" yMin="-11" xMax="563" yMax="681">
      <contour>
        <pt x="308" y="681" on="1"/>
        <pt x="406" y="681" on="0"/>
        <pt x="535" y="583" on="0"/>
        <pt x="552" y="502" on="1"/>
        <pt x="502" y="490" on="1"/>
        <pt x="489" y="557" on="0"/>
        <pt x="385" y="637" on="0"/>
        <pt x="306" y="637" on="1"/>
        <pt x="230" y="637" on="0"/>
        <pt x="133" y="561" on="0"/>
        <pt x="133" y="497" on="1"/>
        <pt x="133" y="446" on="0"/>
        <pt x="194" y="393" on="0"/>
        <pt x="252" y="380" on="1"/>
        <pt x="399" y="345" on="1"/>
        <pt x="434" y="338" on="0"/>
        <pt x="487" y="316" on="0"/>
        <pt x="536" y="278" on="0"/>
        <pt x="563" y="219" on="0"/>
        <pt x="563" y="180" on="1"/>
        <pt x="563" y="93" on="0"/>
        <pt x="432" y="-11" on="0"/>
        <pt x="324" y="-11" on="1"/>
        <pt x="214" y="-11" on="0"/>
        <pt x="66" y="96" on="0"/>
        <pt x="55" y="188" on="1"/>
        <pt x="109" y="200" on="1"/>
        <pt x="118" y="123" on="0"/>
        <pt x="238" y="34" on="0"/>
        <pt x="328" y="34" on="1"/>
        <pt x="413" y="34" on="0"/>
        <pt x="513" y="112" on="0"/>
        <pt x="513" y="178" on="1"/>
        <pt x="513" y="232" on="0"/>
        <pt x="454" y="284" on="0"/>
        <pt x="388" y="299" on="1"/>
        <pt x="233" y="335" on="1"/>
        <pt x="79" y="371" on="0"/>
        <pt x="79" y="496" on="1"/>
        <pt x="79" y="580" on="0"/>
        <pt x="206" y="681" on="0"/>
      </contour>
    </TTGlyph>
    <TTGlyph name="Sacute" xMin="55" yMin="-11" xMax="563" yMax="886">
      <contour>
        <pt x="343" y="748" on="1"/>
        <pt x="299" y="748" on="1"/>
        <pt x="385" y="886" on="1"/>
        <pt x="441" y="886" on="1"/>
      </contour>
      <contour>
        <pt x="308" y="681" on="1"/>
        <pt x="406" y="681" on="0"/>
        <pt x="535" y="583" on="0"/>
        <pt x="552" y="502" on="1"/>
        <pt x="502" y="490" on="1"/>
        <pt x="489" y="557" on="0"/>
        <pt x="385" y="637" on="0"/>
        <pt x="306" y="637" on="1"/>
        <pt x="230" y="637" on="0"/>
        <pt x="133" y="561" on="0"/>
        <pt x="133" y="497" on="1"/>
        <pt x="133" y="446" on="0"/>
        <pt x="194" y="393" on="0"/>
        <pt x="252" y="380" on="1"/>
        <pt x="399" y="345" on="1"/>
        <pt x="434" y="338" on="0"/>
        <pt x="487" y="316" on="0"/>
        <pt x="536" y="278" on="0"/>
        <pt x="563" y="219" on="0"/>
        <pt x="563" y="180" on="1"/>
        <pt x="563" y="93" on="0"/>
        <pt x="432" y="-11" on="0"/>
        <pt x="324" y="-11" on="1"/>
        <pt x="214" y="-11" on="0"/>
        <pt x="66" y="96" on="0"/>
        <pt x="55" y="188" on="1"/>
        <pt x="109" y="200" on="1"/>
        <pt x="118" y="123" on="0"/>
        <pt x="238" y="34" on="0"/>
        <pt x="328" y="34" on="1"/>
        <pt x="413" y="34" on="0"/>
        <pt x="513" y="112" on="0"/>
        <pt x="513" y="178" on="1"/>
        <pt x="513" y="232" on="0"/>
        <pt x="454" y="284" on="0"/>
        <pt x="388" y="299" on="1"/>
        <pt x="233" y="335" on="1"/>
        <pt x="79" y="371" on="0"/>
        <pt x="79" y="496" on="1"/>
        <pt x="79" y="580" on="0"/>
        <pt x="206" y="681" on="0"/>
      </contour>
    </TTGlyph>
    <TTGlyph name="Scaron" xMin="55" yMin="-11" xMax="563" yMax="881">
      <contour>
        <pt x="292" y="742" on="1"/>
        <pt x="174" y="881" on="1"/>
        <pt x="225" y="881" on="1"/>
        <pt x="315" y="775" on="1"/>
        <pt x="405" y="881" on="1"/>
        <pt x="457" y="881" on="1"/>
        <pt x="338" y="742" on="1"/>
      </contour>
      <contour>
        <pt x="252" y="380" on="1"/>
        <pt x="399" y="345" on="1"/>
        <pt x="434" y="338" on="0"/>
        <pt x="487" y="316" on="0"/>
        <pt x="536" y="278" on="0"/>
        <pt x="563" y="219" on="0"/>
        <pt x="563" y="180" on="1"/>
        <pt x="563" y="93" on="0"/>
        <pt x="432" y="-11" on="0"/>
        <pt x="324" y="-11" on="1"/>
        <pt x="214" y="-11" on="0"/>
        <pt x="66" y="96" on="0"/>
        <pt x="55" y="188" on="1"/>
        <pt x="109" y="200" on="1"/>
        <pt x="118" y="123" on="0"/>
        <pt x="238" y="34" on="0"/>
        <pt x="328" y="34" on="1"/>
        <pt x="413" y="34" on="0"/>
        <pt x="513" y="112" on="0"/>
        <pt x="513" y="178" on="1"/>
        <pt x="513" y="232" on="0"/>
        <pt x="454" y="284" on="0"/>
        <pt x="388" y="299" on="1"/>
        <pt x="233" y="335" on="1"/>
        <pt x="79" y="371" on="0"/>
        <pt x="79" y="496" on="1"/>
        <pt x="79" y="580" on="0"/>
        <pt x="206" y="681" on="0"/>
        <pt x="308" y="681" on="1"/>
        <pt x="406" y="681" on="0"/>
        <pt x="535" y="583" on="0"/>
        <pt x="552" y="502" on="1"/>
        <pt x="502" y="490" on="1"/>
        <pt x="489" y="557" on="0"/>
        <pt x="385" y="637" on="0"/>
        <pt x="306" y="637" on="1"/>
        <pt x="230" y="637" on="0"/>
        <pt x="133" y="561" on="0"/>
        <pt x="133" y="497" on="1"/>
        <pt x="133" y="446" on="0"/>
        <pt x="194" y="393" on="0"/>
      </contour>
    </TTGlyph>
    <TTGlyph name="Scedilla" xMin="55" yMin="-175" xMax="563" yMax="681">
      <contour>
        <pt x="563" y="180" on="1"/>
        <pt x="563" y="97" on="0"/>
        <pt x="444" y="-6" on="0"/>
        <pt x="343" y="-11" on="1"/>
        <pt x="260" y="-175" on="1"/>
        <pt x="206" y="-175" on="1"/>
        <pt x="302" y="-10" on="1"/>
        <pt x="201" y="-5" on="0"/>
        <pt x="65" y="101" on="0"/>
        <pt x="55" y="188" on="1"/>
        <pt x="109" y="200" on="1"/>
        <pt x="118" y="123" on="0"/>
        <pt x="238" y="34" on="0"/>
        <pt x="328" y="34" on="1"/>
        <pt x="413" y="34" on="0"/>
        <pt x="513" y="112" on="0"/>
        <pt x="513" y="178" on="1"/>
        <pt x="513" y="232" on="0"/>
        <pt x="454" y="284" on="0"/>
        <pt x="388" y="299" on="1"/>
        <pt x="233" y="335" on="1"/>
        <pt x="79" y="371" on="0"/>
        <pt x="79" y="496" on="1"/>
        <pt x="79" y="580" on="0"/>
        <pt x="206" y="681" on="0"/>
        <pt x="308" y="681" on="1"/>
        <pt x="406" y="681" on="0"/>
        <pt x="535" y="583" on="0"/>
        <pt x="552" y="502" on="1"/>
        <pt x="502" y="490" on="1"/>
        <pt x="489" y="557" on="0"/>
        <pt x="385" y="637" on="0"/>
        <pt x="306" y="637" on="1"/>
        <pt x="230" y="637" on="0"/>
        <pt x="133" y="561" on="0"/>
        <pt x="133" y="497" on="1"/>
        <pt x="133" y="446" on="0"/>
        <pt x="194" y="393" on="0"/>
        <pt x="252" y="380" on="1"/>
        <pt x="399" y="345" on="1"/>
        <pt x="434" y="338" on="0"/>
        <pt x="487" y="316" on="0"/>
        <pt x="536" y="278" on="0"/>
        <pt x="563" y="219" on="0"/>
      </contour>
    </TTGlyph>
    <TTGlyph name="Scommaaccent" xMin="55" yMin="-184" xMax="563" yMax="681">
      <contour>
        <pt x="308" y="681" on="1"/>
        <pt x="406" y="681" on="0"/>
        <pt x="535" y="583" on="0"/>
        <pt x="552" y="502" on="1"/>
        <pt x="502" y="490" on="1"/>
        <pt x="489" y="557" on="0"/>
        <pt x="385" y="637" on="0"/>
        <pt x="306" y="637" on="1"/>
        <pt x="230" y="637" on="0"/>
        <pt x="133" y="561" on="0"/>
        <pt x="133" y="497" on="1"/>
        <pt x="133" y="446" on="0"/>
        <pt x="194" y="393" on="0"/>
        <pt x="252" y="380" on="1"/>
        <pt x="399" y="345" on="1"/>
        <pt x="434" y="338" on="0"/>
        <pt x="487" y="316" on="0"/>
        <pt x="536" y="278" on="0"/>
        <pt x="563" y="219" on="0"/>
        <pt x="563" y="180" on="1"/>
        <pt x="563" y="93" on="0"/>
        <pt x="432" y="-11" on="0"/>
        <pt x="324" y="-11" on="1"/>
        <pt x="214" y="-11" on="0"/>
        <pt x="66" y="96" on="0"/>
        <pt x="55" y="188" on="1"/>
        <pt x="109" y="200" on="1"/>
        <pt x="118" y="123" on="0"/>
        <pt x="238" y="34" on="0"/>
        <pt x="328" y="34" on="1"/>
        <pt x="413" y="34" on="0"/>
        <pt x="513" y="112" on="0"/>
        <pt x="513" y="178" on="1"/>
        <pt x="513" y="232" on="0"/>
        <pt x="454" y="284" on="0"/>
        <pt x="388" y="299" on="1"/>
        <pt x="233" y="335" on="1"/>
        <pt x="79" y="371" on="0"/>
        <pt x="79" y="496" on="1"/>
        <pt x="79" y="580" on="0"/>
        <pt x="206" y="681" on="0"/>
      </contour>
      <contour>
        <pt x="243" y="-184" on="1"/>
        <pt x="288" y="-45" on="1"/>
        <pt x="341" y="-45" on="1"/>
        <pt x="282" y="-184" on="1"/>
      </contour>
    </TTGlyph>
    <TTGlyph name="T" xMin="28" yMin="0" xMax="602" yMax="670">
      <contour>
        <pt x="602" y="624" on="1"/>
        <pt x="341" y="624" on="1"/>
        <pt x="341" y="0" on="1"/>
        <pt x="289" y="0" on="1"/>
        <pt x="289" y="624" on="1"/>
        <pt x="28" y="624" on="1"/>
        <pt x="28" y="670" on="1"/>
        <pt x="602" y="670" on="1"/>
      </contour>
    </TTGlyph>
    <TTGlyph name="Tbar" xMin="28" yMin="0" xMax="602" yMax="670">
      <contour>
        <pt x="341" y="624" on="1"/>
        <pt x="341" y="357" on="1"/>
        <pt x="478" y="357" on="1"/>
        <pt x="478" y="315" on="1"/>
        <pt x="341" y="315" on="1"/>
        <pt x="341" y="0" on="1"/>
        <pt x="289" y="0" on="1"/>
        <pt x="289" y="315" on="1"/>
        <pt x="151" y="315" on="1"/>
        <pt x="151" y="357" on="1"/>
        <pt x="289" y="357" on="1"/>
        <pt x="289" y="624" on="1"/>
        <pt x="28" y="624" on="1"/>
        <pt x="28" y="670" on="1"/>
        <pt x="602" y="670" on="1"/>
        <pt x="602" y="624" on="1"/>
      </contour>
    </TTGlyph>
    <TTGlyph name="Tcaron" xMin="28" yMin="0" xMax="602" yMax="881">
      <contour>
        <pt x="293" y="742" on="1"/>
        <pt x="175" y="881" on="1"/>
        <pt x="226" y="881" on="1"/>
        <pt x="316" y="775" on="1"/>
        <pt x="406" y="881" on="1"/>
        <pt x="458" y="881" on="1"/>
        <pt x="339" y="742" on="1"/>
      </contour>
      <contour>
        <pt x="602" y="624" on="1"/>
        <pt x="341" y="624" on="1"/>
        <pt x="341" y="0" on="1"/>
        <pt x="289" y="0" on="1"/>
        <pt x="289" y="624" on="1"/>
        <pt x="28" y="624" on="1"/>
        <pt x="28" y="670" on="1"/>
        <pt x="602" y="670" on="1"/>
      </contour>
    </TTGlyph>
    <TTGlyph name="Thorn" xMin="96" yMin="0" xMax="585" yMax="670">
      <contour>
        <pt x="147" y="542" on="1"/>
        <pt x="354" y="542" on="1"/>
        <pt x="457" y="542" on="0"/>
        <pt x="585" y="426" on="0"/>
        <pt x="585" y="244" on="0"/>
        <pt x="457" y="128" on="0"/>
        <pt x="354" y="128" on="1"/>
        <pt x="147" y="128" on="1"/>
        <pt x="147" y="0" on="1"/>
        <pt x="96" y="0" on="1"/>
        <pt x="96" y="670" on="1"/>
        <pt x="147" y="670" on="1"/>
      </contour>
      <contour>
        <pt x="147" y="174" on="1"/>
        <pt x="353" y="174" on="1"/>
        <pt x="434" y="174" on="0"/>
        <pt x="534" y="265" on="0"/>
        <pt x="534" y="335" on="1"/>
        <pt x="534" y="406" on="0"/>
        <pt x="434" y="497" on="0"/>
        <pt x="353" y="497" on="1"/>
        <pt x="147" y="497" on="1"/>
      </contour>
    </TTGlyph>
    <TTGlyph name="U" xMin="87" yMin="-11" xMax="638" yMax="670">
      <contour>
        <pt x="638" y="670" on="1"/>
        <pt x="638" y="289" on="1"/>
        <pt x="638" y="154" on="0"/>
        <pt x="487" y="-11" on="0"/>
        <pt x="364" y="-11" on="1"/>
        <pt x="239" y="-11" on="0"/>
        <pt x="87" y="154" on="0"/>
        <pt x="87" y="289" on="1"/>
        <pt x="87" y="670" on="1"/>
        <pt x="138" y="670" on="1"/>
        <pt x="138" y="289" on="1"/>
        <pt x="138" y="175" on="0"/>
        <pt x="262" y="37" on="0"/>
        <pt x="364" y="37" on="1"/>
        <pt x="465" y="37" on="0"/>
        <pt x="588" y="175" on="0"/>
        <pt x="588" y="289" on="1"/>
        <pt x="588" y="670" on="1"/>
      </contour>
    </TTGlyph>
    <TTGlyph name="Uacute" xMin="87" yMin="-11" xMax="638" yMax="886">
      <contour>
        <pt x="391" y="748" on="1"/>
        <pt x="347" y="748" on="1"/>
        <pt x="433" y="886" on="1"/>
        <pt x="489" y="886" on="1"/>
      </contour>
      <contour>
        <pt x="638" y="670" on="1"/>
        <pt x="638" y="289" on="1"/>
        <pt x="638" y="154" on="0"/>
        <pt x="487" y="-11" on="0"/>
        <pt x="364" y="-11" on="1"/>
        <pt x="239" y="-11" on="0"/>
        <pt x="87" y="154" on="0"/>
        <pt x="87" y="289" on="1"/>
        <pt x="87" y="670" on="1"/>
        <pt x="138" y="670" on="1"/>
        <pt x="138" y="289" on="1"/>
        <pt x="138" y="175" on="0"/>
        <pt x="262" y="37" on="0"/>
        <pt x="364" y="37" on="1"/>
        <pt x="465" y="37" on="0"/>
        <pt x="588" y="175" on="0"/>
        <pt x="588" y="289" on="1"/>
        <pt x="588" y="670" on="1"/>
      </contour>
    </TTGlyph>
    <TTGlyph name="Ucircumflex" xMin="87" yMin="-11" xMax="638" yMax="879">
      <contour>
        <pt x="273" y="741" on="1"/>
        <pt x="222" y="741" on="1"/>
        <pt x="340" y="879" on="1"/>
        <pt x="386" y="879" on="1"/>
        <pt x="505" y="741" on="1"/>
        <pt x="453" y="741" on="1"/>
        <pt x="363" y="846" on="1"/>
      </contour>
      <contour>
        <pt x="638" y="670" on="1"/>
        <pt x="638" y="289" on="1"/>
        <pt x="638" y="154" on="0"/>
        <pt x="487" y="-11" on="0"/>
        <pt x="364" y="-11" on="1"/>
        <pt x="239" y="-11" on="0"/>
        <pt x="87" y="154" on="0"/>
        <pt x="87" y="289" on="1"/>
        <pt x="87" y="670" on="1"/>
        <pt x="138" y="670" on="1"/>
        <pt x="138" y="289" on="1"/>
        <pt x="138" y="175" on="0"/>
        <pt x="262" y="37" on="0"/>
        <pt x="364" y="37" on="1"/>
        <pt x="465" y="37" on="0"/>
        <pt x="588" y="175" on="0"/>
        <pt x="588" y="289" on="1"/>
        <pt x="588" y="670" on="1"/>
      </contour>
    </TTGlyph>
    <TTGlyph name="Udieresis" xMin="87" yMin="-11" xMax="638" yMax="841">
      <contour>
        <pt x="286" y="766" on="0"/>
        <pt x="252" y="766" on="0"/>
        <pt x="230" y="787" on="0"/>
        <pt x="230" y="803" on="1"/>
        <pt x="230" y="818" on="0"/>
        <pt x="253" y="841" on="0"/>
        <pt x="285" y="841" on="0"/>
        <pt x="307" y="818" on="0"/>
        <pt x="307" y="803" on="1"/>
        <pt x="307" y="787" on="0"/>
      </contour>
      <contour>
        <pt x="475" y="766" on="0"/>
        <pt x="441" y="766" on="0"/>
        <pt x="419" y="787" on="0"/>
        <pt x="419" y="803" on="1"/>
        <pt x="419" y="818" on="0"/>
        <pt x="442" y="841" on="0"/>
        <pt x="474" y="841" on="0"/>
        <pt x="496" y="818" on="0"/>
        <pt x="496" y="803" on="1"/>
        <pt x="496" y="787" on="0"/>
      </contour>
      <contour>
        <pt x="638" y="670" on="1"/>
        <pt x="638" y="289" on="1"/>
        <pt x="638" y="154" on="0"/>
        <pt x="487" y="-11" on="0"/>
        <pt x="364" y="-11" on="1"/>
        <pt x="239" y="-11" on="0"/>
        <pt x="87" y="154" on="0"/>
        <pt x="87" y="289" on="1"/>
        <pt x="87" y="670" on="1"/>
        <pt x="138" y="670" on="1"/>
        <pt x="138" y="289" on="1"/>
        <pt x="138" y="175" on="0"/>
        <pt x="262" y="37" on="0"/>
        <pt x="364" y="37" on="1"/>
        <pt x="465" y="37" on="0"/>
        <pt x="588" y="175" on="0"/>
        <pt x="588" y="289" on="1"/>
        <pt x="588" y="670" on="1"/>
      </contour>
    </TTGlyph>
    <TTGlyph name="Ugrave" xMin="87" yMin="-11" xMax="638" yMax="886">
      <contour>
        <pt x="339" y="748" on="1"/>
        <pt x="241" y="886" on="1"/>
        <pt x="297" y="886" on="1"/>
        <pt x="383" y="748" on="1"/>
      </contour>
      <contour>
        <pt x="638" y="670" on="1"/>
        <pt x="638" y="289" on="1"/>
        <pt x="638" y="154" on="0"/>
        <pt x="487" y="-11" on="0"/>
        <pt x="364" y="-11" on="1"/>
        <pt x="239" y="-11" on="0"/>
        <pt x="87" y="154" on="0"/>
        <pt x="87" y="289" on="1"/>
        <pt x="87" y="670" on="1"/>
        <pt x="138" y="670" on="1"/>
        <pt x="138" y="289" on="1"/>
        <pt x="138" y="175" on="0"/>
        <pt x="262" y="37" on="0"/>
        <pt x="364" y="37" on="1"/>
        <pt x="465" y="37" on="0"/>
        <pt x="588" y="175" on="0"/>
        <pt x="588" y="289" on="1"/>
        <pt x="588" y="670" on="1"/>
      </contour>
    </TTGlyph>
    <TTGlyph name="Uhungarumlaut" xMin="87" yMin="-11" xMax="638" yMax="885">
      <contour>
        <pt x="313" y="748" on="1"/>
        <pt x="268" y="748" on="1"/>
        <pt x="354" y="885" on="1"/>
        <pt x="415" y="885" on="1"/>
      </contour>
      <contour>
        <pt x="406" y="748" on="1"/>
        <pt x="491" y="885" on="1"/>
        <pt x="552" y="885" on="1"/>
        <pt x="451" y="748" on="1"/>
      </contour>
      <contour>
        <pt x="638" y="670" on="1"/>
        <pt x="638" y="289" on="1"/>
        <pt x="638" y="154" on="0"/>
        <pt x="487" y="-11" on="0"/>
        <pt x="364" y="-11" on="1"/>
        <pt x="239" y="-11" on="0"/>
        <pt x="87" y="154" on="0"/>
        <pt x="87" y="289" on="1"/>
        <pt x="87" y="670" on="1"/>
        <pt x="138" y="670" on="1"/>
        <pt x="138" y="289" on="1"/>
        <pt x="138" y="175" on="0"/>
        <pt x="262" y="37" on="0"/>
        <pt x="364" y="37" on="1"/>
        <pt x="465" y="37" on="0"/>
        <pt x="588" y="175" on="0"/>
        <pt x="588" y="289" on="1"/>
        <pt x="588" y="670" on="1"/>
      </contour>
    </TTGlyph>
    <TTGlyph name="Umacron" xMin="87" yMin="-11" xMax="638" yMax="810">
      <contour>
        <pt x="497" y="770" on="1"/>
        <pt x="230" y="770" on="1"/>
        <pt x="230" y="810" on="1"/>
        <pt x="497" y="810" on="1"/>
      </contour>
      <contour>
        <pt x="638" y="670" on="1"/>
        <pt x="638" y="289" on="1"/>
        <pt x="638" y="154" on="0"/>
        <pt x="487" y="-11" on="0"/>
        <pt x="364" y="-11" on="1"/>
        <pt x="239" y="-11" on="0"/>
        <pt x="87" y="154" on="0"/>
        <pt x="87" y="289" on="1"/>
        <pt x="87" y="670" on="1"/>
        <pt x="138" y="670" on="1"/>
        <pt x="138" y="289" on="1"/>
        <pt x="138" y="175" on="0"/>
        <pt x="262" y="37" on="0"/>
        <pt x="364" y="37" on="1"/>
        <pt x="465" y="37" on="0"/>
        <pt x="588" y="175" on="0"/>
        <pt x="588" y="289" on="1"/>
        <pt x="588" y="670" on="1"/>
      </contour>
    </TTGlyph>
    <TTGlyph name="Uogonek" xMin="87" yMin="-196" xMax="638" yMax="670">
      <contour>
        <pt x="638" y="670" on="1"/>
        <pt x="638" y="281" on="1"/>
        <pt x="638" y="137" on="0"/>
        <pt x="542" y="52" on="1"/>
        <pt x="452" y="-23" on="0"/>
        <pt x="407" y="-74" on="0"/>
        <pt x="407" y="-107" on="1"/>
        <pt x="407" y="-129" on="0"/>
        <pt x="437" y="-156" on="0"/>
        <pt x="462" y="-156" on="1"/>
        <pt x="477" y="-156" on="0"/>
        <pt x="509" y="-143" on="1"/>
        <pt x="520" y="-178" on="1"/>
        <pt x="482" y="-196" on="0"/>
        <pt x="453" y="-196" on="1"/>
        <pt x="414" y="-196" on="0"/>
        <pt x="364" y="-152" on="0"/>
        <pt x="364" y="-117" on="1"/>
        <pt x="364" y="-86" on="0"/>
        <pt x="395" y="-36" on="0"/>
        <pt x="434" y="-2" on="1"/>
        <pt x="398" y="-11" on="0"/>
        <pt x="364" y="-11" on="1"/>
        <pt x="240" y="-11" on="0"/>
        <pt x="87" y="150" on="0"/>
        <pt x="87" y="281" on="1"/>
        <pt x="87" y="670" on="1"/>
        <pt x="138" y="670" on="1"/>
        <pt x="138" y="281" on="1"/>
        <pt x="138" y="171" on="0"/>
        <pt x="263" y="37" on="0"/>
        <pt x="364" y="37" on="1"/>
        <pt x="464" y="37" on="0"/>
        <pt x="588" y="171" on="0"/>
        <pt x="588" y="281" on="1"/>
        <pt x="588" y="670" on="1"/>
      </contour>
    </TTGlyph>
    <TTGlyph name="Uring" xMin="87" yMin="-11" xMax="638" yMax="920">
      <contour>
        <pt x="403" y="734" on="0"/>
        <pt x="323" y="734" on="0"/>
        <pt x="267" y="789" on="0"/>
        <pt x="267" y="865" on="0"/>
        <pt x="323" y="920" on="0"/>
        <pt x="403" y="920" on="0"/>
        <pt x="459" y="865" on="0"/>
        <pt x="459" y="789" on="0"/>
      </contour>
      <contour>
        <pt x="389" y="888" on="0"/>
        <pt x="337" y="888" on="0"/>
        <pt x="300" y="852" on="0"/>
        <pt x="300" y="802" on="0"/>
        <pt x="337" y="766" on="0"/>
        <pt x="389" y="766" on="0"/>
        <pt x="426" y="802" on="0"/>
        <pt x="426" y="852" on="0"/>
      </contour>
      <contour>
        <pt x="638" y="670" on="1"/>
        <pt x="638" y="289" on="1"/>
        <pt x="638" y="154" on="0"/>
        <pt x="487" y="-11" on="0"/>
        <pt x="364" y="-11" on="1"/>
        <pt x="239" y="-11" on="0"/>
        <pt x="87" y="154" on="0"/>
        <pt x="87" y="289" on="1"/>
        <pt x="87" y="670" on="1"/>
        <pt x="138" y="670" on="1"/>
        <pt x="138" y="289" on="1"/>
        <pt x="138" y="175" on="0"/>
        <pt x="262" y="37" on="0"/>
        <pt x="364" y="37" on="1"/>
        <pt x="465" y="37" on="0"/>
        <pt x="588" y="175" on="0"/>
        <pt x="588" y="289" on="1"/>
        <pt x="588" y="670" on="1"/>
      </contour>
    </TTGlyph>
    <TTGlyph name="V" xMin="21" yMin="0" xMax="658" yMax="670">
      <contour>
        <pt x="658" y="670" on="1"/>
        <pt x="363" y="0" on="1"/>
        <pt x="316" y="0" on="1"/>
        <pt x="21" y="670" on="1"/>
        <pt x="76" y="670" on="1"/>
        <pt x="339" y="70" on="1"/>
        <pt x="603" y="670" on="1"/>
      </contour>
    </TTGlyph>
    <TTGlyph name="W" xMin="21" yMin="0" xMax="927" yMax="670">
      <contour>
        <pt x="927" y="670" on="1"/>
        <pt x="716" y="0" on="1"/>
        <pt x="665" y="0" on="1"/>
        <pt x="474" y="590" on="1"/>
        <pt x="283" y="0" on="1"/>
        <pt x="233" y="0" on="1"/>
        <pt x="21" y="670" on="1"/>
        <pt x="74" y="670" on="1"/>
        <pt x="260" y="78" on="1"/>
        <pt x="450" y="670" on="1"/>
        <pt x="499" y="670" on="1"/>
        <pt x="689" y="78" on="1"/>
        <pt x="874" y="670" on="1"/>
      </contour>
    </TTGlyph>
    <TTGlyph name="Wacute" xMin="21" yMin="0" xMax="927" yMax="886">
      <contour>
        <pt x="502" y="748" on="1"/>
        <pt x="458" y="748" on="1"/>
        <pt x="544" y="886" on="1"/>
        <pt x="600" y="886" on="1"/>
      </contour>
      <contour>
        <pt x="927" y="670" on="1"/>
        <pt x="716" y="0" on="1"/>
        <pt x="665" y="0" on="1"/>
        <pt x="474" y="590" on="1"/>
        <pt x="283" y="0" on="1"/>
        <pt x="233" y="0" on="1"/>
        <pt x="21" y="670" on="1"/>
        <pt x="74" y="670" on="1"/>
        <pt x="260" y="78" on="1"/>
        <pt x="450" y="670" on="1"/>
        <pt x="499" y="670" on="1"/>
        <pt x="689" y="78" on="1"/>
        <pt x="874" y="670" on="1"/>
      </contour>
    </TTGlyph>
    <TTGlyph name="Wcircumflex" xMin="21" yMin="0" xMax="927" yMax="879">
      <contour>
        <pt x="384" y="741" on="1"/>
        <pt x="333" y="741" on="1"/>
        <pt x="451" y="879" on="1"/>
        <pt x="497" y="879" on="1"/>
        <pt x="616" y="741" on="1"/>
        <pt x="564" y="741" on="1"/>
        <pt x="474" y="846" on="1"/>
      </contour>
      <contour>
        <pt x="927" y="670" on="1"/>
        <pt x="716" y="0" on="1"/>
        <pt x="665" y="0" on="1"/>
        <pt x="474" y="590" on="1"/>
        <pt x="283" y="0" on="1"/>
        <pt x="233" y="0" on="1"/>
        <pt x="21" y="670" on="1"/>
        <pt x="74" y="670" on="1"/>
        <pt x="260" y="78" on="1"/>
        <pt x="450" y="670" on="1"/>
        <pt x="499" y="670" on="1"/>
        <pt x="689" y="78" on="1"/>
        <pt x="874" y="670" on="1"/>
      </contour>
    </TTGlyph>
    <TTGlyph name="Wdieresis" xMin="21" yMin="0" xMax="927" yMax="841">
      <contour>
        <pt x="397" y="766" on="0"/>
        <pt x="363" y="766" on="0"/>
        <pt x="341" y="787" on="0"/>
        <pt x="341" y="803" on="1"/>
        <pt x="341" y="818" on="0"/>
        <pt x="364" y="841" on="0"/>
        <pt x="396" y="841" on="0"/>
        <pt x="418" y="818" on="0"/>
        <pt x="418" y="803" on="1"/>
        <pt x="418" y="787" on="0"/>
      </contour>
      <contour>
        <pt x="586" y="766" on="0"/>
        <pt x="552" y="766" on="0"/>
        <pt x="530" y="787" on="0"/>
        <pt x="530" y="803" on="1"/>
        <pt x="530" y="818" on="0"/>
        <pt x="553" y="841" on="0"/>
        <pt x="585" y="841" on="0"/>
        <pt x="607" y="818" on="0"/>
        <pt x="607" y="803" on="1"/>
        <pt x="607" y="787" on="0"/>
      </contour>
      <contour>
        <pt x="927" y="670" on="1"/>
        <pt x="716" y="0" on="1"/>
        <pt x="665" y="0" on="1"/>
        <pt x="474" y="590" on="1"/>
        <pt x="283" y="0" on="1"/>
        <pt x="233" y="0" on="1"/>
        <pt x="21" y="670" on="1"/>
        <pt x="74" y="670" on="1"/>
        <pt x="260" y="78" on="1"/>
        <pt x="450" y="670" on="1"/>
        <pt x="499" y="670" on="1"/>
        <pt x="689" y="78" on="1"/>
        <pt x="874" y="670" on="1"/>
      </contour>
    </TTGlyph>
    <TTGlyph name="Wgrave" xMin="21" yMin="0" xMax="927" yMax="886">
      <contour>
        <pt x="451" y="748" on="1"/>
        <pt x="353" y="886" on="1"/>
        <pt x="409" y="886" on="1"/>
        <pt x="495" y="748" on="1"/>
      </contour>
      <contour>
        <pt x="927" y="670" on="1"/>
        <pt x="716" y="0" on="1"/>
        <pt x="665" y="0" on="1"/>
        <pt x="474" y="590" on="1"/>
        <pt x="283" y="0" on="1"/>
        <pt x="233" y="0" on="1"/>
        <pt x="21" y="670" on="1"/>
        <pt x="74" y="670" on="1"/>
        <pt x="260" y="78" on="1"/>
        <pt x="450" y="670" on="1"/>
        <pt x="499" y="670" on="1"/>
        <pt x="689" y="78" on="1"/>
        <pt x="874" y="670" on="1"/>
      </contour>
    </TTGlyph>
    <TTGlyph name="X" xMin="21" yMin="0" xMax="596" yMax="670">
      <contour>
        <pt x="533" y="0" on="1"/>
        <pt x="308" y="304" on="1"/>
        <pt x="84" y="0" on="1"/>
        <pt x="21" y="0" on="1"/>
        <pt x="271" y="337" on="1"/>
        <pt x="29" y="670" on="1"/>
        <pt x="91" y="670" on="1"/>
        <pt x="308" y="370" on="1"/>
        <pt x="526" y="670" on="1"/>
        <pt x="588" y="670" on="1"/>
        <pt x="345" y="337" on="1"/>
        <pt x="596" y="0" on="1"/>
      </contour>
    </TTGlyph>
    <TTGlyph name="Y" xMin="21" yMin="0" xMax="639" yMax="670">
      <contour>
        <pt x="355" y="244" on="1"/>
        <pt x="355" y="0" on="1"/>
        <pt x="304" y="0" on="1"/>
        <pt x="304" y="244" on="1"/>
        <pt x="21" y="670" on="1"/>
        <pt x="78" y="670" on="1"/>
        <pt x="330" y="293" on="1"/>
        <pt x="581" y="670" on="1"/>
        <pt x="639" y="670" on="1"/>
      </contour>
    </TTGlyph>
    <TTGlyph name="Yacute" xMin="21" yMin="0" xMax="639" yMax="886">
      <contour>
        <pt x="358" y="748" on="1"/>
        <pt x="314" y="748" on="1"/>
        <pt x="400" y="886" on="1"/>
        <pt x="456" y="886" on="1"/>
      </contour>
      <contour>
        <pt x="355" y="244" on="1"/>
        <pt x="355" y="0" on="1"/>
        <pt x="304" y="0" on="1"/>
        <pt x="304" y="244" on="1"/>
        <pt x="21" y="670" on="1"/>
        <pt x="78" y="670" on="1"/>
        <pt x="330" y="293" on="1"/>
        <pt x="581" y="670" on="1"/>
        <pt x="639" y="670" on="1"/>
      </contour>
    </TTGlyph>
    <TTGlyph name="Ycircumflex" xMin="21" yMin="0" xMax="639" yMax="879">
      <contour>
        <pt x="240" y="741" on="1"/>
        <pt x="189" y="741" on="1"/>
        <pt x="307" y="879" on="1"/>
        <pt x="353" y="879" on="1"/>
        <pt x="472" y="741" on="1"/>
        <pt x="420" y="741" on="1"/>
        <pt x="330" y="846" on="1"/>
      </contour>
      <contour>
        <pt x="355" y="244" on="1"/>
        <pt x="355" y="0" on="1"/>
        <pt x="304" y="0" on="1"/>
        <pt x="304" y="244" on="1"/>
        <pt x="21" y="670" on="1"/>
        <pt x="78" y="670" on="1"/>
        <pt x="330" y="293" on="1"/>
        <pt x="581" y="670" on="1"/>
        <pt x="639" y="670" on="1"/>
      </contour>
    </TTGlyph>
    <TTGlyph name="Ydieresis" xMin="21" yMin="0" xMax="639" yMax="841">
      <contour>
        <pt x="253" y="766" on="0"/>
        <pt x="219" y="766" on="0"/>
        <pt x="197" y="787" on="0"/>
        <pt x="197" y="803" on="1"/>
        <pt x="197" y="818" on="0"/>
        <pt x="220" y="841" on="0"/>
        <pt x="252" y="841" on="0"/>
        <pt x="274" y="818" on="0"/>
        <pt x="274" y="803" on="1"/>
        <pt x="274" y="787" on="0"/>
      </contour>
      <contour>
        <pt x="442" y="766" on="0"/>
        <pt x="408" y="766" on="0"/>
        <pt x="386" y="787" on="0"/>
        <pt x="386" y="803" on="1"/>
        <pt x="386" y="818" on="0"/>
        <pt x="409" y="841" on="0"/>
        <pt x="441" y="841" on="0"/>
        <pt x="463" y="818" on="0"/>
        <pt x="463" y="803" on="1"/>
        <pt x="463" y="787" on="0"/>
      </contour>
      <contour>
        <pt x="355" y="244" on="1"/>
        <pt x="355" y="0" on="1"/>
        <pt x="304" y="0" on="1"/>
        <pt x="304" y="244" on="1"/>
        <pt x="21" y="670" on="1"/>
        <pt x="78" y="670" on="1"/>
        <pt x="330" y="293" on="1"/>
        <pt x="581" y="670" on="1"/>
        <pt x="639" y="670" on="1"/>
      </contour>
    </TTGlyph>
    <TTGlyph name="Ygrave" xMin="21" yMin="0" xMax="639" yMax="886">
      <contour>
        <pt x="307" y="748" on="1"/>
        <pt x="209" y="886" on="1"/>
        <pt x="265" y="886" on="1"/>
        <pt x="351" y="748" on="1"/>
      </contour>
      <contour>
        <pt x="355" y="244" on="1"/>
        <pt x="355" y="0" on="1"/>
        <pt x="304" y="0" on="1"/>
        <pt x="304" y="244" on="1"/>
        <pt x="21" y="670" on="1"/>
        <pt x="78" y="670" on="1"/>
        <pt x="330" y="293" on="1"/>
        <pt x="581" y="670" on="1"/>
        <pt x="639" y="670" on="1"/>
      </contour>
    </TTGlyph>
    <TTGlyph name="Z" xMin="64" yMin="0" xMax="570" yMax="670">
      <contour>
        <pt x="570" y="44" on="1"/>
        <pt x="570" y="0" on="1"/>
        <pt x="64" y="0" on="1"/>
        <pt x="64" y="32" on="1"/>
        <pt x="503" y="626" on="1"/>
        <pt x="77" y="626" on="1"/>
        <pt x="77" y="670" on="1"/>
        <pt x="569" y="670" on="1"/>
        <pt x="569" y="635" on="1"/>
        <pt x="135" y="44" on="1"/>
      </contour>
    </TTGlyph>
    <TTGlyph name="Zacute" xMin="64" yMin="0" xMax="570" yMax="886">
      <contour>
        <pt x="350" y="748" on="1"/>
        <pt x="306" y="748" on="1"/>
        <pt x="392" y="886" on="1"/>
        <pt x="448" y="886" on="1"/>
      </contour>
      <contour>
        <pt x="570" y="44" on="1"/>
        <pt x="570" y="0" on="1"/>
        <pt x="64" y="0" on="1"/>
        <pt x="64" y="32" on="1"/>
        <pt x="503" y="626" on="1"/>
        <pt x="77" y="626" on="1"/>
        <pt x="77" y="670" on="1"/>
        <pt x="569" y="670" on="1"/>
        <pt x="569" y="635" on="1"/>
        <pt x="135" y="44" on="1"/>
      </contour>
    </TTGlyph>
    <TTGlyph name="Zcaron" xMin="64" yMin="0" xMax="570" yMax="881">
      <contour>
        <pt x="299" y="742" on="1"/>
        <pt x="181" y="881" on="1"/>
        <pt x="232" y="881" on="1"/>
        <pt x="322" y="775" on="1"/>
        <pt x="412" y="881" on="1"/>
        <pt x="464" y="881" on="1"/>
        <pt x="345" y="742" on="1"/>
      </contour>
      <contour>
        <pt x="570" y="44" on="1"/>
        <pt x="570" y="0" on="1"/>
        <pt x="64" y="0" on="1"/>
        <pt x="64" y="32" on="1"/>
        <pt x="503" y="626" on="1"/>
        <pt x="77" y="626" on="1"/>
        <pt x="77" y="670" on="1"/>
        <pt x="569" y="670" on="1"/>
        <pt x="569" y="635" on="1"/>
        <pt x="135" y="44" on="1"/>
      </contour>
    </TTGlyph>
    <TTGlyph name="Zdotaccent" xMin="64" yMin="0" xMax="570" yMax="846">
      <contour>
        <pt x="339" y="772" on="0"/>
        <pt x="305" y="772" on="0"/>
        <pt x="284" y="793" on="0"/>
        <pt x="284" y="809" on="1"/>
        <pt x="284" y="824" on="0"/>
        <pt x="306" y="846" on="0"/>
        <pt x="338" y="846" on="0"/>
        <pt x="360" y="824" on="0"/>
        <pt x="360" y="809" on="1"/>
        <pt x="360" y="793" on="0"/>
      </contour>
      <contour>
        <pt x="570" y="44" on="1"/>
        <pt x="570" y="0" on="1"/>
        <pt x="64" y="0" on="1"/>
        <pt x="64" y="32" on="1"/>
        <pt x="503" y="626" on="1"/>
        <pt x="77" y="626" on="1"/>
        <pt x="77" y="670" on="1"/>
        <pt x="569" y="670" on="1"/>
        <pt x="569" y="635" on="1"/>
        <pt x="135" y="44" on="1"/>
      </contour>
    </TTGlyph>
    <TTGlyph name="a" xMin="41" yMin="-11" xMax="548" yMax="501">
      <contour>
        <pt x="548" y="489" on="1"/>
        <pt x="548" y="0" on="1"/>
        <pt x="499" y="0" on="1"/>
        <pt x="499" y="103" on="1"/>
        <pt x="467" y="49" on="0"/>
        <pt x="356" y="-11" on="0"/>
        <pt x="289" y="-11" on="1"/>
        <pt x="185" y="-11" on="0"/>
        <pt x="41" y="131" on="0"/>
        <pt x="41" y="245" on="1"/>
        <pt x="41" y="358" on="0"/>
        <pt x="186" y="501" on="0"/>
        <pt x="289" y="501" on="1"/>
        <pt x="356" y="501" on="0"/>
        <pt x="467" y="440" on="0"/>
        <pt x="499" y="386" on="1"/>
        <pt x="499" y="489" on="1"/>
      </contour>
      <contour>
        <pt x="294" y="33" on="1"/>
        <pt x="377" y="33" on="0"/>
        <pt x="499" y="151" on="0"/>
        <pt x="499" y="339" on="0"/>
        <pt x="376" y="457" on="0"/>
        <pt x="294" y="457" on="1"/>
        <pt x="208" y="457" on="0"/>
        <pt x="89" y="340" on="0"/>
        <pt x="89" y="245" on="1"/>
        <pt x="89" y="149" on="0"/>
        <pt x="207" y="33" on="0"/>
      </contour>
    </TTGlyph>
    <TTGlyph name="a.ss01" xMin="49" yMin="-11" xMax="472" yMax="501">
      <contour>
        <pt x="276" y="501" on="1"/>
        <pt x="366" y="501" on="0"/>
        <pt x="472" y="403" on="0"/>
        <pt x="472" y="316" on="1"/>
        <pt x="472" y="0" on="1"/>
        <pt x="425" y="0" on="1"/>
        <pt x="425" y="96" on="1"/>
        <pt x="396" y="47" on="0"/>
        <pt x="290" y="-11" on="0"/>
        <pt x="223" y="-11" on="1"/>
        <pt x="144" y="-11" on="0"/>
        <pt x="49" y="69" on="0"/>
        <pt x="49" y="132" on="1"/>
        <pt x="49" y="200" on="0"/>
        <pt x="152" y="284" on="0"/>
        <pt x="248" y="284" on="1"/>
        <pt x="425" y="283" on="1"/>
        <pt x="425" y="314" on="1"/>
        <pt x="425" y="381" on="0"/>
        <pt x="345" y="457" on="0"/>
        <pt x="278" y="457" on="1"/>
        <pt x="216" y="457" on="0"/>
        <pt x="132" y="396" on="0"/>
        <pt x="123" y="345" on="1"/>
        <pt x="77" y="357" on="1"/>
        <pt x="88" y="421" on="0"/>
        <pt x="198" y="501" on="0"/>
      </contour>
      <contour>
        <pt x="228" y="30" on="1"/>
        <pt x="310" y="30" on="0"/>
        <pt x="425" y="132" on="0"/>
        <pt x="425" y="207" on="1"/>
        <pt x="425" y="243" on="1"/>
        <pt x="247" y="243" on="1"/>
        <pt x="174" y="243" on="0"/>
        <pt x="96" y="182" on="0"/>
        <pt x="96" y="133" on="1"/>
        <pt x="96" y="88" on="0"/>
        <pt x="169" y="30" on="0"/>
      </contour>
    </TTGlyph>
    <TTGlyph name="aacute" xMin="41" yMin="-11" xMax="548" yMax="705">
      <contour>
        <pt x="337" y="567" on="1"/>
        <pt x="293" y="567" on="1"/>
        <pt x="379" y="705" on="1"/>
        <pt x="435" y="705" on="1"/>
      </contour>
      <contour>
        <pt x="548" y="489" on="1"/>
        <pt x="548" y="0" on="1"/>
        <pt x="499" y="0" on="1"/>
        <pt x="499" y="103" on="1"/>
        <pt x="467" y="49" on="0"/>
        <pt x="356" y="-11" on="0"/>
        <pt x="289" y="-11" on="1"/>
        <pt x="185" y="-11" on="0"/>
        <pt x="41" y="131" on="0"/>
        <pt x="41" y="245" on="1"/>
        <pt x="41" y="358" on="0"/>
        <pt x="186" y="501" on="0"/>
        <pt x="289" y="501" on="1"/>
        <pt x="356" y="501" on="0"/>
        <pt x="467" y="440" on="0"/>
        <pt x="499" y="386" on="1"/>
        <pt x="499" y="489" on="1"/>
      </contour>
      <contour>
        <pt x="294" y="33" on="1"/>
        <pt x="377" y="33" on="0"/>
        <pt x="499" y="151" on="0"/>
        <pt x="499" y="339" on="0"/>
        <pt x="376" y="457" on="0"/>
        <pt x="294" y="457" on="1"/>
        <pt x="208" y="457" on="0"/>
        <pt x="89" y="340" on="0"/>
        <pt x="89" y="245" on="1"/>
        <pt x="89" y="149" on="0"/>
        <pt x="207" y="33" on="0"/>
      </contour>
    </TTGlyph>
    <TTGlyph name="aacute.ss01" xMin="49" yMin="-11" xMax="472" yMax="705">
      <contour>
        <pt x="309" y="567" on="1"/>
        <pt x="265" y="567" on="1"/>
        <pt x="351" y="705" on="1"/>
        <pt x="407" y="705" on="1"/>
      </contour>
      <contour>
        <pt x="276" y="501" on="1"/>
        <pt x="366" y="501" on="0"/>
        <pt x="472" y="403" on="0"/>
        <pt x="472" y="316" on="1"/>
        <pt x="472" y="0" on="1"/>
        <pt x="425" y="0" on="1"/>
        <pt x="425" y="96" on="1"/>
        <pt x="396" y="47" on="0"/>
        <pt x="290" y="-11" on="0"/>
        <pt x="223" y="-11" on="1"/>
        <pt x="144" y="-11" on="0"/>
        <pt x="49" y="69" on="0"/>
        <pt x="49" y="132" on="1"/>
        <pt x="49" y="200" on="0"/>
        <pt x="152" y="284" on="0"/>
        <pt x="248" y="284" on="1"/>
        <pt x="425" y="283" on="1"/>
        <pt x="425" y="314" on="1"/>
        <pt x="425" y="381" on="0"/>
        <pt x="345" y="457" on="0"/>
        <pt x="278" y="457" on="1"/>
        <pt x="216" y="457" on="0"/>
        <pt x="132" y="396" on="0"/>
        <pt x="123" y="345" on="1"/>
        <pt x="77" y="357" on="1"/>
        <pt x="88" y="421" on="0"/>
        <pt x="198" y="501" on="0"/>
      </contour>
      <contour>
        <pt x="228" y="30" on="1"/>
        <pt x="310" y="30" on="0"/>
        <pt x="425" y="132" on="0"/>
        <pt x="425" y="207" on="1"/>
        <pt x="425" y="243" on="1"/>
        <pt x="247" y="243" on="1"/>
        <pt x="174" y="243" on="0"/>
        <pt x="96" y="182" on="0"/>
        <pt x="96" y="133" on="1"/>
        <pt x="96" y="88" on="0"/>
        <pt x="169" y="30" on="0"/>
      </contour>
    </TTGlyph>
    <TTGlyph name="abreve" xMin="41" yMin="-11" xMax="548" yMax="684">
      <contour>
        <pt x="368" y="558" on="0"/>
        <pt x="250" y="558" on="0"/>
        <pt x="175" y="627" on="0"/>
        <pt x="175" y="684" on="1"/>
        <pt x="217" y="684" on="1"/>
        <pt x="217" y="644" on="0"/>
        <pt x="270" y="594" on="0"/>
        <pt x="309" y="594" on="1"/>
        <pt x="349" y="594" on="0"/>
        <pt x="402" y="644" on="0"/>
        <pt x="402" y="684" on="1"/>
        <pt x="443" y="684" on="1"/>
        <pt x="443" y="627" on="0"/>
      </contour>
      <contour>
        <pt x="548" y="489" on="1"/>
        <pt x="548" y="0" on="1"/>
        <pt x="499" y="0" on="1"/>
        <pt x="499" y="103" on="1"/>
        <pt x="467" y="49" on="0"/>
        <pt x="356" y="-11" on="0"/>
        <pt x="289" y="-11" on="1"/>
        <pt x="185" y="-11" on="0"/>
        <pt x="41" y="131" on="0"/>
        <pt x="41" y="245" on="1"/>
        <pt x="41" y="358" on="0"/>
        <pt x="186" y="501" on="0"/>
        <pt x="289" y="501" on="1"/>
        <pt x="356" y="501" on="0"/>
        <pt x="467" y="440" on="0"/>
        <pt x="499" y="386" on="1"/>
        <pt x="499" y="489" on="1"/>
      </contour>
      <contour>
        <pt x="294" y="33" on="1"/>
        <pt x="377" y="33" on="0"/>
        <pt x="499" y="151" on="0"/>
        <pt x="499" y="339" on="0"/>
        <pt x="376" y="457" on="0"/>
        <pt x="294" y="457" on="1"/>
        <pt x="208" y="457" on="0"/>
        <pt x="89" y="340" on="0"/>
        <pt x="89" y="245" on="1"/>
        <pt x="89" y="149" on="0"/>
        <pt x="207" y="33" on="0"/>
      </contour>
    </TTGlyph>
    <TTGlyph name="abreve.ss01" xMin="49" yMin="-11" xMax="472" yMax="684">
      <contour>
        <pt x="340" y="558" on="0"/>
        <pt x="222" y="558" on="0"/>
        <pt x="147" y="627" on="0"/>
        <pt x="147" y="684" on="1"/>
        <pt x="189" y="684" on="1"/>
        <pt x="189" y="644" on="0"/>
        <pt x="242" y="594" on="0"/>
        <pt x="281" y="594" on="1"/>
        <pt x="321" y="594" on="0"/>
        <pt x="374" y="644" on="0"/>
        <pt x="374" y="684" on="1"/>
        <pt x="415" y="684" on="1"/>
        <pt x="415" y="627" on="0"/>
      </contour>
      <contour>
        <pt x="276" y="501" on="1"/>
        <pt x="366" y="501" on="0"/>
        <pt x="472" y="403" on="0"/>
        <pt x="472" y="316" on="1"/>
        <pt x="472" y="0" on="1"/>
        <pt x="425" y="0" on="1"/>
        <pt x="425" y="96" on="1"/>
        <pt x="396" y="47" on="0"/>
        <pt x="290" y="-11" on="0"/>
        <pt x="223" y="-11" on="1"/>
        <pt x="144" y="-11" on="0"/>
        <pt x="49" y="69" on="0"/>
        <pt x="49" y="132" on="1"/>
        <pt x="49" y="200" on="0"/>
        <pt x="152" y="284" on="0"/>
        <pt x="248" y="284" on="1"/>
        <pt x="425" y="283" on="1"/>
        <pt x="425" y="314" on="1"/>
        <pt x="425" y="381" on="0"/>
        <pt x="345" y="457" on="0"/>
        <pt x="278" y="457" on="1"/>
        <pt x="216" y="457" on="0"/>
        <pt x="132" y="396" on="0"/>
        <pt x="123" y="345" on="1"/>
        <pt x="77" y="357" on="1"/>
        <pt x="88" y="421" on="0"/>
        <pt x="198" y="501" on="0"/>
      </contour>
      <contour>
        <pt x="228" y="30" on="1"/>
        <pt x="310" y="30" on="0"/>
        <pt x="425" y="132" on="0"/>
        <pt x="425" y="207" on="1"/>
        <pt x="425" y="243" on="1"/>
        <pt x="247" y="243" on="1"/>
        <pt x="174" y="243" on="0"/>
        <pt x="96" y="182" on="0"/>
        <pt x="96" y="133" on="1"/>
        <pt x="96" y="88" on="0"/>
        <pt x="169" y="30" on="0"/>
      </contour>
    </TTGlyph>
    <TTGlyph name="acircumflex" xMin="41" yMin="-11" xMax="548" yMax="698">
      <contour>
        <pt x="219" y="560" on="1"/>
        <pt x="168" y="560" on="1"/>
        <pt x="286" y="698" on="1"/>
        <pt x="332" y="698" on="1"/>
        <pt x="451" y="560" on="1"/>
        <pt x="399" y="560" on="1"/>
        <pt x="309" y="665" on="1"/>
      </contour>
      <contour>
        <pt x="548" y="489" on="1"/>
        <pt x="548" y="0" on="1"/>
        <pt x="499" y="0" on="1"/>
        <pt x="499" y="103" on="1"/>
        <pt x="467" y="49" on="0"/>
        <pt x="356" y="-11" on="0"/>
        <pt x="289" y="-11" on="1"/>
        <pt x="185" y="-11" on="0"/>
        <pt x="41" y="131" on="0"/>
        <pt x="41" y="245" on="1"/>
        <pt x="41" y="358" on="0"/>
        <pt x="186" y="501" on="0"/>
        <pt x="289" y="501" on="1"/>
        <pt x="356" y="501" on="0"/>
        <pt x="467" y="440" on="0"/>
        <pt x="499" y="386" on="1"/>
        <pt x="499" y="489" on="1"/>
      </contour>
      <contour>
        <pt x="294" y="33" on="1"/>
        <pt x="377" y="33" on="0"/>
        <pt x="499" y="151" on="0"/>
        <pt x="499" y="339" on="0"/>
        <pt x="376" y="457" on="0"/>
        <pt x="294" y="457" on="1"/>
        <pt x="208" y="457" on="0"/>
        <pt x="89" y="340" on="0"/>
        <pt x="89" y="245" on="1"/>
        <pt x="89" y="149" on="0"/>
        <pt x="207" y="33" on="0"/>
      </contour>
    </TTGlyph>
    <TTGlyph name="acircumflex.ss01" xMin="49" yMin="-11" xMax="472" yMax="698">
      <contour>
        <pt x="191" y="560" on="1"/>
        <pt x="140" y="560" on="1"/>
        <pt x="258" y="698" on="1"/>
        <pt x="304" y="698" on="1"/>
        <pt x="423" y="560" on="1"/>
        <pt x="371" y="560" on="1"/>
        <pt x="281" y="665" on="1"/>
      </contour>
      <contour>
        <pt x="276" y="501" on="1"/>
        <pt x="366" y="501" on="0"/>
        <pt x="472" y="403" on="0"/>
        <pt x="472" y="316" on="1"/>
        <pt x="472" y="0" on="1"/>
        <pt x="425" y="0" on="1"/>
        <pt x="425" y="96" on="1"/>
        <pt x="396" y="47" on="0"/>
        <pt x="290" y="-11" on="0"/>
        <pt x="223" y="-11" on="1"/>
        <pt x="144" y="-11" on="0"/>
        <pt x="49" y="69" on="0"/>
        <pt x="49" y="132" on="1"/>
        <pt x="49" y="200" on="0"/>
        <pt x="152" y="284" on="0"/>
        <pt x="248" y="284" on="1"/>
        <pt x="425" y="283" on="1"/>
        <pt x="425" y="314" on="1"/>
        <pt x="425" y="381" on="0"/>
        <pt x="345" y="457" on="0"/>
        <pt x="278" y="457" on="1"/>
        <pt x="216" y="457" on="0"/>
        <pt x="132" y="396" on="0"/>
        <pt x="123" y="345" on="1"/>
        <pt x="77" y="357" on="1"/>
        <pt x="88" y="421" on="0"/>
        <pt x="198" y="501" on="0"/>
      </contour>
      <contour>
        <pt x="228" y="30" on="1"/>
        <pt x="310" y="30" on="0"/>
        <pt x="425" y="132" on="0"/>
        <pt x="425" y="207" on="1"/>
        <pt x="425" y="243" on="1"/>
        <pt x="247" y="243" on="1"/>
        <pt x="174" y="243" on="0"/>
        <pt x="96" y="182" on="0"/>
        <pt x="96" y="133" on="1"/>
        <pt x="96" y="88" on="0"/>
        <pt x="169" y="30" on="0"/>
      </contour>
    </TTGlyph>
    <TTGlyph name="acute" xMin="258" yMin="567" xMax="400" yMax="705">
      <contour>
        <pt x="302" y="567" on="1"/>
        <pt x="258" y="567" on="1"/>
        <pt x="344" y="705" on="1"/>
        <pt x="400" y="705" on="1"/>
      </contour>
    </TTGlyph>
    <TTGlyph name="adieresis" xMin="41" yMin="-11" xMax="548" yMax="660">
      <contour>
        <pt x="232" y="585" on="0"/>
        <pt x="198" y="585" on="0"/>
        <pt x="176" y="606" on="0"/>
        <pt x="176" y="622" on="1"/>
        <pt x="176" y="637" on="0"/>
        <pt x="199" y="660" on="0"/>
        <pt x="231" y="660" on="0"/>
        <pt x="253" y="637" on="0"/>
        <pt x="253" y="622" on="1"/>
        <pt x="253" y="606" on="0"/>
      </contour>
      <contour>
        <pt x="421" y="585" on="0"/>
        <pt x="387" y="585" on="0"/>
        <pt x="365" y="606" on="0"/>
        <pt x="365" y="622" on="1"/>
        <pt x="365" y="637" on="0"/>
        <pt x="388" y="660" on="0"/>
        <pt x="420" y="660" on="0"/>
        <pt x="442" y="637" on="0"/>
        <pt x="442" y="622" on="1"/>
        <pt x="442" y="606" on="0"/>
      </contour>
      <contour>
        <pt x="548" y="489" on="1"/>
        <pt x="548" y="0" on="1"/>
        <pt x="499" y="0" on="1"/>
        <pt x="499" y="103" on="1"/>
        <pt x="467" y="49" on="0"/>
        <pt x="356" y="-11" on="0"/>
        <pt x="289" y="-11" on="1"/>
        <pt x="185" y="-11" on="0"/>
        <pt x="41" y="131" on="0"/>
        <pt x="41" y="245" on="1"/>
        <pt x="41" y="358" on="0"/>
        <pt x="186" y="501" on="0"/>
        <pt x="289" y="501" on="1"/>
        <pt x="356" y="501" on="0"/>
        <pt x="467" y="440" on="0"/>
        <pt x="499" y="386" on="1"/>
        <pt x="499" y="489" on="1"/>
      </contour>
      <contour>
        <pt x="294" y="33" on="1"/>
        <pt x="377" y="33" on="0"/>
        <pt x="499" y="151" on="0"/>
        <pt x="499" y="339" on="0"/>
        <pt x="376" y="457" on="0"/>
        <pt x="294" y="457" on="1"/>
        <pt x="208" y="457" on="0"/>
        <pt x="89" y="340" on="0"/>
        <pt x="89" y="245" on="1"/>
        <pt x="89" y="149" on="0"/>
        <pt x="207" y="33" on="0"/>
      </contour>
    </TTGlyph>
    <TTGlyph name="adieresis.ss01" xMin="49" yMin="-11" xMax="472" yMax="660">
      <contour>
        <pt x="204" y="585" on="0"/>
        <pt x="170" y="585" on="0"/>
        <pt x="148" y="606" on="0"/>
        <pt x="148" y="622" on="1"/>
        <pt x="148" y="637" on="0"/>
        <pt x="171" y="660" on="0"/>
        <pt x="203" y="660" on="0"/>
        <pt x="225" y="637" on="0"/>
        <pt x="225" y="622" on="1"/>
        <pt x="225" y="606" on="0"/>
      </contour>
      <contour>
        <pt x="393" y="585" on="0"/>
        <pt x="359" y="585" on="0"/>
        <pt x="337" y="606" on="0"/>
        <pt x="337" y="622" on="1"/>
        <pt x="337" y="637" on="0"/>
        <pt x="360" y="660" on="0"/>
        <pt x="392" y="660" on="0"/>
        <pt x="414" y="637" on="0"/>
        <pt x="414" y="622" on="1"/>
        <pt x="414" y="606" on="0"/>
      </contour>
      <contour>
        <pt x="276" y="501" on="1"/>
        <pt x="366" y="501" on="0"/>
        <pt x="472" y="403" on="0"/>
        <pt x="472" y="316" on="1"/>
        <pt x="472" y="0" on="1"/>
        <pt x="425" y="0" on="1"/>
        <pt x="425" y="96" on="1"/>
        <pt x="396" y="47" on="0"/>
        <pt x="290" y="-11" on="0"/>
        <pt x="223" y="-11" on="1"/>
        <pt x="144" y="-11" on="0"/>
        <pt x="49" y="69" on="0"/>
        <pt x="49" y="132" on="1"/>
        <pt x="49" y="200" on="0"/>
        <pt x="152" y="284" on="0"/>
        <pt x="248" y="284" on="1"/>
        <pt x="425" y="283" on="1"/>
        <pt x="425" y="314" on="1"/>
        <pt x="425" y="381" on="0"/>
        <pt x="345" y="457" on="0"/>
        <pt x="278" y="457" on="1"/>
        <pt x="216" y="457" on="0"/>
        <pt x="132" y="396" on="0"/>
        <pt x="123" y="345" on="1"/>
        <pt x="77" y="357" on="1"/>
        <pt x="88" y="421" on="0"/>
        <pt x="198" y="501" on="0"/>
      </contour>
      <contour>
        <pt x="228" y="30" on="1"/>
        <pt x="310" y="30" on="0"/>
        <pt x="425" y="132" on="0"/>
        <pt x="425" y="207" on="1"/>
        <pt x="425" y="243" on="1"/>
        <pt x="247" y="243" on="1"/>
        <pt x="174" y="243" on="0"/>
        <pt x="96" y="182" on="0"/>
        <pt x="96" y="133" on="1"/>
        <pt x="96" y="88" on="0"/>
        <pt x="169" y="30" on="0"/>
      </contour>
    </TTGlyph>
    <TTGlyph name="ae" xMin="49" yMin="-11" xMax="891" yMax="501">
      <contour>
        <pt x="891" y="231" on="1"/>
        <pt x="473" y="231" on="1"/>
        <pt x="477" y="139" on="0"/>
        <pt x="583" y="32" on="0"/>
        <pt x="665" y="32" on="1"/>
        <pt x="718" y="32" on="0"/>
        <pt x="820" y="99" on="0"/>
        <pt x="838" y="158" on="1"/>
        <pt x="882" y="147" on="1"/>
        <pt x="864" y="78" on="0"/>
        <pt x="737" y="-11" on="0"/>
        <pt x="664" y="-11" on="1"/>
        <pt x="587" y="-11" on="0"/>
        <pt x="476" y="64" on="0"/>
        <pt x="448" y="132" on="1"/>
        <pt x="424" y="66" on="0"/>
        <pt x="309" y="-11" on="0"/>
        <pt x="233" y="-11" on="1"/>
        <pt x="145" y="-11" on="0"/>
        <pt x="49" y="69" on="0"/>
        <pt x="49" y="132" on="1"/>
        <pt x="49" y="197" on="0"/>
        <pt x="148" y="269" on="0"/>
        <pt x="234" y="269" on="1"/>
        <pt x="427" y="269" on="1"/>
        <pt x="427" y="321" on="1"/>
        <pt x="427" y="383" on="0"/>
        <pt x="346" y="458" on="0"/>
        <pt x="280" y="458" on="1"/>
        <pt x="211" y="458" on="0"/>
        <pt x="128" y="398" on="0"/>
        <pt x="120" y="344" on="1"/>
        <pt x="76" y="355" on="1"/>
        <pt x="84" y="421" on="0"/>
        <pt x="191" y="501" on="0"/>
        <pt x="280" y="501" on="1"/>
        <pt x="346" y="501" on="0"/>
        <pt x="444" y="437" on="0"/>
        <pt x="461" y="383" on="1"/>
        <pt x="526" y="501" on="0"/>
        <pt x="664" y="501" on="1"/>
        <pt x="762" y="501" on="0"/>
        <pt x="889" y="359" on="0"/>
        <pt x="891" y="249" on="1"/>
      </contour>
      <contour>
        <pt x="473" y="269" on="1"/>
        <pt x="842" y="269" on="1"/>
        <pt x="835" y="354" on="0"/>
        <pt x="737" y="458" on="0"/>
        <pt x="666" y="458" on="1"/>
        <pt x="587" y="458" on="0"/>
        <pt x="479" y="356" on="0"/>
      </contour>
      <contour>
        <pt x="427" y="231" on="1"/>
        <pt x="234" y="231" on="1"/>
        <pt x="170" y="231" on="0"/>
        <pt x="96" y="180" on="0"/>
        <pt x="96" y="133" on="1"/>
        <pt x="96" y="87" on="0"/>
        <pt x="170" y="30" on="0"/>
        <pt x="237" y="30" on="1"/>
        <pt x="317" y="30" on="0"/>
        <pt x="427" y="137" on="0"/>
        <pt x="427" y="222" on="1"/>
      </contour>
    </TTGlyph>
    <TTGlyph name="aeacute" xMin="49" yMin="-11" xMax="891" yMax="705">
      <contour>
        <pt x="493" y="567" on="1"/>
        <pt x="449" y="567" on="1"/>
        <pt x="535" y="705" on="1"/>
        <pt x="591" y="705" on="1"/>
      </contour>
      <contour>
        <pt x="891" y="231" on="1"/>
        <pt x="473" y="231" on="1"/>
        <pt x="477" y="139" on="0"/>
        <pt x="583" y="32" on="0"/>
        <pt x="665" y="32" on="1"/>
        <pt x="718" y="32" on="0"/>
        <pt x="820" y="99" on="0"/>
        <pt x="838" y="158" on="1"/>
        <pt x="882" y="147" on="1"/>
        <pt x="864" y="78" on="0"/>
        <pt x="737" y="-11" on="0"/>
        <pt x="664" y="-11" on="1"/>
        <pt x="587" y="-11" on="0"/>
        <pt x="476" y="64" on="0"/>
        <pt x="448" y="132" on="1"/>
        <pt x="424" y="66" on="0"/>
        <pt x="309" y="-11" on="0"/>
        <pt x="233" y="-11" on="1"/>
        <pt x="145" y="-11" on="0"/>
        <pt x="49" y="69" on="0"/>
        <pt x="49" y="132" on="1"/>
        <pt x="49" y="197" on="0"/>
        <pt x="148" y="269" on="0"/>
        <pt x="234" y="269" on="1"/>
        <pt x="427" y="269" on="1"/>
        <pt x="427" y="321" on="1"/>
        <pt x="427" y="383" on="0"/>
        <pt x="346" y="458" on="0"/>
        <pt x="280" y="458" on="1"/>
        <pt x="211" y="458" on="0"/>
        <pt x="128" y="398" on="0"/>
        <pt x="120" y="344" on="1"/>
        <pt x="76" y="355" on="1"/>
        <pt x="84" y="421" on="0"/>
        <pt x="191" y="501" on="0"/>
        <pt x="280" y="501" on="1"/>
        <pt x="346" y="501" on="0"/>
        <pt x="444" y="437" on="0"/>
        <pt x="461" y="383" on="1"/>
        <pt x="526" y="501" on="0"/>
        <pt x="664" y="501" on="1"/>
        <pt x="762" y="501" on="0"/>
        <pt x="889" y="359" on="0"/>
        <pt x="891" y="249" on="1"/>
      </contour>
      <contour>
        <pt x="473" y="269" on="1"/>
        <pt x="842" y="269" on="1"/>
        <pt x="835" y="354" on="0"/>
        <pt x="737" y="458" on="0"/>
        <pt x="666" y="458" on="1"/>
        <pt x="587" y="458" on="0"/>
        <pt x="479" y="356" on="0"/>
      </contour>
      <contour>
        <pt x="427" y="231" on="1"/>
        <pt x="234" y="231" on="1"/>
        <pt x="170" y="231" on="0"/>
        <pt x="96" y="180" on="0"/>
        <pt x="96" y="133" on="1"/>
        <pt x="96" y="87" on="0"/>
        <pt x="170" y="30" on="0"/>
        <pt x="237" y="30" on="1"/>
        <pt x="317" y="30" on="0"/>
        <pt x="427" y="137" on="0"/>
        <pt x="427" y="222" on="1"/>
      </contour>
    </TTGlyph>
    <TTGlyph name="agrave" xMin="41" yMin="-11" xMax="548" yMax="705">
      <contour>
        <pt x="286" y="567" on="1"/>
        <pt x="188" y="705" on="1"/>
        <pt x="244" y="705" on="1"/>
        <pt x="330" y="567" on="1"/>
      </contour>
      <contour>
        <pt x="548" y="489" on="1"/>
        <pt x="548" y="0" on="1"/>
        <pt x="499" y="0" on="1"/>
        <pt x="499" y="103" on="1"/>
        <pt x="467" y="49" on="0"/>
        <pt x="356" y="-11" on="0"/>
        <pt x="289" y="-11" on="1"/>
        <pt x="185" y="-11" on="0"/>
        <pt x="41" y="131" on="0"/>
        <pt x="41" y="245" on="1"/>
        <pt x="41" y="358" on="0"/>
        <pt x="186" y="501" on="0"/>
        <pt x="289" y="501" on="1"/>
        <pt x="356" y="501" on="0"/>
        <pt x="467" y="440" on="0"/>
        <pt x="499" y="386" on="1"/>
        <pt x="499" y="489" on="1"/>
      </contour>
      <contour>
        <pt x="294" y="33" on="1"/>
        <pt x="377" y="33" on="0"/>
        <pt x="499" y="151" on="0"/>
        <pt x="499" y="339" on="0"/>
        <pt x="376" y="457" on="0"/>
        <pt x="294" y="457" on="1"/>
        <pt x="208" y="457" on="0"/>
        <pt x="89" y="340" on="0"/>
        <pt x="89" y="245" on="1"/>
        <pt x="89" y="149" on="0"/>
        <pt x="207" y="33" on="0"/>
      </contour>
    </TTGlyph>
    <TTGlyph name="agrave.ss01" xMin="49" yMin="-11" xMax="472" yMax="705">
      <contour>
        <pt x="258" y="567" on="1"/>
        <pt x="160" y="705" on="1"/>
        <pt x="216" y="705" on="1"/>
        <pt x="302" y="567" on="1"/>
      </contour>
      <contour>
        <pt x="276" y="501" on="1"/>
        <pt x="366" y="501" on="0"/>
        <pt x="472" y="403" on="0"/>
        <pt x="472" y="316" on="1"/>
        <pt x="472" y="0" on="1"/>
        <pt x="425" y="0" on="1"/>
        <pt x="425" y="96" on="1"/>
        <pt x="396" y="47" on="0"/>
        <pt x="290" y="-11" on="0"/>
        <pt x="223" y="-11" on="1"/>
        <pt x="144" y="-11" on="0"/>
        <pt x="49" y="69" on="0"/>
        <pt x="49" y="132" on="1"/>
        <pt x="49" y="200" on="0"/>
        <pt x="152" y="284" on="0"/>
        <pt x="248" y="284" on="1"/>
        <pt x="425" y="283" on="1"/>
        <pt x="425" y="314" on="1"/>
        <pt x="425" y="381" on="0"/>
        <pt x="345" y="457" on="0"/>
        <pt x="278" y="457" on="1"/>
        <pt x="216" y="457" on="0"/>
        <pt x="132" y="396" on="0"/>
        <pt x="123" y="345" on="1"/>
        <pt x="77" y="357" on="1"/>
        <pt x="88" y="421" on="0"/>
        <pt x="198" y="501" on="0"/>
      </contour>
      <contour>
        <pt x="228" y="30" on="1"/>
        <pt x="310" y="30" on="0"/>
        <pt x="425" y="132" on="0"/>
        <pt x="425" y="207" on="1"/>
        <pt x="425" y="243" on="1"/>
        <pt x="247" y="243" on="1"/>
        <pt x="174" y="243" on="0"/>
        <pt x="96" y="182" on="0"/>
        <pt x="96" y="133" on="1"/>
        <pt x="96" y="88" on="0"/>
        <pt x="169" y="30" on="0"/>
      </contour>
    </TTGlyph>
    <TTGlyph name="amacron" xMin="41" yMin="-11" xMax="548" yMax="629">
      <contour>
        <pt x="443" y="589" on="1"/>
        <pt x="176" y="589" on="1"/>
        <pt x="176" y="629" on="1"/>
        <pt x="443" y="629" on="1"/>
      </contour>
      <contour>
        <pt x="548" y="489" on="1"/>
        <pt x="548" y="0" on="1"/>
        <pt x="499" y="0" on="1"/>
        <pt x="499" y="103" on="1"/>
        <pt x="467" y="49" on="0"/>
        <pt x="356" y="-11" on="0"/>
        <pt x="289" y="-11" on="1"/>
        <pt x="185" y="-11" on="0"/>
        <pt x="41" y="131" on="0"/>
        <pt x="41" y="245" on="1"/>
        <pt x="41" y="358" on="0"/>
        <pt x="186" y="501" on="0"/>
        <pt x="289" y="501" on="1"/>
        <pt x="356" y="501" on="0"/>
        <pt x="467" y="440" on="0"/>
        <pt x="499" y="386" on="1"/>
        <pt x="499" y="489" on="1"/>
      </contour>
      <contour>
        <pt x="294" y="33" on="1"/>
        <pt x="377" y="33" on="0"/>
        <pt x="499" y="151" on="0"/>
        <pt x="499" y="339" on="0"/>
        <pt x="376" y="457" on="0"/>
        <pt x="294" y="457" on="1"/>
        <pt x="208" y="457" on="0"/>
        <pt x="89" y="340" on="0"/>
        <pt x="89" y="245" on="1"/>
        <pt x="89" y="149" on="0"/>
        <pt x="207" y="33" on="0"/>
      </contour>
    </TTGlyph>
    <TTGlyph name="amacron.ss01" xMin="49" yMin="-11" xMax="472" yMax="629">
      <contour>
        <pt x="415" y="589" on="1"/>
        <pt x="148" y="589" on="1"/>
        <pt x="148" y="629" on="1"/>
        <pt x="415" y="629" on="1"/>
      </contour>
      <contour>
        <pt x="276" y="501" on="1"/>
        <pt x="366" y="501" on="0"/>
        <pt x="472" y="403" on="0"/>
        <pt x="472" y="316" on="1"/>
        <pt x="472" y="0" on="1"/>
        <pt x="425" y="0" on="1"/>
        <pt x="425" y="96" on="1"/>
        <pt x="396" y="47" on="0"/>
        <pt x="290" y="-11" on="0"/>
        <pt x="223" y="-11" on="1"/>
        <pt x="144" y="-11" on="0"/>
        <pt x="49" y="69" on="0"/>
        <pt x="49" y="132" on="1"/>
        <pt x="49" y="200" on="0"/>
        <pt x="152" y="284" on="0"/>
        <pt x="248" y="284" on="1"/>
        <pt x="425" y="283" on="1"/>
        <pt x="425" y="314" on="1"/>
        <pt x="425" y="381" on="0"/>
        <pt x="345" y="457" on="0"/>
        <pt x="278" y="457" on="1"/>
        <pt x="216" y="457" on="0"/>
        <pt x="132" y="396" on="0"/>
        <pt x="123" y="345" on="1"/>
        <pt x="77" y="357" on="1"/>
        <pt x="88" y="421" on="0"/>
        <pt x="198" y="501" on="0"/>
      </contour>
      <contour>
        <pt x="228" y="30" on="1"/>
        <pt x="310" y="30" on="0"/>
        <pt x="425" y="132" on="0"/>
        <pt x="425" y="207" on="1"/>
        <pt x="425" y="243" on="1"/>
        <pt x="247" y="243" on="1"/>
        <pt x="174" y="243" on="0"/>
        <pt x="96" y="182" on="0"/>
        <pt x="96" y="133" on="1"/>
        <pt x="96" y="88" on="0"/>
        <pt x="169" y="30" on="0"/>
      </contour>
    </TTGlyph>
    <TTGlyph name="ampersand" xMin="70" yMin="-15" xMax="689" yMax="681">
      <contour>
        <pt x="661" y="-15" on="1"/>
        <pt x="533" y="90" on="1"/>
        <pt x="452" y="-11" on="0"/>
        <pt x="309" y="-11" on="1"/>
        <pt x="201" y="-11" on="0"/>
        <pt x="70" y="95" on="0"/>
        <pt x="70" y="182" on="1"/>
        <pt x="70" y="245" on="0"/>
        <pt x="145" y="343" on="0"/>
        <pt x="205" y="370" on="1"/>
        <pt x="145" y="438" on="0"/>
        <pt x="145" y="511" on="1"/>
        <pt x="145" y="586" on="0"/>
        <pt x="248" y="681" on="0"/>
        <pt x="329" y="681" on="1"/>
        <pt x="406" y="681" on="0"/>
        <pt x="506" y="593" on="0"/>
        <pt x="515" y="513" on="1"/>
        <pt x="470" y="503" on="1"/>
        <pt x="463" y="573" on="0"/>
        <pt x="387" y="639" on="0"/>
        <pt x="328" y="639" on="1"/>
        <pt x="268" y="639" on="0"/>
        <pt x="193" y="568" on="0"/>
        <pt x="193" y="511" on="1"/>
        <pt x="193" y="455" on="0"/>
        <pt x="272" y="357" on="0"/>
        <pt x="368" y="281" on="1"/>
        <pt x="523" y="154" on="1"/>
        <pt x="556" y="215" on="0"/>
        <pt x="556" y="296" on="1"/>
        <pt x="556" y="336" on="1"/>
        <pt x="600" y="336" on="1"/>
        <pt x="600" y="296" on="1"/>
        <pt x="600" y="198" on="0"/>
        <pt x="558" y="126" on="1"/>
        <pt x="689" y="19" on="1"/>
      </contour>
      <contour>
        <pt x="309" y="31" on="1"/>
        <pt x="427" y="31" on="0"/>
        <pt x="499" y="118" on="1"/>
        <pt x="332" y="255" on="1"/>
        <pt x="277" y="298" on="0"/>
        <pt x="234" y="339" on="1"/>
        <pt x="118" y="287" on="0"/>
        <pt x="118" y="182" on="1"/>
        <pt x="118" y="114" on="0"/>
        <pt x="223" y="31" on="0"/>
      </contour>
    </TTGlyph>
    <TTGlyph name="aogonek" xMin="41" yMin="-195" xMax="577" yMax="501">
      <contour>
        <pt x="571" y="-147" on="1"/>
        <pt x="577" y="-182" on="1"/>
        <pt x="539" y="-195" on="0"/>
        <pt x="518" y="-195" on="1"/>
        <pt x="486" y="-195" on="0"/>
        <pt x="437" y="-158" on="0"/>
        <pt x="437" y="-116" on="1"/>
        <pt x="437" y="-87" on="0"/>
        <pt x="468" y="-38" on="0"/>
        <pt x="507" y="0" on="1"/>
        <pt x="499" y="0" on="1"/>
        <pt x="499" y="103" on="1"/>
        <pt x="467" y="49" on="0"/>
        <pt x="356" y="-11" on="0"/>
        <pt x="289" y="-11" on="1"/>
        <pt x="185" y="-11" on="0"/>
        <pt x="41" y="131" on="0"/>
        <pt x="41" y="245" on="1"/>
        <pt x="41" y="358" on="0"/>
        <pt x="186" y="501" on="0"/>
        <pt x="289" y="501" on="1"/>
        <pt x="356" y="501" on="0"/>
        <pt x="467" y="440" on="0"/>
        <pt x="499" y="386" on="1"/>
        <pt x="499" y="489" on="1"/>
        <pt x="548" y="489" on="1"/>
        <pt x="548" y="0" on="1"/>
        <pt x="506" y="-42" on="0"/>
        <pt x="477" y="-84" on="0"/>
        <pt x="477" y="-109" on="1"/>
        <pt x="477" y="-158" on="0"/>
        <pt x="525" y="-158" on="1"/>
        <pt x="540" y="-158" on="0"/>
      </contour>
      <contour>
        <pt x="294" y="33" on="1"/>
        <pt x="377" y="33" on="0"/>
        <pt x="499" y="151" on="0"/>
        <pt x="499" y="339" on="0"/>
        <pt x="376" y="457" on="0"/>
        <pt x="294" y="457" on="1"/>
        <pt x="208" y="457" on="0"/>
        <pt x="89" y="340" on="0"/>
        <pt x="89" y="245" on="1"/>
        <pt x="89" y="149" on="0"/>
        <pt x="207" y="33" on="0"/>
      </contour>
    </TTGlyph>
    <TTGlyph name="aogonek.ss01" xMin="49" yMin="-195" xMax="505" yMax="501">
      <contour>
        <pt x="499" y="-147" on="1"/>
        <pt x="505" y="-182" on="1"/>
        <pt x="467" y="-195" on="0"/>
        <pt x="446" y="-195" on="1"/>
        <pt x="414" y="-195" on="0"/>
        <pt x="365" y="-158" on="0"/>
        <pt x="365" y="-116" on="1"/>
        <pt x="365" y="-87" on="0"/>
        <pt x="396" y="-38" on="0"/>
        <pt x="435" y="0" on="1"/>
        <pt x="425" y="0" on="1"/>
        <pt x="425" y="96" on="1"/>
        <pt x="396" y="47" on="0"/>
        <pt x="290" y="-11" on="0"/>
        <pt x="223" y="-11" on="1"/>
        <pt x="144" y="-11" on="0"/>
        <pt x="49" y="69" on="0"/>
        <pt x="49" y="132" on="1"/>
        <pt x="49" y="200" on="0"/>
        <pt x="152" y="284" on="0"/>
        <pt x="248" y="284" on="1"/>
        <pt x="425" y="283" on="1"/>
        <pt x="425" y="314" on="1"/>
        <pt x="425" y="381" on="0"/>
        <pt x="345" y="457" on="0"/>
        <pt x="278" y="457" on="1"/>
        <pt x="216" y="457" on="0"/>
        <pt x="132" y="396" on="0"/>
        <pt x="123" y="345" on="1"/>
        <pt x="77" y="357" on="1"/>
        <pt x="88" y="421" on="0"/>
        <pt x="198" y="501" on="0"/>
        <pt x="276" y="501" on="1"/>
        <pt x="366" y="501" on="0"/>
        <pt x="472" y="403" on="0"/>
        <pt x="472" y="316" on="1"/>
        <pt x="472" y="0" on="1"/>
        <pt x="476" y="0" on="1"/>
        <pt x="434" y="-42" on="0"/>
        <pt x="405" y="-84" on="0"/>
        <pt x="405" y="-109" on="1"/>
        <pt x="405" y="-158" on="0"/>
        <pt x="453" y="-158" on="1"/>
        <pt x="468" y="-158" on="0"/>
      </contour>
      <contour>
        <pt x="228" y="30" on="1"/>
        <pt x="310" y="30" on="0"/>
        <pt x="425" y="132" on="0"/>
        <pt x="425" y="207" on="1"/>
        <pt x="425" y="243" on="1"/>
        <pt x="247" y="243" on="1"/>
        <pt x="174" y="243" on="0"/>
        <pt x="96" y="182" on="0"/>
        <pt x="96" y="133" on="1"/>
        <pt x="96" y="88" on="0"/>
        <pt x="169" y="30" on="0"/>
      </contour>
    </TTGlyph>
    <TTGlyph name="approxequal" xMin="75" yMin="187" xMax="505" yMax="453">
      <contour>
        <pt x="505" y="421" on="1"/>
        <pt x="505" y="374" on="1"/>
        <pt x="463" y="351" on="0"/>
        <pt x="408" y="351" on="1"/>
        <pt x="358" y="351" on="0"/>
        <pt x="231" y="411" on="0"/>
        <pt x="185" y="411" on="1"/>
        <pt x="112" y="411" on="0"/>
        <pt x="75" y="375" on="1"/>
        <pt x="75" y="420" on="1"/>
        <pt x="114" y="453" on="0"/>
        <pt x="185" y="453" on="1"/>
        <pt x="232" y="453" on="0"/>
        <pt x="363" y="394" on="0"/>
        <pt x="409" y="394" on="1"/>
        <pt x="467" y="394" on="0"/>
      </contour>
      <contour>
        <pt x="505" y="257" on="1"/>
        <pt x="505" y="210" on="1"/>
        <pt x="463" y="187" on="0"/>
        <pt x="408" y="187" on="1"/>
        <pt x="358" y="187" on="0"/>
        <pt x="231" y="247" on="0"/>
        <pt x="185" y="247" on="1"/>
        <pt x="112" y="247" on="0"/>
        <pt x="75" y="211" on="1"/>
        <pt x="75" y="256" on="1"/>
        <pt x="114" y="289" on="0"/>
        <pt x="185" y="289" on="1"/>
        <pt x="232" y="289" on="0"/>
        <pt x="363" y="230" on="0"/>
        <pt x="409" y="230" on="1"/>
        <pt x="467" y="230" on="0"/>
      </contour>
    </TTGlyph>
    <TTGlyph name="approxequal.tf" xMin="90" yMin="187" xMax="520" yMax="453">
      <contour>
        <pt x="520" y="421" on="1"/>
        <pt x="520" y="374" on="1"/>
        <pt x="478" y="351" on="0"/>
        <pt x="423" y="351" on="1"/>
        <pt x="373" y="351" on="0"/>
        <pt x="246" y="411" on="0"/>
        <pt x="200" y="411" on="1"/>
        <pt x="127" y="411" on="0"/>
        <pt x="90" y="375" on="1"/>
        <pt x="90" y="420" on="1"/>
        <pt x="129" y="453" on="0"/>
        <pt x="200" y="453" on="1"/>
        <pt x="247" y="453" on="0"/>
        <pt x="378" y="394" on="0"/>
        <pt x="424" y="394" on="1"/>
        <pt x="482" y="394" on="0"/>
      </contour>
      <contour>
        <pt x="520" y="257" on="1"/>
        <pt x="520" y="210" on="1"/>
        <pt x="478" y="187" on="0"/>
        <pt x="423" y="187" on="1"/>
        <pt x="373" y="187" on="0"/>
        <pt x="246" y="247" on="0"/>
        <pt x="200" y="247" on="1"/>
        <pt x="127" y="247" on="0"/>
        <pt x="90" y="211" on="1"/>
        <pt x="90" y="256" on="1"/>
        <pt x="129" y="289" on="0"/>
        <pt x="200" y="289" on="1"/>
        <pt x="247" y="289" on="0"/>
        <pt x="378" y="230" on="0"/>
        <pt x="424" y="230" on="1"/>
        <pt x="482" y="230" on="0"/>
      </contour>
    </TTGlyph>
    <TTGlyph name="aring" xMin="41" yMin="-11" xMax="548" yMax="739">
      <contour>
        <pt x="349" y="553" on="0"/>
        <pt x="269" y="553" on="0"/>
        <pt x="213" y="608" on="0"/>
        <pt x="213" y="684" on="0"/>
        <pt x="269" y="739" on="0"/>
        <pt x="349" y="739" on="0"/>
        <pt x="405" y="684" on="0"/>
        <pt x="405" y="608" on="0"/>
      </contour>
      <contour>
        <pt x="335" y="707" on="0"/>
        <pt x="283" y="707" on="0"/>
        <pt x="246" y="671" on="0"/>
        <pt x="246" y="621" on="0"/>
        <pt x="283" y="585" on="0"/>
        <pt x="335" y="585" on="0"/>
        <pt x="372" y="621" on="0"/>
        <pt x="372" y="671" on="0"/>
      </contour>
      <contour>
        <pt x="548" y="489" on="1"/>
        <pt x="548" y="0" on="1"/>
        <pt x="499" y="0" on="1"/>
        <pt x="499" y="103" on="1"/>
        <pt x="467" y="49" on="0"/>
        <pt x="356" y="-11" on="0"/>
        <pt x="289" y="-11" on="1"/>
        <pt x="185" y="-11" on="0"/>
        <pt x="41" y="131" on="0"/>
        <pt x="41" y="245" on="1"/>
        <pt x="41" y="358" on="0"/>
        <pt x="186" y="501" on="0"/>
        <pt x="289" y="501" on="1"/>
        <pt x="356" y="501" on="0"/>
        <pt x="467" y="440" on="0"/>
        <pt x="499" y="386" on="1"/>
        <pt x="499" y="489" on="1"/>
      </contour>
      <contour>
        <pt x="294" y="33" on="1"/>
        <pt x="377" y="33" on="0"/>
        <pt x="499" y="151" on="0"/>
        <pt x="499" y="339" on="0"/>
        <pt x="376" y="457" on="0"/>
        <pt x="294" y="457" on="1"/>
        <pt x="208" y="457" on="0"/>
        <pt x="89" y="340" on="0"/>
        <pt x="89" y="245" on="1"/>
        <pt x="89" y="149" on="0"/>
        <pt x="207" y="33" on="0"/>
      </contour>
    </TTGlyph>
    <TTGlyph name="aring.ss01" xMin="49" yMin="-11" xMax="472" yMax="739">
      <contour>
        <pt x="321" y="553" on="0"/>
        <pt x="241" y="553" on="0"/>
        <pt x="185" y="608" on="0"/>
        <pt x="185" y="684" on="0"/>
        <pt x="241" y="739" on="0"/>
        <pt x="321" y="739" on="0"/>
        <pt x="377" y="684" on="0"/>
        <pt x="377" y="608" on="0"/>
      </contour>
      <contour>
        <pt x="307" y="707" on="0"/>
        <pt x="255" y="707" on="0"/>
        <pt x="218" y="671" on="0"/>
        <pt x="218" y="621" on="0"/>
        <pt x="255" y="585" on="0"/>
        <pt x="307" y="585" on="0"/>
        <pt x="344" y="621" on="0"/>
        <pt x="344" y="671" on="0"/>
      </contour>
      <contour>
        <pt x="276" y="501" on="1"/>
        <pt x="366" y="501" on="0"/>
        <pt x="472" y="403" on="0"/>
        <pt x="472" y="316" on="1"/>
        <pt x="472" y="0" on="1"/>
        <pt x="425" y="0" on="1"/>
        <pt x="425" y="96" on="1"/>
        <pt x="396" y="47" on="0"/>
        <pt x="290" y="-11" on="0"/>
        <pt x="223" y="-11" on="1"/>
        <pt x="144" y="-11" on="0"/>
        <pt x="49" y="69" on="0"/>
        <pt x="49" y="132" on="1"/>
        <pt x="49" y="200" on="0"/>
        <pt x="152" y="284" on="0"/>
        <pt x="248" y="284" on="1"/>
        <pt x="425" y="283" on="1"/>
        <pt x="425" y="314" on="1"/>
        <pt x="425" y="381" on="0"/>
        <pt x="345" y="457" on="0"/>
        <pt x="278" y="457" on="1"/>
        <pt x="216" y="457" on="0"/>
        <pt x="132" y="396" on="0"/>
        <pt x="123" y="345" on="1"/>
        <pt x="77" y="357" on="1"/>
        <pt x="88" y="421" on="0"/>
        <pt x="198" y="501" on="0"/>
      </contour>
      <contour>
        <pt x="228" y="30" on="1"/>
        <pt x="310" y="30" on="0"/>
        <pt x="425" y="132" on="0"/>
        <pt x="425" y="207" on="1"/>
        <pt x="425" y="243" on="1"/>
        <pt x="247" y="243" on="1"/>
        <pt x="174" y="243" on="0"/>
        <pt x="96" y="182" on="0"/>
        <pt x="96" y="133" on="1"/>
        <pt x="96" y="88" on="0"/>
        <pt x="169" y="30" on="0"/>
      </contour>
    </TTGlyph>
    <TTGlyph name="arrowdown" xMin="40" yMin="-7" xMax="708" yMax="670">
      <contour>
        <pt x="708" y="327" on="1"/>
        <pt x="374" y="-7" on="1"/>
        <pt x="40" y="327" on="1"/>
        <pt x="76" y="363" on="1"/>
        <pt x="349" y="90" on="1"/>
        <pt x="349" y="670" on="1"/>
        <pt x="399" y="670" on="1"/>
        <pt x="399" y="90" on="1"/>
        <pt x="672" y="363" on="1"/>
      </contour>
    </TTGlyph>
    <TTGlyph name="arrowleft" xMin="10" yMin="-10" xMax="687" yMax="658">
      <contour>
        <pt x="687" y="299" on="1"/>
        <pt x="107" y="299" on="1"/>
        <pt x="380" y="27" on="1"/>
        <pt x="344" y="-10" on="1"/>
        <pt x="10" y="324" on="1"/>
        <pt x="344" y="658" on="1"/>
        <pt x="380" y="622" on="1"/>
        <pt x="107" y="349" on="1"/>
        <pt x="687" y="349" on="1"/>
      </contour>
    </TTGlyph>
    <TTGlyph name="arrowright" xMin="40" yMin="-10" xMax="717" yMax="658">
      <contour>
        <pt x="717" y="324" on="1"/>
        <pt x="383" y="-10" on="1"/>
        <pt x="347" y="27" on="1"/>
        <pt x="621" y="299" on="1"/>
        <pt x="40" y="299" on="1"/>
        <pt x="40" y="349" on="1"/>
        <pt x="621" y="349" on="1"/>
        <pt x="347" y="622" on="1"/>
        <pt x="383" y="658" on="1"/>
      </contour>
    </TTGlyph>
    <TTGlyph name="arrowup" xMin="40" yMin="0" xMax="708" yMax="677">
      <contour>
        <pt x="672" y="307" on="1"/>
        <pt x="399" y="581" on="1"/>
        <pt x="399" y="0" on="1"/>
        <pt x="349" y="0" on="1"/>
        <pt x="349" y="581" on="1"/>
        <pt x="76" y="307" on="1"/>
        <pt x="40" y="343" on="1"/>
        <pt x="374" y="677" on="1"/>
        <pt x="708" y="343" on="1"/>
      </contour>
    </TTGlyph>
    <TTGlyph name="asciicircum" xMin="28" yMin="469" xMax="342" yMax="670">
      <contour>
        <pt x="75" y="469" on="1"/>
        <pt x="28" y="469" on="1"/>
        <pt x="168" y="670" on="1"/>
        <pt x="202" y="670" on="1"/>
        <pt x="342" y="469" on="1"/>
        <pt x="294" y="469" on="1"/>
        <pt x="185" y="624" on="1"/>
      </contour>
    </TTGlyph>
    <TTGlyph name="asciitilde" xMin="42" yMin="239" xMax="423" yMax="358">
      <contour>
        <pt x="86" y="243" on="1"/>
        <pt x="42" y="243" on="1"/>
        <pt x="42" y="299" on="0"/>
        <pt x="101" y="358" on="0"/>
        <pt x="145" y="358" on="1"/>
        <pt x="186" y="358" on="0"/>
        <pt x="286" y="283" on="0"/>
        <pt x="316" y="283" on="1"/>
        <pt x="345" y="283" on="0"/>
        <pt x="378" y="323" on="0"/>
        <pt x="377" y="357" on="1"/>
        <pt x="423" y="357" on="1"/>
        <pt x="423" y="300" on="0"/>
        <pt x="362" y="239" on="0"/>
        <pt x="318" y="239" on="1"/>
        <pt x="277" y="239" on="0"/>
        <pt x="178" y="314" on="0"/>
        <pt x="149" y="314" on="1"/>
        <pt x="119" y="314" on="0"/>
        <pt x="84" y="275" on="0"/>
      </contour>
    </TTGlyph>
    <TTGlyph name="asterisk" xMin="46" yMin="375" xMax="371" yMax="720">
      <contour>
        <pt x="244" y="548" on="1"/>
        <pt x="371" y="476" on="1"/>
        <pt x="353" y="446" on="1"/>
        <pt x="227" y="517" on="1"/>
        <pt x="227" y="375" on="1"/>
        <pt x="189" y="375" on="1"/>
        <pt x="189" y="517" on="1"/>
        <pt x="64" y="446" on="1"/>
        <pt x="46" y="476" on="1"/>
        <pt x="173" y="548" on="1"/>
        <pt x="46" y="620" on="1"/>
        <pt x="64" y="651" on="1"/>
        <pt x="189" y="580" on="1"/>
        <pt x="189" y="720" on="1"/>
        <pt x="227" y="720" on="1"/>
        <pt x="227" y="579" on="1"/>
        <pt x="353" y="651" on="1"/>
        <pt x="371" y="620" on="1"/>
      </contour>
    </TTGlyph>
    <TTGlyph name="at" xMin="73" yMin="-120" xMax="895" yMax="681">
      <contour>
        <pt x="486" y="681" on="1"/>
        <pt x="660" y="681" on="0"/>
        <pt x="895" y="463" on="0"/>
        <pt x="895" y="296" on="1"/>
        <pt x="895" y="237" on="0"/>
        <pt x="866" y="138" on="0"/>
        <pt x="793" y="68" on="0"/>
        <pt x="739" y="68" on="1"/>
        <pt x="689" y="68" on="0"/>
        <pt x="627" y="119" on="0"/>
        <pt x="625" y="163" on="1"/>
        <pt x="572" y="73" on="0"/>
        <pt x="464" y="73" on="1"/>
        <pt x="381" y="73" on="0"/>
        <pt x="267" y="187" on="0"/>
        <pt x="267" y="277" on="1"/>
        <pt x="267" y="368" on="0"/>
        <pt x="381" y="482" on="0"/>
        <pt x="464" y="482" on="1"/>
        <pt x="516" y="482" on="0"/>
        <pt x="600" y="434" on="0"/>
        <pt x="625" y="391" on="1"/>
        <pt x="625" y="472" on="1"/>
        <pt x="662" y="472" on="1"/>
        <pt x="662" y="171" on="1"/>
        <pt x="662" y="139" on="0"/>
        <pt x="706" y="100" on="0"/>
        <pt x="741" y="100" on="1"/>
        <pt x="799" y="100" on="0"/>
        <pt x="858" y="215" on="0"/>
        <pt x="858" y="295" on="1"/>
        <pt x="858" y="449" on="0"/>
        <pt x="644" y="649" on="0"/>
        <pt x="486" y="649" on="1"/>
        <pt x="324" y="649" on="0"/>
        <pt x="109" y="440" on="0"/>
        <pt x="109" y="282" on="1"/>
        <pt x="109" y="125" on="0"/>
        <pt x="321" y="-86" on="0"/>
        <pt x="472" y="-86" on="1"/>
        <pt x="532" y="-86" on="0"/>
        <pt x="662" y="-51" on="0"/>
        <pt x="708" y="-20" on="1"/>
        <pt x="727" y="-51" on="1"/>
        <pt x="680" y="-83" on="0"/>
        <pt x="538" y="-120" on="0"/>
        <pt x="473" y="-120" on="1"/>
        <pt x="306" y="-120" on="0"/>
        <pt x="73" y="108" on="0"/>
        <pt x="73" y="454" on="0"/>
        <pt x="308" y="681" on="0"/>
      </contour>
      <contour>
        <pt x="468" y="109" on="1"/>
        <pt x="534" y="109" on="0"/>
        <pt x="625" y="203" on="0"/>
        <pt x="625" y="353" on="0"/>
        <pt x="534" y="444" on="0"/>
        <pt x="468" y="444" on="1"/>
        <pt x="401" y="444" on="0"/>
        <pt x="307" y="352" on="0"/>
        <pt x="307" y="278" on="1"/>
        <pt x="307" y="202" on="0"/>
        <pt x="401" y="109" on="0"/>
      </contour>
    </TTGlyph>
    <TTGlyph name="at.case" xMin="73" yMin="-80" xMax="895" yMax="721">
      <contour>
        <pt x="486" y="721" on="1"/>
        <pt x="660" y="721" on="0"/>
        <pt x="895" y="503" on="0"/>
        <pt x="895" y="336" on="1"/>
        <pt x="895" y="277" on="0"/>
        <pt x="866" y="178" on="0"/>
        <pt x="793" y="108" on="0"/>
        <pt x="739" y="108" on="1"/>
        <pt x="689" y="108" on="0"/>
        <pt x="627" y="159" on="0"/>
        <pt x="625" y="203" on="1"/>
        <pt x="572" y="113" on="0"/>
        <pt x="464" y="113" on="1"/>
        <pt x="381" y="113" on="0"/>
        <pt x="267" y="227" on="0"/>
        <pt x="267" y="317" on="1"/>
        <pt x="267" y="408" on="0"/>
        <pt x="381" y="522" on="0"/>
        <pt x="464" y="522" on="1"/>
        <pt x="516" y="522" on="0"/>
        <pt x="600" y="474" on="0"/>
        <pt x="625" y="431" on="1"/>
        <pt x="625" y="512" on="1"/>
        <pt x="662" y="512" on="1"/>
        <pt x="662" y="211" on="1"/>
        <pt x="662" y="179" on="0"/>
        <pt x="706" y="140" on="0"/>
        <pt x="741" y="140" on="1"/>
        <pt x="799" y="140" on="0"/>
        <pt x="858" y="255" on="0"/>
        <pt x="858" y="335" on="1"/>
        <pt x="858" y="489" on="0"/>
        <pt x="644" y="689" on="0"/>
        <pt x="486" y="689" on="1"/>
        <pt x="324" y="689" on="0"/>
        <pt x="109" y="480" on="0"/>
        <pt x="109" y="322" on="1"/>
        <pt x="109" y="165" on="0"/>
        <pt x="321" y="-46" on="0"/>
        <pt x="472" y="-46" on="1"/>
        <pt x="532" y="-46" on="0"/>
        <pt x="662" y="-11" on="0"/>
        <pt x="708" y="20" on="1"/>
        <pt x="727" y="-11" on="1"/>
        <pt x="680" y="-43" on="0"/>
        <pt x="538" y="-80" on="0"/>
        <pt x="473" y="-80" on="1"/>
        <pt x="306" y="-80" on="0"/>
        <pt x="73" y="148" on="0"/>
        <pt x="73" y="494" on="0"/>
        <pt x="308" y="721" on="0"/>
      </contour>
      <contour>
        <pt x="468" y="149" on="1"/>
        <pt x="534" y="149" on="0"/>
        <pt x="625" y="243" on="0"/>
        <pt x="625" y="393" on="0"/>
        <pt x="534" y="484" on="0"/>
        <pt x="468" y="484" on="1"/>
        <pt x="401" y="484" on="0"/>
        <pt x="307" y="392" on="0"/>
        <pt x="307" y="318" on="1"/>
        <pt x="307" y="242" on="0"/>
        <pt x="401" y="149" on="0"/>
      </contour>
    </TTGlyph>
    <TTGlyph name="atilde" xMin="41" yMin="-11" xMax="548" yMax="683">
      <contour>
        <pt x="250" y="645" on="1"/>
        <pt x="230" y="645" on="0"/>
        <pt x="207" y="618" on="0"/>
        <pt x="207" y="595" on="1"/>
        <pt x="170" y="595" on="1"/>
        <pt x="170" y="638" on="0"/>
        <pt x="214" y="683" on="0"/>
        <pt x="247" y="683" on="1"/>
        <pt x="277" y="683" on="0"/>
        <pt x="348" y="630" on="0"/>
        <pt x="370" y="630" on="1"/>
        <pt x="389" y="630" on="0"/>
        <pt x="410" y="658" on="0"/>
        <pt x="410" y="682" on="1"/>
        <pt x="448" y="682" on="1"/>
        <pt x="448" y="638" on="0"/>
        <pt x="405" y="593" on="0"/>
        <pt x="372" y="593" on="1"/>
        <pt x="342" y="593" on="0"/>
        <pt x="271" y="645" on="0"/>
      </contour>
      <contour>
        <pt x="548" y="489" on="1"/>
        <pt x="548" y="0" on="1"/>
        <pt x="499" y="0" on="1"/>
        <pt x="499" y="103" on="1"/>
        <pt x="467" y="49" on="0"/>
        <pt x="356" y="-11" on="0"/>
        <pt x="289" y="-11" on="1"/>
        <pt x="185" y="-11" on="0"/>
        <pt x="41" y="131" on="0"/>
        <pt x="41" y="245" on="1"/>
        <pt x="41" y="358" on="0"/>
        <pt x="186" y="501" on="0"/>
        <pt x="289" y="501" on="1"/>
        <pt x="356" y="501" on="0"/>
        <pt x="467" y="440" on="0"/>
        <pt x="499" y="386" on="1"/>
        <pt x="499" y="489" on="1"/>
      </contour>
      <contour>
        <pt x="294" y="33" on="1"/>
        <pt x="377" y="33" on="0"/>
        <pt x="499" y="151" on="0"/>
        <pt x="499" y="339" on="0"/>
        <pt x="376" y="457" on="0"/>
        <pt x="294" y="457" on="1"/>
        <pt x="208" y="457" on="0"/>
        <pt x="89" y="340" on="0"/>
        <pt x="89" y="245" on="1"/>
        <pt x="89" y="149" on="0"/>
        <pt x="207" y="33" on="0"/>
      </contour>
    </TTGlyph>
    <TTGlyph name="atilde.ss01" xMin="49" yMin="-11" xMax="472" yMax="683">
      <contour>
        <pt x="222" y="645" on="1"/>
        <pt x="202" y="645" on="0"/>
        <pt x="179" y="618" on="0"/>
        <pt x="179" y="595" on="1"/>
        <pt x="142" y="595" on="1"/>
        <pt x="142" y="638" on="0"/>
        <pt x="186" y="683" on="0"/>
        <pt x="219" y="683" on="1"/>
        <pt x="249" y="683" on="0"/>
        <pt x="320" y="630" on="0"/>
        <pt x="342" y="630" on="1"/>
        <pt x="361" y="630" on="0"/>
        <pt x="382" y="658" on="0"/>
        <pt x="382" y="682" on="1"/>
        <pt x="420" y="682" on="1"/>
        <pt x="420" y="638" on="0"/>
        <pt x="377" y="593" on="0"/>
        <pt x="344" y="593" on="1"/>
        <pt x="314" y="593" on="0"/>
        <pt x="243" y="645" on="0"/>
      </contour>
      <contour>
        <pt x="276" y="501" on="1"/>
        <pt x="366" y="501" on="0"/>
        <pt x="472" y="403" on="0"/>
        <pt x="472" y="316" on="1"/>
        <pt x="472" y="0" on="1"/>
        <pt x="425" y="0" on="1"/>
        <pt x="425" y="96" on="1"/>
        <pt x="396" y="47" on="0"/>
        <pt x="290" y="-11" on="0"/>
        <pt x="223" y="-11" on="1"/>
        <pt x="144" y="-11" on="0"/>
        <pt x="49" y="69" on="0"/>
        <pt x="49" y="132" on="1"/>
        <pt x="49" y="200" on="0"/>
        <pt x="152" y="284" on="0"/>
        <pt x="248" y="284" on="1"/>
        <pt x="425" y="283" on="1"/>
        <pt x="425" y="314" on="1"/>
        <pt x="425" y="381" on="0"/>
        <pt x="345" y="457" on="0"/>
        <pt x="278" y="457" on="1"/>
        <pt x="216" y="457" on="0"/>
        <pt x="132" y="396" on="0"/>
        <pt x="123" y="345" on="1"/>
        <pt x="77" y="357" on="1"/>
        <pt x="88" y="421" on="0"/>
        <pt x="198" y="501" on="0"/>
      </contour>
      <contour>
        <pt x="228" y="30" on="1"/>
        <pt x="310" y="30" on="0"/>
        <pt x="425" y="132" on="0"/>
        <pt x="425" y="207" on="1"/>
        <pt x="425" y="243" on="1"/>
        <pt x="247" y="243" on="1"/>
        <pt x="174" y="243" on="0"/>
        <pt x="96" y="182" on="0"/>
        <pt x="96" y="133" on="1"/>
        <pt x="96" y="88" on="0"/>
        <pt x="169" y="30" on="0"/>
      </contour>
    </TTGlyph>
    <TTGlyph name="b" xMin="96" yMin="-11" xMax="603" yMax="720">
      <contour>
        <pt x="356" y="501" on="1"/>
        <pt x="459" y="501" on="0"/>
        <pt x="603" y="358" on="0"/>
        <pt x="603" y="245" on="1"/>
        <pt x="603" y="131" on="0"/>
        <pt x="459" y="-11" on="0"/>
        <pt x="356" y="-11" on="1"/>
        <pt x="289" y="-11" on="0"/>
        <pt x="177" y="50" on="0"/>
        <pt x="145" y="105" on="1"/>
        <pt x="145" y="0" on="1"/>
        <pt x="96" y="0" on="1"/>
        <pt x="96" y="720" on="1"/>
        <pt x="145" y="720" on="1"/>
        <pt x="145" y="385" on="1"/>
        <pt x="177" y="440" on="0"/>
        <pt x="289" y="501" on="0"/>
      </contour>
      <contour>
        <pt x="350" y="33" on="1"/>
        <pt x="437" y="33" on="0"/>
        <pt x="555" y="149" on="0"/>
        <pt x="555" y="245" on="1"/>
        <pt x="555" y="340" on="0"/>
        <pt x="436" y="457" on="0"/>
        <pt x="350" y="457" on="1"/>
        <pt x="268" y="457" on="0"/>
        <pt x="145" y="339" on="0"/>
        <pt x="145" y="151" on="0"/>
        <pt x="267" y="33" on="0"/>
      </contour>
    </TTGlyph>
    <TTGlyph name="backslash" xMin="6" yMin="-72" xMax="337" yMax="740">
      <contour>
        <pt x="337" y="-72" on="1"/>
        <pt x="294" y="-72" on="1"/>
        <pt x="6" y="740" on="1"/>
        <pt x="49" y="740" on="1"/>
      </contour>
    </TTGlyph>
    <TTGlyph name="backslash.case" xMin="30" yMin="0" xMax="314" yMax="670">
      <contour>
        <pt x="314" y="0" on="1"/>
        <pt x="266" y="0" on="1"/>
        <pt x="30" y="670" on="1"/>
        <pt x="77" y="670" on="1"/>
      </contour>
    </TTGlyph>
    <TTGlyph name="bar" xMin="96" yMin="-72" xMax="145" yMax="740">
      <contour>
        <pt x="145" y="-72" on="1"/>
        <pt x="96" y="-72" on="1"/>
        <pt x="96" y="740" on="1"/>
        <pt x="145" y="740" on="1"/>
      </contour>
    </TTGlyph>
    <TTGlyph name="bar.case" xMin="96" yMin="-41" xMax="145" yMax="710">
      <contour>
        <pt x="145" y="-41" on="1"/>
        <pt x="96" y="-41" on="1"/>
        <pt x="96" y="710" on="1"/>
        <pt x="145" y="710" on="1"/>
      </contour>
    </TTGlyph>
    <TTGlyph name="braceleft" xMin="58" yMin="-82" xMax="370" yMax="740">
      <contour>
        <pt x="216" y="612" on="1"/>
        <pt x="216" y="441" on="1"/>
        <pt x="216" y="402" on="0"/>
        <pt x="180" y="343" on="0"/>
        <pt x="148" y="329" on="1"/>
        <pt x="216" y="300" on="0"/>
        <pt x="216" y="217" on="1"/>
        <pt x="216" y="46" on="1"/>
        <pt x="216" y="7" on="0"/>
        <pt x="261" y="-39" on="0"/>
        <pt x="298" y="-39" on="1"/>
        <pt x="370" y="-39" on="1"/>
        <pt x="370" y="-82" on="1"/>
        <pt x="294" y="-82" on="1"/>
        <pt x="237" y="-82" on="0"/>
        <pt x="168" y="-14" on="0"/>
        <pt x="168" y="42" on="1"/>
        <pt x="168" y="213" on="1"/>
        <pt x="168" y="255" on="0"/>
        <pt x="117" y="305" on="0"/>
        <pt x="76" y="307" on="1"/>
        <pt x="58" y="309" on="1"/>
        <pt x="58" y="349" on="1"/>
        <pt x="76" y="351" on="1"/>
        <pt x="117" y="354" on="0"/>
        <pt x="168" y="404" on="0"/>
        <pt x="168" y="445" on="1"/>
        <pt x="168" y="616" on="1"/>
        <pt x="168" y="672" on="0"/>
        <pt x="237" y="740" on="0"/>
        <pt x="294" y="740" on="1"/>
        <pt x="370" y="740" on="1"/>
        <pt x="370" y="698" on="1"/>
        <pt x="298" y="698" on="1"/>
        <pt x="261" y="698" on="0"/>
        <pt x="216" y="651" on="0"/>
      </contour>
    </TTGlyph>
    <TTGlyph name="braceleft.case" xMin="58" yMin="0" xMax="370" yMax="670">
      <contour>
        <pt x="216" y="541" on="1"/>
        <pt x="216" y="443" on="1"/>
        <pt x="216" y="404" on="0"/>
        <pt x="180" y="345" on="0"/>
        <pt x="148" y="331" on="1"/>
        <pt x="216" y="302" on="0"/>
        <pt x="216" y="219" on="1"/>
        <pt x="216" y="129" on="1"/>
        <pt x="216" y="90" on="0"/>
        <pt x="261" y="43" on="0"/>
        <pt x="298" y="43" on="1"/>
        <pt x="370" y="43" on="1"/>
        <pt x="370" y="0" on="1"/>
        <pt x="294" y="0" on="1"/>
        <pt x="237" y="0" on="0"/>
        <pt x="168" y="69" on="0"/>
        <pt x="168" y="125" on="1"/>
        <pt x="168" y="215" on="1"/>
        <pt x="168" y="256" on="0"/>
        <pt x="117" y="307" on="0"/>
        <pt x="76" y="309" on="1"/>
        <pt x="58" y="312" on="1"/>
        <pt x="58" y="351" on="1"/>
        <pt x="76" y="354" on="1"/>
        <pt x="117" y="356" on="0"/>
        <pt x="168" y="406" on="0"/>
        <pt x="168" y="447" on="1"/>
        <pt x="168" y="545" on="1"/>
        <pt x="168" y="601" on="0"/>
        <pt x="237" y="670" on="0"/>
        <pt x="294" y="670" on="1"/>
        <pt x="370" y="670" on="1"/>
        <pt x="370" y="627" on="1"/>
        <pt x="298" y="627" on="1"/>
        <pt x="261" y="627" on="0"/>
        <pt x="216" y="580" on="0"/>
      </contour>
    </TTGlyph>
    <TTGlyph name="braceright" xMin="63" yMin="-82" xMax="375" yMax="740">
      <contour>
        <pt x="375" y="349" on="1"/>
        <pt x="375" y="309" on="1"/>
        <pt x="357" y="307" on="1"/>
        <pt x="315" y="305" on="0"/>
        <pt x="265" y="255" on="0"/>
        <pt x="265" y="213" on="1"/>
        <pt x="265" y="42" on="1"/>
        <pt x="265" y="-14" on="0"/>
        <pt x="196" y="-82" on="0"/>
        <pt x="139" y="-82" on="1"/>
        <pt x="63" y="-82" on="1"/>
        <pt x="63" y="-39" on="1"/>
        <pt x="135" y="-39" on="1"/>
        <pt x="171" y="-39" on="0"/>
        <pt x="216" y="7" on="0"/>
        <pt x="216" y="46" on="1"/>
        <pt x="216" y="217" on="1"/>
        <pt x="216" y="300" on="0"/>
        <pt x="284" y="329" on="1"/>
        <pt x="252" y="343" on="0"/>
        <pt x="216" y="402" on="0"/>
        <pt x="216" y="441" on="1"/>
        <pt x="216" y="612" on="1"/>
        <pt x="216" y="651" on="0"/>
        <pt x="171" y="698" on="0"/>
        <pt x="135" y="698" on="1"/>
        <pt x="63" y="698" on="1"/>
        <pt x="63" y="740" on="1"/>
        <pt x="139" y="740" on="1"/>
        <pt x="196" y="740" on="0"/>
        <pt x="265" y="672" on="0"/>
        <pt x="265" y="616" on="1"/>
        <pt x="265" y="445" on="1"/>
        <pt x="265" y="404" on="0"/>
        <pt x="315" y="354" on="0"/>
        <pt x="357" y="351" on="1"/>
      </contour>
    </TTGlyph>
    <TTGlyph name="braceright.case" xMin="63" yMin="0" xMax="375" yMax="670">
      <contour>
        <pt x="375" y="351" on="1"/>
        <pt x="375" y="312" on="1"/>
        <pt x="357" y="309" on="1"/>
        <pt x="315" y="307" on="0"/>
        <pt x="265" y="256" on="0"/>
        <pt x="265" y="215" on="1"/>
        <pt x="265" y="125" on="1"/>
        <pt x="265" y="69" on="0"/>
        <pt x="196" y="0" on="0"/>
        <pt x="139" y="0" on="1"/>
        <pt x="63" y="0" on="1"/>
        <pt x="63" y="43" on="1"/>
        <pt x="135" y="43" on="1"/>
        <pt x="171" y="43" on="0"/>
        <pt x="216" y="90" on="0"/>
        <pt x="216" y="129" on="1"/>
        <pt x="216" y="219" on="1"/>
        <pt x="216" y="302" on="0"/>
        <pt x="284" y="331" on="1"/>
        <pt x="252" y="345" on="0"/>
        <pt x="216" y="404" on="0"/>
        <pt x="216" y="443" on="1"/>
        <pt x="216" y="541" on="1"/>
        <pt x="216" y="580" on="0"/>
        <pt x="171" y="627" on="0"/>
        <pt x="135" y="627" on="1"/>
        <pt x="63" y="627" on="1"/>
        <pt x="63" y="670" on="1"/>
        <pt x="139" y="670" on="1"/>
        <pt x="196" y="670" on="0"/>
        <pt x="265" y="601" on="0"/>
        <pt x="265" y="545" on="1"/>
        <pt x="265" y="447" on="1"/>
        <pt x="265" y="406" on="0"/>
        <pt x="315" y="356" on="0"/>
        <pt x="357" y="354" on="1"/>
      </contour>
    </TTGlyph>
    <TTGlyph name="bracketleft" xMin="96" yMin="-82" xMax="322" yMax="740">
      <contour>
        <pt x="145" y="697" on="1"/>
        <pt x="145" y="-39" on="1"/>
        <pt x="322" y="-39" on="1"/>
        <pt x="322" y="-82" on="1"/>
        <pt x="96" y="-82" on="1"/>
        <pt x="96" y="740" on="1"/>
        <pt x="322" y="740" on="1"/>
        <pt x="322" y="697" on="1"/>
      </contour>
    </TTGlyph>
    <TTGlyph name="bracketleft.case" xMin="96" yMin="0" xMax="322" yMax="670">
      <contour>
        <pt x="145" y="627" on="1"/>
        <pt x="145" y="43" on="1"/>
        <pt x="322" y="43" on="1"/>
        <pt x="322" y="0" on="1"/>
        <pt x="96" y="0" on="1"/>
        <pt x="96" y="670" on="1"/>
        <pt x="322" y="670" on="1"/>
        <pt x="322" y="627" on="1"/>
      </contour>
    </TTGlyph>
    <TTGlyph name="bracketright" xMin="63" yMin="-82" xMax="288" yMax="740">
      <contour>
        <pt x="288" y="740" on="1"/>
        <pt x="288" y="-82" on="1"/>
        <pt x="63" y="-82" on="1"/>
        <pt x="63" y="-39" on="1"/>
        <pt x="240" y="-39" on="1"/>
        <pt x="240" y="697" on="1"/>
        <pt x="63" y="697" on="1"/>
        <pt x="63" y="740" on="1"/>
      </contour>
    </TTGlyph>
    <TTGlyph name="bracketright.case" xMin="63" yMin="0" xMax="288" yMax="670">
      <contour>
        <pt x="288" y="670" on="1"/>
        <pt x="288" y="0" on="1"/>
        <pt x="63" y="0" on="1"/>
        <pt x="63" y="43" on="1"/>
        <pt x="240" y="43" on="1"/>
        <pt x="240" y="627" on="1"/>
        <pt x="63" y="627" on="1"/>
        <pt x="63" y="670" on="1"/>
      </contour>
    </TTGlyph>
    <TTGlyph name="breve" xMin="166" yMin="558" xMax="434" yMax="684">
      <contour>
        <pt x="359" y="558" on="0"/>
        <pt x="241" y="558" on="0"/>
        <pt x="166" y="627" on="0"/>
        <pt x="166" y="684" on="1"/>
        <pt x="208" y="684" on="1"/>
        <pt x="208" y="644" on="0"/>
        <pt x="261" y="594" on="0"/>
        <pt x="300" y="594" on="1"/>
        <pt x="340" y="594" on="0"/>
        <pt x="393" y="644" on="0"/>
        <pt x="393" y="684" on="1"/>
        <pt x="434" y="684" on="1"/>
        <pt x="434" y="627" on="0"/>
      </contour>
    </TTGlyph>
    <TTGlyph name="bullet" xMin="55" yMin="134" xMax="330" yMax="399">
      <contour>
        <pt x="134" y="399" on="0"/>
        <pt x="250" y="399" on="0"/>
        <pt x="330" y="320" on="0"/>
        <pt x="330" y="266" on="1"/>
        <pt x="330" y="209" on="0"/>
        <pt x="251" y="134" on="0"/>
        <pt x="133" y="134" on="0"/>
        <pt x="55" y="209" on="0"/>
        <pt x="55" y="266" on="1"/>
        <pt x="55" y="320" on="0"/>
      </contour>
    </TTGlyph>
    <TTGlyph name="bullet.case" xMin="55" yMin="200" xMax="330" yMax="465">
      <contour>
        <pt x="134" y="465" on="0"/>
        <pt x="250" y="465" on="0"/>
        <pt x="330" y="386" on="0"/>
        <pt x="330" y="332" on="1"/>
        <pt x="330" y="275" on="0"/>
        <pt x="251" y="200" on="0"/>
        <pt x="133" y="200" on="0"/>
        <pt x="55" y="275" on="0"/>
        <pt x="55" y="332" on="1"/>
        <pt x="55" y="386" on="0"/>
      </contour>
    </TTGlyph>
    <TTGlyph name="c" xMin="49" yMin="-11" xMax="527" yMax="501">
      <contour>
        <pt x="301" y="34" on="1"/>
        <pt x="364" y="34" on="0"/>
        <pt x="464" y="96" on="0"/>
        <pt x="481" y="151" on="1"/>
        <pt x="526" y="138" on="1"/>
        <pt x="507" y="70" on="0"/>
        <pt x="381" y="-11" on="0"/>
        <pt x="301" y="-11" on="1"/>
        <pt x="196" y="-11" on="0"/>
        <pt x="49" y="131" on="0"/>
        <pt x="49" y="245" on="1"/>
        <pt x="49" y="357" on="0"/>
        <pt x="197" y="501" on="0"/>
        <pt x="301" y="501" on="1"/>
        <pt x="380" y="501" on="0"/>
        <pt x="505" y="417" on="0"/>
        <pt x="527" y="347" on="1"/>
        <pt x="481" y="332" on="1"/>
        <pt x="464" y="390" on="0"/>
        <pt x="364" y="455" on="0"/>
        <pt x="301" y="455" on="1"/>
        <pt x="216" y="455" on="0"/>
        <pt x="97" y="337" on="0"/>
        <pt x="97" y="245" on="1"/>
        <pt x="97" y="150" on="0"/>
        <pt x="215" y="34" on="0"/>
      </contour>
    </TTGlyph>
    <TTGlyph name="cacute" xMin="49" yMin="-11" xMax="527" yMax="705">
      <contour>
        <pt x="331" y="567" on="1"/>
        <pt x="287" y="567" on="1"/>
        <pt x="373" y="705" on="1"/>
        <pt x="429" y="705" on="1"/>
      </contour>
      <contour>
        <pt x="301" y="34" on="1"/>
        <pt x="364" y="34" on="0"/>
        <pt x="464" y="96" on="0"/>
        <pt x="481" y="151" on="1"/>
        <pt x="526" y="138" on="1"/>
        <pt x="507" y="70" on="0"/>
        <pt x="381" y="-11" on="0"/>
        <pt x="301" y="-11" on="1"/>
        <pt x="196" y="-11" on="0"/>
        <pt x="49" y="131" on="0"/>
        <pt x="49" y="245" on="1"/>
        <pt x="49" y="357" on="0"/>
        <pt x="197" y="501" on="0"/>
        <pt x="301" y="501" on="1"/>
        <pt x="380" y="501" on="0"/>
        <pt x="505" y="417" on="0"/>
        <pt x="527" y="347" on="1"/>
        <pt x="481" y="332" on="1"/>
        <pt x="464" y="390" on="0"/>
        <pt x="364" y="455" on="0"/>
        <pt x="301" y="455" on="1"/>
        <pt x="216" y="455" on="0"/>
        <pt x="97" y="337" on="0"/>
        <pt x="97" y="245" on="1"/>
        <pt x="97" y="150" on="0"/>
        <pt x="215" y="34" on="0"/>
      </contour>
    </TTGlyph>
    <TTGlyph name="caron" xMin="159" yMin="561" xMax="442" yMax="700">
      <contour>
        <pt x="442" y="700" on="1"/>
        <pt x="323" y="561" on="1"/>
        <pt x="277" y="561" on="1"/>
        <pt x="159" y="700" on="1"/>
        <pt x="210" y="700" on="1"/>
        <pt x="300" y="594" on="1"/>
        <pt x="390" y="700" on="1"/>
      </contour>
    </TTGlyph>
    <TTGlyph name="caron.alt" xMin="273" yMin="491" xMax="323" yMax="650">
      <contour>
        <pt x="313" y="491" on="1"/>
        <pt x="273" y="491" on="1"/>
        <pt x="273" y="650" on="1"/>
        <pt x="323" y="650" on="1"/>
      </contour>
    </TTGlyph>
    <TTGlyph name="ccaron" xMin="49" yMin="-11" xMax="527" yMax="700">
      <contour>
        <pt x="280" y="561" on="1"/>
        <pt x="162" y="700" on="1"/>
        <pt x="213" y="700" on="1"/>
        <pt x="303" y="594" on="1"/>
        <pt x="393" y="700" on="1"/>
        <pt x="445" y="700" on="1"/>
        <pt x="326" y="561" on="1"/>
      </contour>
      <contour>
        <pt x="301" y="34" on="1"/>
        <pt x="364" y="34" on="0"/>
        <pt x="464" y="96" on="0"/>
        <pt x="481" y="151" on="1"/>
        <pt x="526" y="138" on="1"/>
        <pt x="507" y="70" on="0"/>
        <pt x="381" y="-11" on="0"/>
        <pt x="301" y="-11" on="1"/>
        <pt x="196" y="-11" on="0"/>
        <pt x="49" y="131" on="0"/>
        <pt x="49" y="245" on="1"/>
        <pt x="49" y="357" on="0"/>
        <pt x="197" y="501" on="0"/>
        <pt x="301" y="501" on="1"/>
        <pt x="380" y="501" on="0"/>
        <pt x="505" y="417" on="0"/>
        <pt x="527" y="347" on="1"/>
        <pt x="481" y="332" on="1"/>
        <pt x="464" y="390" on="0"/>
        <pt x="364" y="455" on="0"/>
        <pt x="301" y="455" on="1"/>
        <pt x="216" y="455" on="0"/>
        <pt x="97" y="337" on="0"/>
        <pt x="97" y="245" on="1"/>
        <pt x="97" y="150" on="0"/>
        <pt x="215" y="34" on="0"/>
      </contour>
    </TTGlyph>
    <TTGlyph name="ccedilla" xMin="49" yMin="-175" xMax="527" yMax="501">
      <contour>
        <pt x="301" y="34" on="1"/>
        <pt x="364" y="34" on="0"/>
        <pt x="464" y="96" on="0"/>
        <pt x="481" y="151" on="1"/>
        <pt x="526" y="138" on="1"/>
        <pt x="508" y="73" on="0"/>
        <pt x="393" y="-6" on="0"/>
        <pt x="319" y="-10" on="1"/>
        <pt x="236" y="-175" on="1"/>
        <pt x="182" y="-175" on="1"/>
        <pt x="278" y="-10" on="1"/>
        <pt x="181" y="-2" on="0"/>
        <pt x="49" y="137" on="0"/>
        <pt x="49" y="245" on="1"/>
        <pt x="49" y="357" on="0"/>
        <pt x="197" y="501" on="0"/>
        <pt x="301" y="501" on="1"/>
        <pt x="380" y="501" on="0"/>
        <pt x="505" y="417" on="0"/>
        <pt x="527" y="347" on="1"/>
        <pt x="481" y="332" on="1"/>
        <pt x="464" y="390" on="0"/>
        <pt x="364" y="455" on="0"/>
        <pt x="301" y="455" on="1"/>
        <pt x="216" y="455" on="0"/>
        <pt x="97" y="337" on="0"/>
        <pt x="97" y="245" on="1"/>
        <pt x="97" y="150" on="0"/>
        <pt x="215" y="34" on="0"/>
      </contour>
    </TTGlyph>
    <TTGlyph name="cdotaccent" xMin="49" yMin="-11" xMax="527" yMax="665">
      <contour>
        <pt x="320" y="591" on="0"/>
        <pt x="286" y="591" on="0"/>
        <pt x="265" y="612" on="0"/>
        <pt x="265" y="628" on="1"/>
        <pt x="265" y="643" on="0"/>
        <pt x="287" y="665" on="0"/>
        <pt x="319" y="665" on="0"/>
        <pt x="341" y="643" on="0"/>
        <pt x="341" y="628" on="1"/>
        <pt x="341" y="612" on="0"/>
      </contour>
      <contour>
        <pt x="301" y="34" on="1"/>
        <pt x="364" y="34" on="0"/>
        <pt x="464" y="96" on="0"/>
        <pt x="481" y="151" on="1"/>
        <pt x="526" y="138" on="1"/>
        <pt x="507" y="70" on="0"/>
        <pt x="381" y="-11" on="0"/>
        <pt x="301" y="-11" on="1"/>
        <pt x="196" y="-11" on="0"/>
        <pt x="49" y="131" on="0"/>
        <pt x="49" y="245" on="1"/>
        <pt x="49" y="357" on="0"/>
        <pt x="197" y="501" on="0"/>
        <pt x="301" y="501" on="1"/>
        <pt x="380" y="501" on="0"/>
        <pt x="505" y="417" on="0"/>
        <pt x="527" y="347" on="1"/>
        <pt x="481" y="332" on="1"/>
        <pt x="464" y="390" on="0"/>
        <pt x="364" y="455" on="0"/>
        <pt x="301" y="455" on="1"/>
        <pt x="216" y="455" on="0"/>
        <pt x="97" y="337" on="0"/>
        <pt x="97" y="245" on="1"/>
        <pt x="97" y="150" on="0"/>
        <pt x="215" y="34" on="0"/>
      </contour>
    </TTGlyph>
    <TTGlyph name="cedilla" xMin="189" yMin="-175" xMax="331" yMax="0">
      <contour>
        <pt x="291" y="0" on="1"/>
        <pt x="331" y="0" on="1"/>
        <pt x="243" y="-175" on="1"/>
        <pt x="189" y="-175" on="1"/>
      </contour>
    </TTGlyph>
</ttFont>
